<mxfile host="app.diagrams.net" modified="2021-04-10T17:12:10.834Z" agent="5.0 (X11)" etag="dpzTI-xjJv0EHw0RLBdN" version="14.5.10" type="github">
  <diagram id="vo8Xad004Y8PAERAsjPM" name="Page-1">
    <mxGraphModel dx="2249" dy="742" grid="1" gridSize="10" guides="1" tooltips="1" connect="1" arrows="1" fold="1" page="1" pageScale="1" pageWidth="827" pageHeight="1169" math="0" shadow="0">
      <root>
        <mxCell id="0" />
        <mxCell id="1" parent="0" />
        <mxCell id="4l4AhPd1liksvzsvpT19-1" value="" style="shape=image;verticalLabelPosition=bottom;labelBackgroundColor=#ffffff;verticalAlign=top;aspect=fixed;imageAspect=0;image=data:image/png,iVBORw0KGgoAAAANSUhEUgAAAeoAAAHPCAYAAACcDJm/AAAABHNCSVQICAgIfAhkiAAAIABJREFUeF7svQecXFd59/9oe+9du9rV7qquem+WLMtN7kYGAiQEO/Cm/QMBkvwTIMmHGP6EEF7yJyEE8hInAQMOYOOCi2RbsiRbvfeyq23a3nvX+/ye9SwrsdKMyu7MvfodMpF35s6de77n3PM7TznnTrqkRVhIgARIgARIgAQCkkBQQF4VL4oESIAESIAESMAIUKjZEUiABEiABEgggAlQqAO4cXhpJEACJEACJEChZh8gARIgARIggQAmQKEO4MbhpZEACZAACZAAhZp9gARIgARIgAQCmEBIAF9bQFzad7/7XXn33XclLi4+IK6HF0ECvhK4JPif+8skreIk/R8LCTiJQHt7myxdulQ+/elPe71sCrUXRBUVFdLW3iErV9/h5Uh+TAKBRaBvcEhuh10SJqlGhwXTORhYvY9X443Am1u2SFlZmbfD7HMKtRdMkZFRMn/+Qvm9T/2+lyP5MQkEFoGe/kEZHHK/TR2kSh0ZFhxY8Hk1JOCFQFNTk/T1dHk5avhjTkN9wsSDSIAESIAESMA/BCjU/uHOXyUBEiABEiABnwhQqH3CxINIgARIgARIwD8EKNT+4c5fJQESIAESIAGfCFCofcLEg0iABEiABEjAPwQo1P7hzl8lARIgARIgAZ8IUKh9wsSDSIAESIAESMA/BCjU/uHOXyUBEiABEiABnwhQqH3CxINIgARIgARIwD8EKNT+4c5fJQESIAESIAGfCFCofcLEg0iABEiABEjAPwQo1P7hzl8lARIgARIgAZ8IUKh9wsSDSIAESIAESMA/BCjU/uHOXyUBEiABEiABnwhQqH3CxINIgARIgARIwD8EKNT+4c5fJQESIAESIAGfCFCofcLEg0iABEiABEjAPwQo1P7hzl8lARIgARIgAZ8IUKh9wsSDSIAESIAESMA/BCjU/uHOXyUBEiABEiABnwhQqH3CxINIgARIgARIwD8EQvzzs/zVKwkMDAxKd2+/dHT12kfhYSESGREmkeGhVx7q+L/7+geks7tPerS+k7Q2ERGhEhURLmGhwY6v2+gKDA1dEtS1vbNHBgaHJDg4yNozOjJcgoJQc+eVwaEh6dQ+ira7dOmSVSBc6xQZHqb1myRtHT0yODgoWnXRA/B/MmnSJImLibD+7OSC+vai72r9+/oHrQ3RnlHaniHatm4qg9pfe/uG++6Q1js0JFjbb7jvuqWe6KJ9WsfO7l6rK27JCO3HUZFhVt9AKhTqAGmNippm2bbntPzijf06yF2ShbNz5d7VRbJu2YwAucJbdxmnS6rlpbcOy67DxTbAoY4PrJsnM/Mzb92PBMCZMOk6eqZCnn1pl5RXN0pacrysXz5THlo/X5LiowPgCq/vEjDxaG7tlOe1j+7WtsMApzIsy+fny10rZklyYox876dbpbquxYQcgz0mn1Eq0E99cK3cs3rO9f1ggB3do4P50dMV8tyre+XMhWpJiIuSdUuH2zMrLSHArvbmLqexpUP2HL1gfbeto1sKpqTJhpWz5WHtu5hwuqGgf544d1Ge33JADp0st4nIumUz5UEdi/JzUgOqin4T6rq6Ojlw4IA899xz8ju/8zuydOlSiYyMlKamJvnOd74jzc3NEh09PJiFhYXJnXfeKYsWLZK4uDjp6OiQN954Q06dOiWdnZ02g09ISJC77rpLZsyYIXv37pWDBw9Ke3v7COwhtQRw7vnz58uHP/xhSUlJ0RlxYHQ4DID79KY4VVwlH314hcREh8u+Y6Wy/0SpzCzIlBQdAIMD5Fpvtveirq9sPWpW1scfWyWhakVv3nlCcidXSXpKvCTq4OeGAuurtqFVnvnFTp10TZG7V80WDH5bdTJWNC3LPCawrB1X1AyZPjVDJx1x2k8jpF8tzB37z8r+46UqxEXy2N2Lpaunz0S6pr5Ftu87YxaKI+s6qnHgGWhp65Ifv7JH8rKSZdXCAunUeqLvzszPkFhlgZcbCvru2dJaeX37MTMWEnVSWVxRJ+8dOmd9OUPvU/RfJxe0Z4+23/ObD0hsTKT87uOrzUP0xs7jUjglVZITYiQ+NjJgqug32hcvXpRt27bZC+I6efJkycvLM+F97733JDEx0YR5YGBAKisrTXijoqJk7ty5snv3bjlx4oR0dXWZQEOEARmCDfGNiNCbJjZ2RIj7+vrk2LFjUlpaKklJSfY+hCJQSnNbp1TUNJolff/auRITFS71Te1SUd0sZy/USEJsvgSHBcak4maYwQ3c1NIpZVUNsnTuVNmodUXBJAWDemVNk2uEuktd+9VapxId4D7xgdWyqChXrbAa2at1PV9WJ2lJcY4TL9wycF8XTZusrsEQG8j6NWSzXyeVDc3t5hZePGeq3lvDveSYehO27j4l82dOkcxUZ1ucPb192kdb5UJlvdyn4rVWvUBo33f2npHSiw0yOSPRNUKN8MXF2mZr07VLZ0i21g0TzIvq9YMFivEpPCzmZoYCv3+3r79fahrbrO0evHO+jUXwEL178LyOQ83Wtre9UENUIdSwiFetWiXl5eVy/vx5E2oUiO+DDz4on/jEJ3TW0yMvvPCCHDp0SE6ePClTp06VV199VdLS0uSee+6R1atX23cg5hByCPz69evthQKhr62tlX/913+V3Nxc+z1Y04FUqmpbZFAtzfSUuBGX6NTsVIv3wcqGG9zpM1jw7ukdsJl5tFpYqUmxGreM1NhQv8yZnm2DYFlVo8zV/3ZDaWnvsslWRmq8ekRiTZTh7p43M8fc4LBKczKTHFVVTG6jdZDGCwX3Md6DxYwCK1rf1dcki803NHfI+fI6+d0P3CGpaoE7uSDPoLq+WdsyWlKSYkys4qIjZXFRntQ1tqv3pE0KctKcXMWRa69Xge7o6nm/78Zo3DZUJ1rxkpedIsfPVtpEDRankwsm0uU63sTpZDM1OdYmWejPC2blWHgHYh1IoTi/mGmwcGtqaqSlpUU+85nPmIu6uLh4zHYHvO7ubgnRGTwsZVjNcIvjv2Nift1ZsrKyTKSvLPgNiPw777wjixcvlrvvvvvKQ/z+d6vGgII1kyFehctT4FYMCw2RZnW3gYEbyoC2XaNa1BjoEbdEwUCfGB+lE5Uh6egcTqRzQ10Rm4VrFCIN9z4K2hNijXoihuv0AmFuaGqzAQ99NCczecRTBfFCrDohNsoGfKe7vpFshIlzYly0TpqHEzxDQoJMtNHW3drWbilIlusfGLK+6kl6hCclJipCmlq7NNwx6PiqIhkQoQwYC56EXXhak3QCgs+G8y8Cp5p+cX2fO3dO2traLF5cUFBgFjTizrCKAauxsVF++MMfmosb7u2ysjJ55JFHTGgRt4Yl/dprr9nnRUVFMm3aNItxZ2dnW5zbU3p7e+Xw4cN2rk2bNpkrHVb3tcrp06ftvIifoxw/flwWLVl2ra/c9GcjQjzKHW/eQ/1/0GiX6LRxMisM/xsVecDf9plZYy4pqIrWFZmko6pqQuaGWloMWmPw//7cNkEi1bL5BZaM4ynlGt6oqmvWRLMCsz5Ht7cTWxh903wFl1UE/VjbU9vZbfco7sYrqmp/D49VbujBaLPL64j71OoYgB3UL0INFzaEGeKK5LDp06ebdY24M2LQoaGhkp6ebiIMaxrWM46vqqqS/Px8c3dDwGGFt7a2yv79+wUCu27dOlmzZo0uFxl2zSEujc/wfSSj5eTkeE0gw0QA8XL8LkpVdbVmOY5vqj5mq4hPj56VW9aszmrhVnToSp7f6O7wGmDQhrsb8UwUDHCYvQbpHRLxvqXyG1904BuwomFBe5ZmoQoQN9Q1QhNxAm35x/UgxgCH2N67mkQGF+LKRdNkVkHWSMIjPkceQrWGMx7dsGjEVX49vxFox4bqGADLC+0HzxAKcmM61CWOdsbLLQXL7ZC8Cssa4xIKrGiMSfCGuSHrG2M6xlaMucizsPbUuqLOWIkSHmDtOaG9CzcwXNcQaiR2QRD37dunnUAD++oKRzwZQg3x3rBhg8Wo8RnE9tlnn5V3333XYs+IUyNTvKKiwuLcOB/i1nCPz5o1SzIzMy3De+fOnXbMAw88YFa3J4v8WjcUxBwvWO0oDQ2N5goZz4KsbkzjmjQ2AhEL0TV8iG929fTKtLwMV9wY4BeqnR9JRVi21NbebXFMiBeSyCBcxsElBRMSJKPUasIKbn6sk8cgDzcxYtNOzhCGJX1QVyQcPFkqdyyZIQs0WQw5B57Sri7i2vo268tFmnOAtalOL5E6qMMVjGRIiDMGd7i8L1TUS6Z6FAIp8ehmWSeoOxg5MfWaYwAhg8sbbmKMSVM0vIGYtdMLJstYuYBxCMvPsHoB41HZxUYzJhITAmv55IQLNeLRSBzD8qodO3ZYe3uytufNm2f/PbpAfBcuXCjPPPOMucZRIPhwccMSx+vRRx+1ODeEvqSkRFJTU02kYaFDtOH2xnkCteRkJJk419S1WlwvWeOapzVDuFVvDgyCEDg3FFgk0/PSdQLSr/Vs1fhmu8Vv9x8vk7VLpttaTbcUxDLTdd00kozQphDnGv3vvccuyJ3LZ9kg4cQCq+PtXSfl0IkymarJU/feMdfyDbDsDm5DuIKRQNatIp2ZlqhJR4E14N0oc+SP4D5FjkWVtmeTLrXD691D5+XTv3OPTE7/zfyYG/0tf38PSa3xmluABE8kusLThQRItOsH7lmscd1rhw/9ff2+/D48A/lI2EWSIMYibUt4DPYcLZEn7luiS/ACK+F4QhUAGdy7du0yt/bnPvc52bhxozGF8L7++usWD8b6aljRngIL/MyZMybgWFqFuDPc3BBgz1IrnBeZ3XgPMWhY0T/96U9l9uzZJuLj7br2pWNc6xgkbKxW9yESVv7qW7+Q4ElBtnnEqoWFuuwjwRLN3FAwiMNttunexboM4pz82T/8j01QstLiLZMUiVduKWhTDN5/+NG75JV3jsiPf7XbdrBas3iaTMtNc6RFjd3VStWC3HO4RA6oRY0s/XM6oURdZ2v7YbMIZMoeO1thfXa2usPdUtB3kWj05KY1svtIie4FcMQ8BSsWFMgMzeBPCKA1tzfLfJKOPwhlbNSNP/75R29aYhkmKtjYBpnfbtgtEe0J1/dHHlohu3Sy9fm/f87CF+i/qHtSgE0wJ1SoIbJwXyM7e+XKlbJgwYKRPgWBxguCjeQxWNxIKoNA19fXS0ZGhixbtsyEGsL99ttv6/ZvfRZzhrAjLg1hRnwb34U7HMeibNmyZeR3EONGbBxZ4oGy4Qk6zTS1NJFFijWLCAthOQQsTDfFbdEIqOuSuXkmVBXq8kZsOndyslnabttCFDtXYaOTNF3+0aouNmQ+Y6BLUzexE7ecRFvFa5023jlP10vnXRZ7Rn/Fxhho3/m6BK1/YLJ6FJzpNbia0GFgX7t0unkJsPQM9yb6Lu5ZTDjdUrQJLUHwnlVF1oYwIOD2n5qTYm2OfuCGgr0AVupEC5Ms5FOEaNw6T9tzqt6jgZZDMqFCbenvahUjXoxs79EFf69YscJEGK5uCC7WWsPahtt6+fLlJtQ4BzYzQXJZQ0PDSNYlPluyZIm5xCHumAhg0MBSLrw8BfFvCHygFezIlajrpRfpy+0FOxvh5faCOF+u7mKFlxsKLGfEojeunXfN6iyY5c4+jMEb7m+83F4Qp8WOa3i5taA/Y0LihO1fJ1So4+Pj5fOf//yY7V5YWCh4+VLgMve4zcc6/o//+I/HepvvkQAJkAAJkIDjCPhlwxPHUeIFkwAJkAAJkICfCFCo/QSeP0sCJEACJEACvhCgUPtCiceQAAmQAAmQgJ8IUKj9BJ4/SwIkQAIkQAK+EKBQ+0KJx5AACZAACZCAnwhQqP0Enj9LAiRAAiRAAr4QoFD7QonHkAAJkAAJkICfCFCo/QSeP0sCJEACJEACvhCgUPtCiceQAAmQAAmQgJ8IUKj9BJ4/SwIkQAIkQAK+EKBQ+0KJx5AACZAACZCAnwhQqP0Enj9LAiRAAiRAAr4QoFD7QonHkAAJkAAJkICfCFCo/QSeP0sCJEACJEACvhCgUPtCiceQAAmQAAmQgJ8IUKj9BJ4/SwIkQAIkQAK+EKBQ+0KJx5AACZAACZCAnwhQqP0Enj9LAiRAAiRAAr4QoFD7QonHkAAJkAAJkICfCFCo/QSeP0sCJEACJEACvhAI8eUgHnN7EOgfHJJLl9xd16BJkyRokrvrOLp2qK/by+3Unm5vS9ZvbAIU6rG53HbvDqlCN7T1Sv+gu5U6MixYIsJuD0dSZGiwBN0GKub+qchtNxyxwlcQoFCzS4wQGFKNhmC7uaB+Lq/iZc1HEXNzb2bdbhcCt4dpcbu0JutJAiRAAiTgOgIUatc1KStEAiRAAiTgJgIUaje1JutCAiRAAiTgOgIUatc1KStEAiRAAiTgJgIUaje1JutCAiRAAiTgOgIUatc1KStEAiRAAiTgJgIUaje1JutCAiRAAiTgOgIUatc1KStEAiRAAiTgJgIUaje1JutCAiRAAiTgOgIUatc1KStEAiRAAiTgJgIUaje1JutCAiRAAiTgOgIUatc1KStEAiRAAiTgJgIUaje1JutCAiRAAiTgOgIUatc1KStEAiRAAiTgJgIUaje1JutCAiRAAiTgOgIUatc1KStEAiRAAiTgJgIUaje1JutCAiRAAiTgOgIUatc1KStEAiRAAiTgJgIUaje1JutCAiRAAiTgOgIUatc1KStEAiRAAiTgJgIUaje1JutCAiRAAiTgOgIhrquRQytU39Qup4qrZd+xC3Lp0iXJnZwsc6dny8z8TIfW6NeXfb60Rs5dqJbq+haZpG/Hx0XLnBk5kpIUK8WltXKmpEoaWzpkanaq3Lt2voSHhcikSTjSOWVo6JI0tXbIq9uOSndPr+DviPBQyctOkYVFeVJV2yxHTpVLXWObhIVq/YImSU5GkiybXyBJCdESHOTsOTP6bE19q/xiy0GJ1HovnZsn87SN3VT6+gelorpR9hwpkSrty1ERYTKrIEsWzJoiiXFRrqnqgROlcvhUhdQ2tGofDpOH75ov03LTXVM/T0UGh4a0PZtk/7FSKa1qsPtylo6387U903RsCqTiN6EeHByUtrY2OX/+vLS2tgr+Dg0NlbCwMJk2bZpUVlbKxYsXJTIyUge9IYmNjZWsrCzJzc01fqWlpVJdXS0dHR32d5AOdDk5OXZMb2+vnDlzRrq6ui5j3d3dLfHx8ZKfny+TJ0+27wRCwSAHkd6+74zUNbVJaEiI1OhN0tPbb4N5VGSY44QLXFGvvv4BOXCsRC5U1pkYgXlxeZ0EqRBPm5ohtY2tKmJ6sxwtkTqt87oVs4eFzFk6bd1oYGBQGnTC1d3bZ312YHBIzuokJSUxVs7phGTXofPWpllpCVbH+JhI+45cCoReeHPX0NLWJcfPXZTNO49LuNYtKT7adULd2dUjW949KaUXG6S3r1+Cg7UvV9RLsk60olW0w3SC6YZS39Qh5/UeLa2sl8qaZlk4e4orhRoTr3f2npGzF2qks7tPQkKCpLyqUWKjIyQuJkIiwkIDpjn91rMg0kePHpUf/ehHUlJSYkIdHR0tcXFx8tRTT8nzzz8vv/rVr2T69OnS398vaWlpcu+998rHPvYxg/fGG2/Itm3bpLa21kQsODhYHnvsMbnvvvukoaFBvv/975vQe0pfX59cuHBBioqK5A//8A8lPT3dJgWBUPq1wxw4XipVdS3yxT94yCys7/z4bTlxvkqWzJkqhblpKt7BgXCp13UNg2pVtrV3y9HTZWpZpsnHN60za/lf//sNqa5rlgS1QmCRLFKLU9TWhrA5tQSphZyWHCd/+LG7RiYaJ7X9vvS/fy7ny2qlpb1LMlLjZfHcqbJq4TQbDNxS4D3AwL5f+/DUySnS3NbplqqN1GNQ+ya8Ps9vOSCf+uBa2bByllrVrfJnX/8fnYzVSnpyvKSnxLmi3jPzM8yiRJ/9h//zmivqdGUlMJHu6OyRV7YdkfvXzJFHNyyUbp18/dnfPydndHKdk5kkk9MTr/ya3/72i1DD0tq9e7c8++yzsmDBAvnUpz4lmZmZ0tPTY5a0x7K+++675ctf/rKJ+H/+53/KiRMnZPv27SbcxcXFcscdd8jDDz9sQt3c3GxCn5ycLNnZ2fL1r39drZUBAwsL+8iRI/Z7sKbXrFljvxEopVzdaQNax8y04ZsdM/WZUzPl1FCVHDpVJrlZyY4Uag9fDOQQ4X5tj5DgSWplD0qMClWKCtuUrBRzA8NN3NHVGyhNckPXAW8B6oH+iPb0vHAyBzoIfGbQ1tFtXpJqnWjeu6ZItrx30ufvOuXAVq1jubpJUxJj9D5N0PBNlHpO+mXtkmlW70r1CrlFqCFQ8PZgAuK0EJSv/QljTXFFncTHRlp7JqoHKLizW1YsKBB4h+A1ue2FuqqqyqxbCOk999wjhYWFJrL4G0Lb2NgoUVFR5jqFO9tituryhusa30PBeykpKfY5OlNqaqq9D8saIpyRkWF/45z4vbfffltmzZold955pyQkJARUB2xq7bTrQZwr5H3LOTE+SsJ10K9rbBfEUpxYglWAY/WGnztzisaoa+Qfv/eyejFCpV1viMK8dJ216gRE3aQobhkQtFvKi28ekKNnKgQCVpibod6EVLmgg8LR0xXyq7cPayjggmSnJ8mswiyLX4foxMzJZefBc2p9dcuqRYU68Gkf1nvQbQUhCwzgcOkjFIUwDlzdGMzhCevodPYkc3R7wXuH0AzCU26dYPb2DUhjc4e6uCMlOircwhjotxDtMhXpVu3PgVT8YlHDJY24NOLJiEdDlFFCNDablJRkFvBoi9fifSq4+DciIsLizKdOnZLDhw/bdyHYsKIh8vh8dKmpqTEXeV1dnaxbt04WLVpkYn61guPKysrMskc5d+6cZE3Ovtrht+R9dBq9J0zEPAU3CjpPV3ePTkpuyc/45SQQa8R6MKjBfYhBAAPAwMCQxa/dWIZvetz4KsDadhjUM9MSpWjaZB0AumxSUqbJK4hlR0eGy7S8DO3vV++TgcoI8fU6jckj/o4wxhJ16yOhzI0F3pFe7a/wmHgS/4ImBWkOTZh6igbtxeIcAtASTL4QivNMlDEuRUaEqmF0KeDa0y9CDTc13Nlwd18toQvCjDg2XNyILyN5DN+BVQwreu/evbJ//34TbLiz582bJ4sXLzbh94g1ksmOHTsmL7/8srnJIdKYCFyrQNjfffdde6FAtFPSxjfjEQM7tBhC5inoLPAaoBNBxJ1Y4AlAvBIJGvk5afLAhkWWEfwfz21VK6TZMsFTk9wR1/O0D2LVD9+1UO67Y56c1mz2f3rmDav/7GlZKtTLLTaNMMBr7xyxLHAkEOYgtOFAoe7RmB7qAEsTlkmXJuRUq1DDkwAvEV6wQN1QMIhDoCHYuC+Hi4Z0dMKJNseLxTkEhvOagmzMHXq/PdGqaE+Mt4HWnn4Ral+aEyK9ZcuWEVc3BBiJYhBjWMR/+Zd/aZ9BiI8fPy7f+c53TIyffPJJmTt3rv0EktUQC0ejIJYNgfdWZs+ebWKPhDaUb3zjGyqi42vtIB6EGR4GOE9BokOfWtqwVDBIOLHAU3CmuMo6faImyMWo9Yi2mFEwWc6qiCG259YSpsKbnBAjc9SKvqhLs7I1OQXLz1B/eBWQRNfU0mlibpnfDizWvmpN7z9RJq/tOC7/8YsdZqXAbYg6Y6L2vz60zoE1+81LDlevUJxOsppbuzTje9gTBCu6obldJ59haokFRmLqb1453xmLAEJuCDVizEWfRcEY3KQJg/BmwtMVSMUvQg0XNcS2oqLC4IxVYmJiZMWKFfLpT3/aPoa7G3Fnj0scfyMjHNnbS5YsseVb7e3tJtpz5syR+vp6i0sjKxzJajgOrnVvBcfghWVhKGFh4Zb8NJ4lOyPRZusVuhQCy3tidWnAOc0UblZLZfWiaY60tsALEwwkjTXr+mLcALAk4SFAxjcSyxC/dkvBoI0b3hLKsExH51aYbGF51ooFhTZZgcWJeBgsMsQ1kUWcqku34FFxYoF34OH182X5/HxbrtTd0y8lulxp54Fzto76nlWznVitMa8Zy3UQj4YwY30xBniEMXYdKpaHlAGW3LE4h0C0hizydIUCJpW16gVCW2KJ1j5dU43+PEXzZwKpeFeucbhaxJPhgj506JBZxHBnY1kWsrlbWlosfo2Ctc6IK48ucH83NTWZYENMEeeGCx1CDFc3MscR437ttddMrGfOnGmCf2XsehyqdcOnjI2O1KSjdB24O+XHr+zW2Xm4uUsxMGBpllOTc2A5ZmnSVKpmd1dqxuyLm/dZslyZrs+cojcJljMd16SrkvJaOV180YTulbcOWpLZbN3sBeuPnVLg/cCmJofUFTxJfTDwprV2dJmrPz8nVZo0ceXE2UqboEKowQMCvXhOns3gnVhw3QVT0uyF0q4TE7jAIdbwHuDlloK6or8unJ0nx89fNI8BJvCRkdq+Wk9kg7ulYD38ce2r2NsB+zm8vuOYTsL6bPOlqbqBjxsSP7FXRbKOL/Nn5miGd6M8+/Juaz5NO7BVNoGWwe+XEQKiikzvgwcPytatW02YkbWNWDTEFVnZEO2xCt6HJQ7rGWKNZDJY5eXl5SbcsLqxEcrPfvYz+2+sv8Y6bU/BMYmJiZZ4drX4+Fi/O57vwdpaNDvXXGq4KbCcqUgzgpfoIA73qVMLRDk9JV4zm6fKoRMXLNsZdc3Q92boTZ+RmiAHj1+QfUeLLVaECcnhk6VmiSJu6yShhvh26WB27Ey5Wc74GxbnSl0zPatwssVyj52ptM+QYZasAzvWjy+bl++ajTLgFUKdYam4JTbtufcgTljKs+nexbb2dq/2ZUxKNqyYZROxQHOV3syYgWVoBzWcUabGAjwFF3TihXaFqxht69BI3GVIUAckBj5453x5QzfpwY6Q2IVthe4UOH1qesDtczAJ+FboAAAgAElEQVRJBxS/5BR3dnZaIti3v/1tc1fDGoa7G9Yx3N3I1IYY4/PRBcft2bNHnnnmGbPGPWulZ8yYYZuhIGEM4v+Vr3zFhB+CPLrguAcffFA+9KEP6fIn73GIp5/W8+jM+Yt/87c30/d9/u5wa6BJdGnEBIamkVBR3dwj/aMS2ny+aB8OtE7m6Wlar9FV+3WdcdDwh+NV9ciwYMFrvMqVd9PoNrzWZ+NxPVFaT2TdT3QZ7r0T+6sTaeWNbseJvEcnkujl9yR+eWLHowmtK37s/bFpItvzG1//mvT1dMnTTz/ttbp+sahxVXBFwy39xS9+0UQaLm24BbFbGFzeSOjCe1cWfG/hwoXm8obYe+YZsKxhPUPsN27caHFqWNpXxqVxHNzugbThyeg6DneUiR9cr+R8q/+2Gl2lWm6q87Vu9Gt9dqt5+/N8V2lmf17SLf3t26Ed3XRPemv8a41N3r47UZ/7TaghyhBVWLhjFbi/xypwV+Ozq32O78C1jhcLCZAACZAACTidgDPTTZ1OnddPAiRAAiRAAj4SoFD7CIqHkQAJkAAJkIA/CFCo/UGdv0kCJEACJEACPhKgUPsIioeRAAmQAAmQgD8IUKj9QZ2/SQIkQAIkQAI+EqBQ+wiKh5EACZAACZCAPwhQqP1Bnb9JAiRAAiRAAj4SoFD7CIqHkQAJkAAJkIA/CFCo/UGdv0kCJEACJEACPhKgUPsIioeRAAmQAAmQgD8IUKj9QZ2/SQIkQAIkQAI+EqBQ+wiKh5EACZAACZCAPwhQqP1Bnb9JAiRAAiRAAj4SoFD7CIqHkQAJkAAJkIA/CFCo/UGdv0kCJEACJEACPhKgUPsIioeRAAmQAAmQgD8IUKj9QZ2/SQIkQAIkQAI+EqBQ+wiKh5EACZAACZCAPwhQqP1Bnb9JAiRAAiRAAj4SoFD7CIqHkQAJkAAJkIA/CIT440f5mwFI4JLIwNAl6R/U/3BxeXvbEdlz8KyLa/jrqv3J72yQwinprq/rpEki4aHBrq8nK3j7EqBQ375tf1nNIc9DKtSD+nJzOXK6Qv7n1T1uruJI3Z64f6nkTk51fV2Dg1SpWUjAxQTo+nZx47JqJEACJEACzidAoXZ+G7IGJEACJEACLiZAoXZx47JqJEACJEACzidAoXZ+G7IGJEACJEACLiZAoXZx47JqJEACJEACzidAoXZ+G7IGJEACJEACLiZAoXZx47JqJEACJEACzidAoXZ+G7IGJEACJEACLiZAoXZx47JqJEACJEACzidAoXZ+G7IGJEACJEACLiZAoXZx47JqJEACJEACzidAoXZ+G7IGJEACJEACLiZAoXZx47JqJEACJEACzidAoXZ+G7IGJEACJEACLiZAoXZx47JqJEACJEACzidAoXZ+G7IGJEACJEACLiZAoXZx47JqJEACJEACzidAoXZ+G7IGJEACJEACLiZAoXZx47JqJEACJEACzidAoXZ+G7IGJEACJEACLiZAoXZx47JqJEACJEACzidAoXZ+G7IGJEACJEACLiYQ4uK6Oa5qly5dkkvvX/Uk/Dtpkti/Diqow+gySeswulzr8ys/w/eu/H6goECtrrw21NxTB3w23IbD712B5bJqBOmxo78bKHW82nVcq52u9dnVzue09z33qadnX9kPnFafq13vcJ8dHpOG66p92mkD0tUqN+r9K8fdQGxPCrUPDTkRh1TWNMmuw8Xy2jvHZEjvkDnTJssdS6bL8vn5E/Hzt+Q3unv65FdvH5BT5yqls6tHcjJT5Knf2iCREWHS3z8g5VUN8tLmfdLa3iWhoSEys2CybFy/UCLCw+RiTaMcPlkqB4+V2GAQNClIpudnysrFMyQ7M/k3RPGWXPBNnGTJ3KnyJ7+9QXr6BmRoaEhfl6SqrkW+9Z+bJXdysqzVtlu5sFDSk2Pl///vN2XPkRJpau287BcjwkJlanaK/L//6wE5fu6ivPXeSTl0qvwmrmp8v4rJxED/oPzijX2y79gFGRwckkGt+wxtp9WLpklmWoI8//p+qdC+jL4QHhYiGanx8sT9y+yzkGBnO/B6evvldEm1vLL1iBRX1ElcTKTenwWyYeUsbee48YU/wWdvaO6QI6fL5YUtB/Ve7pUp2qfRxqhrcJCz29GDckD77+nianl9xzE5cf6ijkOhskLbc/2KWTIlM2mCiV/75/wi1D/5yU/k7NmzEhf36849b948mTt3rrS1tcmLL74oOTk5snLlSvsXZefOnfbZnDlzZPLkyVJdXS3Hjh2T06dP2+cYLKdMmWLnKCwslJdfflkuXryoAtE/QqCnp0eCg4MlOztbnnjiCQkLC7s2nQn6FDO6gyfKVajKZeHsKRKlwlZcUS/7j5dKYW6aJMZFS1BQ4E9lIbAxUREmrKU6kJVdrDcBQ6mua5YTZyulf2BQZhVmS4cKeWNzuxw8XiILi/JNzLMzklWgMWufJB2d3Sbo2/eclA8/vFpCQoInqDV8+5l4HaSn5abLz9/YL3VNbVav1vZu+xcCVtvYJhXVjTbhio2O0InJb17/5IxEuXfNHElJjNVXjMTqOQO5mBdB+2Fedqq1EfokBrtTOsgdO1NhbV+Yl26iPDAIHl3Wjw+fKtPBfZJkpScGcvWueW2wLts6uuUXmw/Y/bl8Xr706aTlrV0nbbIVExUu0ZHh1zyHUz7EeFSi9+/rO45LQU6aREeHS5325537z1p/Rl8N04m200uvTrxe2XbE+upSnXijT8NYwn2ZFBclMXrfBkrxC+3XX3/dRHbt2rUjHCCeXV1dUl5eLs8++6zk5eVJeHj4iFAfPHhQqqqqJDk5WdLT02X37t2yf/9+E+/Q0FAZGBgwt2NmZqbk5+dLXV2dVFRUSG9vr/3GoDbGgQMH7JgNGzbY34FS2jt65FxZrXSpFfJbDy7XmXqE/McvdpqFVlxeJwtmTZGwIL801XUhCg0JkaLpOTJ9aqZE6aB14GjxyPcrqhrl/IVqmT8rV5YtnC71ja1ySEX6vf1n1CKbLInx0RKvE5IFRXl2w1TVNsmWHUdVAMrlgw+tuq7rmKiDe/r6ZfO7J+RsaY30qmXtKfVN7WZB4995M3JsQL+yQLwxwM/Iz5ALlfUm8k4oENzF2kaL5+SZhYyJyT9o371Y22wD3hr1JMBTABE/Vzr8fomKNcTdyULdpxN+iNXBE2Xy+x++U+5cPkOq61tl15FiFbV6ydLJiVuEuqu7T8r0fkW9PvnEWvWMJclbu0+acMOjsGh2ruOFuk89fA0t8BpUyIPr5slD6+fb+AuPVtnFRsmbnCKFt7tQh+iAvm7dOvnWt7512djU0tJifyclJcn58+fl3XfflQceeECtqV+LFIQWovzqq6/acV/+8pclJSXF3mtu1sFC/4Wl/Pu///sj54a1jc++8pWvmHA/+uijJu6BUuAqHBwaNDdhalKsXRastR7tOEfPVEpR4WRH3BjBOnDnZKVIi7p4r5xxN6jVCXFeMv9OszDhFoUYv77tsMClCIsZ1jcGftxEsMbgLoc7KlALJhTRkWFan0i9/j693kG7Zo+LG1b3WEW/Zp6SbJ25YwIDp0Ovir4TCuoM7wDqCgsTbYc2C9P2RJtHahgDdQGHNvWK9PQOSKi2rdPd3m06ma6oaTZrMj0lztzeGNhXLSiQmvoWm1TnZiU7oQm9XiO8QWjbzLR4SdO6Rmkfz1ZvSOGUNDl4ssz+TVCL08mlUycjmCDHx0ZIemqc1QeTy6U6AW3Rsadc70vUM1BKwJlpGAhgXePf7u5uOXz4sLm7PQVCjff7+vpMbKOjo+1YiDmEG59fWdrb2+WZZ54xK3r58uV2PrjAA6W06k0RpHGf0TNyuF1CdfBrbuuymLXTS68O3BjAE95340cEhergHirtOpgPXRqy6jW1dsgxdZO+ufOo1OrgV5CXIQ9tWByQgzxaBO7Ozz15n4nVhcoG2a6uwR36wkTjagXu43AVNLjaEmKj5JdvHZK7VxWZa9gpBROq3YfPq9dnu1mZU9VaXqquYFhemIS8sOWAvHfwnNQ2tJqgfXDjUseLGPpue2ePeX4wyUTBBCRZwxZwEyMm75aCmDRCGklaV0/IDaEpjEkQN0zMnF4wkWzRsRX9M/J9YwBjcFJCjFnand3DnthAqadfhBpW7549e+Tv/u7vjANi1YhHz5gxw/6GRYxYc2pqqvzyl7+02LOnQJQjIiKkoKBAzpw5Y+eAqxt/4/uIX48usKQh9nv37pX169fL6tWrJTJybEsH3yspKZEjR47IiRMn7DRwsc+eM/eyc97qPxDTxDANi9RTMHCjrvjMBTptEyhMODx1RN0Qj4a3w5PqjolKvnoS7gteYPHdNp3ZlqhbdUHRVAm09JXi8lr55x++qbPvbptIIIHsnlWzTZwg2le70eE5gHsY34HLHEKHNg4OCpyJo7f+jbaDK3vTfUttInm6uEqa1YvSoUKGgW7+zCmSrP+WXWyQk/oZ6jhZLTKEQ5xa0HeROId2Q/2HCwyEIPMEeXIxnFq/0deNeuJ+tbp6aqrjEcakwYHhz5xeT9TP7rtR7Ym6oj0x3gZae/pFqNHIGKAh2CiwdG3AHlUgugkJCfLDH/7QYtOwolFwk0DI4TrHDOjChQvS2dlprnLEt5cuXTpigcPqPnfunCAmjtj1okWLZOrUqZf9zpV/mKDotXhi2MPW3vhatJiho3OMdn/CKkNHgut3ZFy48mId9DcyRUPUiwHrEy5SY6yvMPWKeOqHWXvu5FR7wVW+dddxOXkWeQb9EhQZZMIeKOVibYu88OZBTYrrtfqsXz5TpqsHADFnZMxeVah1YEAmf5y6y2GRRayeYwk6GDC6e/pN3CqqmwLai4JmgPUM1z2y3v/r+R1mnSC2B4tzdmGWzCrINPch+jDimhmpCeoyjg+U5rvu60DfhSekp7fP+i0KxoZudaGiHfFyS0F/xtjarfedx0M5oAKNXIuICOQfBNq0+frJow4YW5FbAu/BcHuqt1bvQUxIAq09/SLUcFPDgvZY1B7Mnhg1/oY1Des4JiZGjh8/LvX19ZfFqu+66y5ZuHChWcBITHvnnXcskxyZ3h5XeW1trSWQwZr+6le/KrNnz/bq8oZljtemTZvssp5++itjJgN5rvlW/AsXE2bsGOwG1K2EQbu5tcsEChmIblgOARHGq66hRWNCCeYq7FKRgwWGMASEG9MhT10TzMUYakwwYITrTRUUIOEKCBVu7o7OXms33Ox1je1SqTHM1KS4a8fVMdHUQR2JZEUqaGhrxDwxAcUAAdciErOGBsd3cnij/dZjaYCBebd0kom8iotad+RaFE2fbIMcPoOrtEDjfFs04Q4Wt5MLBnXEMZF/gGQriHWftnultlWc1jNGM6PdUpDMGqZ5CI064YQ4o83hLUEbZupky+P6d3J9UYdkzTdoU48YXP2YUCIZslpzDdDW8bFX97r6o95+EWpfKwqXNxK/tmzZIo2NjTJr1qzLvhofH28ucrwPt/a//Mu/yNGjR+0YzATfeOMNOXTokHzwgx+UmTNnmugHYoF1EgLvgFppSOSAcJ/WDOlGvTEeWr9gzKU9gViPa11Tmt7g6Zost+vAWdmwZq4lkuE1R92kuDGQvII2Qwwbg3yjZkxj+Rbeg0s8kCYrsK48M+7hRLggtRjj1KJOl2ObKzTJ6OrxLRz/zWc26/eHXahIRHviviXWxoc0UWf7vrMjM/xr8fTHZ2iLdl1WhxkVBjq84PlBdjC8QRjcajQTGhMPTLJadZKFOkHEEM93ckFiYE5Gkmbyd2i2d4vVDW5/5CR88oNrNdkqsNbd3gxrrAmP134JrxES5XB/lmso6oyGav6fj26wuK7TS7T2x3wN3yBxDOLc3NZp1jSWZyELHFnfgVQCWqiRHAZXNtZVV1ZWSlpamg3cyNyGOxyx6oyMDHOFY400CuLPcFvv2LHDYtj4zoMPPmhx8F/HlgKpCTQmr66mxXPzpFMH+L///q90ENdmUYtlgYqYibhaXU4osJLf0kSwszrJOFtSpfFa3QDk/7wsi+cVSIYKNZZubX3vhK2vRkIKrOk7VxRJtK6/LS6rkRO6FAvrreGWQrIHLPD71i00PoHUdnD/zddlV7ihMRMP0vbBROLE+SpdM1xh66KxPnqDbpyA7O6PP7ZKNz8pkD2HS+R5TbTCpMRTwAFu8rCBYP23T13JgZv9De8BLJB39p62ZYOwqmFZwuLCEkJYnP/5ix3DVYPXQeuG193q3kdM28kFng9YYB+4d7Htb/DugXPmCYKbHys0nJ4FPbptkEcxbWqG3LF0uvxA2xN77GH9PEI0BVNS7b50esH9itUnD925QHNFquXpf33ZQnMI50zXuiPHIpBKQAs11lFDiOHKLi4utiVWEGrEtuHShmsbVjJuGGyAAsFetWqVbXKCDU+QFAb3OTZL8RQci7XYd955Z8As0YIIzS7IssSNfToIXNKBD8lJc6ZlO8oSQYYoLETEInEzw5WE2Tg2whi2qBOkqQWuw15bjoWNUfJzM8wywzHIoIUbGeeBWGfrJGVmQfZI5mmg3DhIqEEGMCwrlEm6ixpcomcu1NgyHSyzw7porCOGO7ivb3jzjzb9zpUF9T2qm4Vg4IDLO5ALBmy0K5YoYcMavRXtfszRdoRgxarlnKNLlFCnS8g/gFtc23SuTmrgJXJ6gVfgntVFtkYebR8VES4zNSdhitbZDe5gT/tgPIKBcK/Wddeh8xZ6StOQDto4XlcqOGHzJV/6GvrnumUzbIwt010TbbdEFemCnNRrh698OfktPsYvQp2Xl2fLqq4sENHY2FjJzc2VxMThXYwg1vfff78JMT73CDNc4RBrz4YnOO6OO+6Qu+++2wYPfI7BvqOjQ371q1+N/BTEHDHoNWvWBIxQ4+IQ50tNmiFrlw5nvl/Jxgl/w925bmXRNS910wMrxvw8Vy0uvJxQsH4WGyXgNVZBMhheL799eKyPL3sPrvCdap05oWCAhkjfv3beVS/3yU13XPUzp38Azw7W1gbS+trxYgpXPzY2wcutBZNj5IrgFejFL0L9V3/1V2NygUgjM3vBggUjmYVYK4335s+fb9+BWEOAn3rqKXnyySdNlFEwC8T7eOG/v//974/5G3gTx4zeROWqB/IDEiABEiABEvAzAb8I9bVE0iO2o7mM9d61zoHvBso+3n5uX/48CZAACZCAwwk4I0vJ4ZB5+SRAAiRAAiRwowQo1DdKjt8jARIgARIggQkgQKGeAMj8CRIgARIgARK4UQIU6hslx++RAAmQAAmQwAQQoFBPAGT+BAmQAAmQAAncKAGvWd/YYxsPt0hPT7elUWVlZbafNnb/wnpkbB6CHcJYSIAESIAESIAEbj0Br0KNvbMbGhpsG04I9ZtvvimbN2+23cEef/xxwcMxrny05K2/TJ6RBEiABEiABG5PAl5d36dOnbLnOWPjETzFqqKiwp77/LGPfUx+/vOf22MmWUiABEiABEiABMaHgFeLGg/AwAMv4OrG3tnYPQxCjec6t7e3m1uchQRIgARIgARIYHwIeLWosSd3V1eXvPbaa/Zwi4SEBCkqKrKnVAXSE43GBw/PSgIkQAIkQAL+JeBVqPGADIj1888/L3V1dZZUhidawcLOzMw0wWYhARIgARIgARIYHwJeXd9IFps3b56Ul5ebSOP5zth7G893/sxnPmOZ3ywkQAIkQAIkQALjQ8CrRY2HW8DFjWc/79q1S2pqavRB8UMWm8aDMej+Hp+G4VlJgARIgARIAAS8CvXZs2ctNn3ixAnZsmWLZX1DnLu7u+Xtt982dzgLCZAACZAACZDA+BDwKtQHDhyQ7du3269DtJubm82ShlWNBLOqqqrxuTKelQRIgARIgARIwLtFDZd3eHi4/NEf/ZHFqBGfxprqqKgoSyiDYLOQAAmQAAmQAAmMDwGvFjWEGa/Rgoz4NNZQozBGPT4Nw7OSAAmQAAmQAAh4zfrOy8szd/dzzz1niWTYpayjo0POnz8vixYtkpSUFJIkARIgARIgARIYJwJehXrOnDm2M9mePXskPj7esr9hTeO9xx57jPt8j1PD8LQkQAIkQAIkAAJehTo/P19SU1MFgu2xpvE3difDZ4hXs7iDAMIYQfpyc4kID5W4mNtjk55ghKwuubk1h+sWdBvU0f2tyBpei4BXoW5tbTXrecqUKbYTGR7CgUddYt/vpKQkSUxMtCxwFmcTgEAnx4TqwO7uUe+TT6yRxzYsdHZj+Xj1SUlx0tTp/r34w0OCJSpC93TwkQsPIwGnEfCqsFhDjcdcfuQjH7FNTvbt2yd4ohaeQ43dyh599FGZNm2a0+rN672SgI5yocGwwNwt1GkqXkkJsVfW3pV/t3X3y8Cgu9sTDRdCk9qV/ZeV+jUBr1nfWDuNZ1Jf0gH83LlzJs5wkWIrUWx4ggQzFhIgARIgARIggfEh4FWoIcpYmoUEst27d9ta6k2bNsnGjRvNJc7HXI5Pw/CsJEACJEACJAACXoUaa6gbGxtt+9A33nhDIiIipLCw0OhhwxNY2iwkQAIkQAIkQALjQ8BrjHrVqlWW2Q2399KlS+1JWtiVrKWlxf7mOurxaRielQRIgARIgARAwKtQz5w504QZsWpkfWMDlIGBAXOHP/DAA5KVlUWSJEACJEACJEAC40TAq1AjDp2QkCCPPPKIXQKWZ+EJWhBrZHvHxt4eGbTjxJ+nJQESIAESIIFrEvAq1C+88IJUVlbKn/3Zn1lM+nvf+568+eabtgnK3Llz5cknn7TNUFhIgARIgARIgARuPQGvyWRdXV2CFzY1OXTokMTFxclHP/pR+cxnPiNnzpyxfcBZSIAESIAESIAExoeAV4saVnRvb68tz9q1a5cJ9bJlyyw2jYdzcHnW+DQMz0oCJEACJEACIODVosYWoVii9d5771lCGXYky8nJMYHGUq3g4GCSJAESIAESIAESGCcCXoV6yZIltsnJ17/+dQkLC5OCggJ7ihaWZ02ePNkywllIgARIgARIgATGh4BX1zc2N/nEJz5hj7SMjIy0JDL8O3v2bPnSl75kW4mykAAJkAAJkAAJjA8Br0IN9zYSyfBgjqamJotXj96NbM2aNRIdHT0+V8ezkgAJkAAJkMBtTsCrUJeWlsrx48fl5MmT9i/WTSNmDdc33N4zZsyQ7Ozs2xwjq08CJEACJEAC40PAa4x6+/bt8uKLL5oljcdbQqhzc3NtZzIkkuGhHSwkQAIkQAIkQALjQ8CrULe2tpo4//Zv/7YllS1YsECeeuop+dM//VOpqqqStra28bkynpUESIAESIAESMD78izEo/FQDizLiomJGdnnG3FpPFWL66jZi0iABEiABEhg/Ah4jVHDioZYw9UNa7qsrEx++tOfmmBjeRbEm4UESIAESIAESGB8CHgV6qKiIhNklAcffNBE+u2337ZEsieeeIKJZOPTLjwrCZAACZAACRgBr0KN9dKwprFEC9uHfuELX5D+/n5LIsPSLWyCwkICJEACJEACJDA+BMYUaqyZxpahvpSlS5fac6pZSIAESIAESIAEbj2BMYUaT8vCumlfysyZMynUvoDyckxzW5eUVtbLifNVlhOQmZoghblpkjc5xcs3A/fjoaFL0t3TJ0dOl0tNQ6v0DwzqxU7SOiVLfk6ahIUGy+mSaim72ChDWudgXZ8fHh4iswuyJCstUaIineetQdvtPlwsjc3tkpYcJ0vnF8iug+ekvrHNPFOXlEBf34BER4XL1OxUmTMjJ3Ab8CpXVl3XLBVVjVKnbXpJ/5epbTUlK0VioiOkuKxGKqubtK0HbPlmcNAkKZyaaf05OiriKmd0xtsD2n9rGtrk+NlKqdf2jQwPk7zsFJkxNUNite5uKp1dvVJZ26z3boX09vVLUny03bMz8jMkyCVLcjE+YVw6VVwl1XWt6jUOsntyel66JGp9A6mMKdTI8sZWob6U63F9YxDD07jq6+ttwxSszfasxcYSMLjW8Tc2WUGSGrYn9SSr1dTUWIZ5UlKS7YSGyQR2SsN5cF68cA58jvMg6Q3H4Pc8Bf8Nlz3OOXXq1IB5oIheupwvq5W3d5+So3pjBAUHSUpCjKxcWCgZqfESHhriyPXqEKb2zh45cKJMzl6osbaAIGekxMuGlUWSmhwrW7XO+4+XSnRkuMTHRkqMClhCbJQkaf2dJtQDg0PS1NwhW3Ye0/pWy5zpObJ0Xr6cOl8p50prNQFzUAZ1cDhfWmMifs8dcx0l1Oinff0DcuJshRw+cUGaWzvt1kpNjrcJSZ4OcrsPnZOjp8psU6SEuCgd/IJNoBPjoh0v1J3dfbJ9/1nZe6REGlSoIyJCrS//9iMrpXBKmtXVLaWqrkW2vHtCDui9OaD3bZzek0WFWZKdkWj3apBOwJxeYDhgUr1LX9Va37CwEGvPJ+5fYpPO0ABqzzGFGq5srJX2pVzPhicYuCGsP/nJT+S1116TiooKE02I/cqVK2X9+vUmwnjWNR6l+Qd/8AeCh4Kg/OxnP5Pq6mrbcxzZ56dPn5bnn39eXn/9dbNUIALLly+Xxx9/XO666y755je/KYcPHzax9hSs+UasHef8t3/7t4DJWL90aUjePXBeSirq5auf3SQpiTHyzz96SwWuVJbMyVNrJVlCgh14Y+ikCDf0vauLZNN9iyU1Kc4s7D//+nNyUOu2SOsGq3r98pmybtlMmV04nLSICfv19Ctf+ulEHNOhk5It7x6TQR0A4mN+/bCapz54p04kh6+gu7dPvvWD1yQuJkIKdHB3UsF9VtfQoiJdKlER4fLHH79fgtUKeeZ/tqklXat1irTqLJlbIAvnTNVJyBT726ntObptYAhgYvLML3bIU5vukLtWzJJqZfHZr/1U79Gp2rdjJVknl24osDRPFVfLq+8clac/87jkT0mV17Yfs9faJdPNsnbaJPrKdvusVUYAACAASURBVEF7Yiz6ySt75O5Vs+VzT96rnoMB+dP/7ydyUr2ak9MTJV0n04FSxhRqbGTy0ksvSUpKiixcuNCemDW6lJeXy4EDB2wd9YYNG8w69aVg85RvfOMbti77d3/3d2X69Olm1eJ9WNnNzc2WTQ6L+MSJE7J169YRofYsEfNY5S+88IJZ2HiqV0JCgi0XQ8F/Q/gh9nhetrkbtVFw7He/+13p6ekxsb8eT4AvdbuZY8rhKhwcMOs5My3eZuZwp51Vy+uQWieZ+n5IsPPcwHB7wpKCWzBYvQQh2tZw+WLWCq9Be2e3YZuk/4OgO3mWDvdgrbrRjpwq17bLVGsyWnrV+rT6qVJBrAa1L3arVQbvyZ3LZ+mAl34z3WbCv4sBvK6xVR/KEyZpKQkapgizemFQg4V5VsMYuNe0Oa3OTm7PK+G2dnRLeXWjenqiNSwTb//Cu7Bm0TSp0lBAZU2za4S6Vtu4taPLxqMsbdvY6EiZkpks0zQUt+9YqSSrIeF0oYZrv7iiTmJ1wpyZlqBtF2vj0XL1gDW3dUrpxYbAF2oI5ltvvSUf//jHzZ18ZYHVC0v45z//ucyZM8cnoYZoFhcXy5kzZ+SBBx6QdevW2XOtUTo7O6Wurs5e+O+MjAyznjFhuHDhwsjyMByLgQAuc1jjOA6WN4Qdgtzd3W2WNdxu06ZNG7lsvI/6wC2OpWaw3mFZB0ppUHcpCuJA4WGh9t+YoePmv1jbonUaCpRLva7rwGAdqhYzXiioR0dXj7TpDYFBABYY3MUniy/ae4iHQcQXFeWp6yncYtZOKWir/cdKNL6VITnqASm9WC+9LcNC7akDBgeIdJiGMlK0fePVNeykAlGOjAizXINObUcIFSZgbSpimKTAQsHfF3QAbNXBDvFqhDBgWcer6xSfObVggtWkFjXuUY9bNCI8VGOaKTp5aZPW9uFJp1PrN/q6W7QuPb39kqqCHKnu/RBtN4QxUhJjpaKmyT5zeulR6xntBs8WXvDs4b7M1fwZ3MvNLcNhnUCp55hqBWGDQGJP77EeYwnBw+MvIZYQYF8KXN5nz561R2TCkvaINL4L4YdVnpiYKIcOHTJBxdKv8PBweeedd8wC9hQINV6YQLS3t8vevXvN8ocljd3TINqjCyxoxKtfeeUVS3qDSHvWhfty3RNxDAY4JGhgEPQUDAJwK7Z39GhcdyKuYnx/A23Woglze48WyyWtEGK0sMSQNNbc2iWNLR062HXJeY1/ITZUNG1ywCV0XI0QJh8Qp+LyOvnQA8ttICvTGfmVpUXF6/DJUh0MUmyiggHQSQUT4LTkBInVmDPcwIhTY3Cr0qSjNm07eEuy0pO0z3ZbbsIZnYBZQpnWc2bBZLXEfnPS75T696sB0K3tivgsPEMo4AHRxsCOSYtbSq/WE94ftKcncQyTbYxJmGw61XAY3T4w6Lp08oUx1xOLRl1RZxgPHm9YoLTpmEKNQRWuZI/b+FbECxErrq2ttQ1SPFa6xyXtSfiCqHrKokWL7DjEoWF941pQcHNA2OfPny9wf2PP8Xnz5pmLfO3atTJ37lwTeBScH0loO3bskJKSEnn44YdNqK9VcC2ou+easGb8Enx541hG+MJt+H6x/4QX0dyI4/jjE3RqiNc5tSa/8+zblqyxqCjXhHrjunkqbstMtBAXe2XrYXlh8367YQIt8/JqqCDKcH/GqIAhDl9Z2yR92oeQPIa4F8QMbmBYZMg7uHfNXPUcJFztdAH7PuoAT8DS+YXy7r7TGpveagk4EODE+Bhz969eOlPuv3OBDX6V6ip+Tdtz264TxsDJQo3wDO5Dc+2PlGGjwRPaCNiGu84LGx6PJo3kVdjXtdqouuez6zxlAB6O9kQdR425qKbKTCAOt2MKNcQQMVysp4bVeqWVCvc0RBezZRx7owVx6R/+8If2VC5Y5rB0H3roITtdVlaWWcoQTVjicMePLh/4wAcEYo7PYP3v3r3bHsMJUUf8GwXnRCwdiWhIjkMSGq75WgXL0rZt2zayjhznXrVm7bW+ctOfxasLGNnAiIN5Cqw0zNIT1eV0KyZKN32RN3ECzM53HT4vb713UtYunSGrNK4HkcZgbi5RFQDUMUtjRSsWFMi//fhtdZH33sQvTuxXa+pbbMnOybMXNWu/3FzAsDix3OOf/ztEPvLwKhM4xHHLVdQLNNaHv51apmkMHrHLB+9ebBbXHs30bm7tsEkK2hOTLrRnksb9ViyeJs8+v8Pc404u4TohiVPrGfFL5COgDAwMSUNThy7TCr3MG+bkeuLasfIiVPtuk7Yp8hJQ0KcxJiXFR42EspxcT7i64c5vU48lPCUoMAZRZ3wGz0kglTGFGi5kbBeKjOrKykpLKPMs10IC2bFjx0wAYcH6utkJXN447+hMbFjGHlc0tiU9d+7cCBtMFKZMmSJr1qyRnTt3mvsa4u0pOBe+j/ewzSnc6Zs3bzbB9gj1rl275ODBg2ZlY2MW1MGb6MHVj7i3p154xCeS38azQKAw4GFNHwZ4WJMluqYacS9kfQfSMoHr5YAZ63sHzqnLt9wGgAfXz5dsdY/CwsKyj+6eYXcirBXcMPVN7ZqoMuz+vt7f8tfx0zQujfqsXDDNrK7q+lY5U1KluRT9usRumsXia/S9Wn3laFIO4rYY+J1aMDmP06x2CDFi1Q3aZnCNFuRmaJ01jKMZ4cG6SgETTawfh9Xt5D6MdkJCJNaCQ5gx4fLkWsBDsm7ZjIBKPLrZfoVVJzF6D1bXt1lICi5v9OkLlQ22ggP3sdMLkuGmZCZpLkWX9tF2C9V06WTk8KkKXVY52QyJQCpjjhawZB955BGzRLEMCtasZz2zJ/ELlbj//vsvE89rVQxWeX5+vrmysU56xowZFv9etWqVzJo1y96DGI8uSBbDkq1vf/vbcvHiRYtDo8DKxnVAQCGoeEG49+3bZ+fAzAjn27Nnj1nVmzZtsuv0JdMbDyHBC0u9UE6dOq0Dzq/XYl92gbfoj0SdpeZop6nVQe3V7UfNhVqqNwUyppGcBMvMiQWxLMSd39p1Us5r/BaJN7W6YQReWPoAsSrTjTM8riZsInFBl6gtVLe4kyxObPaBl6ec0TXUsCoxyK1ePN0mh8gGh+WNJWloX28TxkBu75LyWm3DFptcImYJays7K9NCFfAoeNyJsKJLNNxRqH043YGu/tFtALFCoiM2xDhdUiNYU40XkpKwKRFyLtxSkOUNjwn2cnhn72lJ0HYtLq8fyR1B/3V6wcQ6XdsTG9Ygm/81XYqGPR7adeKZbbkzgRWaGlOoIcpwE0P8YOliO1EIJYon0/qee+6xZDNvrmRPg8bHxwt2MUOiGFzUEN3Fi9V1prNzbFyCWPCVT+KCuGOvcSzZgiUPVzlEGFnfmEDgt5GUhkEP7nN8hhg4hBzrtOEWR5IarG0sAcMLBYKNxLVAGSzBYJkuC+js7rV1fXA3LZg1RRbPydXO5NwBANnByFrHDkeenbmwVhwFLm5Yl/uPXZCK93eyQmJHrgreg3fOtyQzpxZYj8haH96JbbgWSKTrV1fpOt0YBB4DJ5cTZ8rlvYNnzWOAuPXdd8zTydVUs6D3qhv8osbokZOAiVhqUrzcu3b+ZRMZJ9YdYwVi8B95eLn8z2v7bPIJN//apdN12VK6q3YmQ5tO1+Wh96+dK8++vMsSWvN1zf9dK2aaiDk5e9/T99CeyGj/wL2L5YUtB+W/fvme/X2HrhOfmZ9pmy8FUpmks9/R2RGXXRsEDxngEEbPOmWII5K1IJ7Xu8QJYowlWr/85S/NRQ2BhoDDMsZabSSFQWixIQqsdcSh8dtvvPGG/NM//ZNljH/pS18ywf/3f/93SxKDZQ3hhdjBjY6lX7DQkTiG38JkY/Qua7h2CPeXv/xlq4O38vTTXzGL+ot/87feDr2pz5F4BNcvxBqJG3AXQrgQ/5qIgk7Q2ze8c9it+j10LYgVXPhwc49ebmVZ7Wp1ItkKljeOxc0D7wGyivHZeEyk+gc1UXKc0+hRZ8QxMeHybALSpe2KfoTBALP58ajble3W1t2v3K96e195uM9/w90NIR5OLhpesuVZVgiXMNoT1gnCAGhz7EzmiVv7/CPXcWCEut2zkyPHPQkIfRSTEeRPoI3hUUA/xsTLaRn83vCiDXFvoj3Rj7G3A/puoMVuvdXjWp/jzsB2vhhz0a64J609R2WCX+v7N/vZN77+Nenr6ZKnn37a66nGtKg934IQI/N6rLXUXs88xgE4X15enjz66KMWM0YmOEQW4g9LG4KKvz/5yU+OxIgh4nBDQ6Ahxlgfjdj0xo0bLXbu2YYU50AyGuLaOMdf/MVfjIj4aKsf5/BsijLGJfrtLdwIsXi5aM9gdHyIEtaEX6246cb31BEW9ZUxWQzmUYE1Sb9ak3h9H8J7tX27YWW6taA/Y0LimZS4tZ6oFybKiOM6fWOTa7URQm7w+jghX+SaQn2tSt7IZzZj0fXRsHjxulpBjNhTIKyeuPHo45EghtfVyn333Xe1j/g+CZAACZAACTiGgDOzlByDlxdKAiRAAiRAAjdHgEJ9c/z4bRIgARIgARIYVwJjur6xxzbWD6N4S3qBixmZ1SwkQAIkQAIkQAK3nsCYQo3sbM9OYN6EGk+lYiEBEiABEiABEhgfAmMKNbK8sT2nL8WzCYkvx/IYEiABEiABEiCB6yMwplBjqRTWMXsK1g9ebbm1N4v7+i6HR5MACZAACZAACYwmMKZQjz4AG55gD27sUIZnRONvz5OscBzWPGMXMxYSIAESIAESIIFbT8Br1vf+/fvlrbfesj2z8YALxK+xFhpPz2praxvZsezWXxrPSAIkQAIkQAIk4FWo8aQs7Ks9Z84cE2XsvQ23OHYLw5aeN/OYS+InARIgARIgARK4NgGvQo0tOpFchuc8Y19uPKkK/419uEtKSkYedHHtn+GnJEACJEACJEACN0LAa4waFjP2ykbSGDK88XxquMDb29ulpaXFXOEsJEACJEACJEAC40PAq1DD1Y29tpH1/eCDD8qJEyfkxz/+sbm87777bnsQBgsJkAAJkAAJkMD4EPAq1EVFRZbpjSdSrVmzxgT6zJkz9vcdd9xBoR6fduFZSYAESIAESMAIeBVqxKfh+kbWN0QaYo2XpyChjIUESIAESIAESGB8CHgVaizN2rZt21V//amnnpJ58+Zd9XN+QAIkQAIkQAIkcOMEvAp1amqqFBYWjjycA0u0sIa6rKxM4uLiLtv85MYvg98kARIgARIgARIYi4BXocaTseD+9pTBwUFpbGy0tdV79uwRPpRjLKx8jwRIgARIgARuDQGvQp2VlSV4jS6wqqdMmSIvvfSSdHZ23por4VlIgARIgARIgAR+g4DXDU9+4xv6BsT54sWL0tTUxHXUYwHieyRAAiRAAiRwiwh4tah/8IMfyAsvvHDZzyELHO7wxx9/XPLy8m7RpfA0JEACJEACJEACVxLwKtSIUWO99OgSEhIieBQmnlmNLUVZSIAESIAESIAExoeAV6GePn265ObmSkFBwWVX0NPTYxufIF7N4nwCk7QKQUGTZNIl59flWjVA9W6XZ6iHhQRJkNsbVNszNBi9l4UE3EvgmkKNbUNffvllew71l7/85cso1NfX23uf/exnf8Pidi8ud9cMA7vbS7jbKziqftCvgSGXz7y0vsGYYN5G7cqq3n4ExhTqoaEhSxLD0is8c7q1tdUewuEp+KympkYg1ni6FgsJkAAJkAAJkMD4EBhTqCHMBw4ckH379smbb75p24d+7WtfswdzoMB1CDHHPuDJycnjc2U8KwmQAAmQAAmQwNh7fUOQYU13dXVJTEyMhIaGmlh7CrK+8chL7Pl95RprMiUBEiABEiABErh1BMa0qJHR/cADD9hr586d5vreuHGjPZQDBUIOixpubzxFi4UESIAESIAESGB8CHjNHoKbG9uGYpMTiDMKYtTY7/uVV16Rqqqq8bkynpUESIAESIAESEC8CnVxcbGcOnVKIiIiRpa1YB01xHrz5s2WEc5CAiRAAiRAAiQwPgTGdH2P/ilkdiPDG3FqT4ELHO7v8+fPXxa7Hp9L5FlJgARIgARI4PYl4FWoEYOGy7uiokLi4+MtTo3YNCxpfIbEMhYSIAESIAESIIHxIeBVqPGULDzS8qtf/aoll0Gsz507J7t27ZIZM2ZIYmLi+FwZz0oCJEACJEACJDD28qzRXJYvXy7R0dEmzMgAR2JZeHi4zJs3z3Ykw17gLCRAAiRAAiRAAuNDwKtFnZ6ebi7uqKgoqaystCQyuLsh1nV1dTJ58mSJi4sbn6vjWUmABEiABEjgNifgVaixPAtCPHfuXMnJyZGWlhYT6NLSUksmg1BDzFlIgARIgARIgARuPQGvQo3sbuxKhiVab731lr0aGhrM5b127VqztFlIgARIgARIgATGh8CYQo2sbmxogr2+9+/fL+Xl5ebqxqMusZ4acevPf/7zZmlzr+/xaRielQRIgARIgARAYEyhLisrk3/8x3+0/b5TU1Nl2bJl5t7Gc6lLSkoEW4zOmjWLBEmABEiABEiABMaZwJhCDVf3kSNH7IEcmZmZkpeXZ9Z0SkqKxMbGjuxQNs7XxtOTAAmQAAmQwG1PYEyhhuX813/91/LOO++Y+/u9996ThQsXyqpVqyyRLCMjQ7q7uwVbieKFhDMWEiABEiABEiCBW09gTKHGIyyRKLZ48WJpa2uzXchOnjwpW7dulePHjwtc49/5zndkyZIllg3OOPWtbxiekQRIgARIgARAYEyhxjppJIrhhdg03N94zZw5U1auXCmNjY2WCY6nZ0GkKdTsTCRAAiRAAiQwPgTGFOrRP4W9vT2ijS1DkRGOh3TAwsYL2eAsJEACJEACJEAC40PAq1Bf+bMQZsSw8dq4ceOVH/NvEiABEiABEiCBW0jA6/Oob+Fv8VQkQAIkQAIkQALXSeC6LerrPD8P95FATX2rHD5VLu/sO2PP+p6Wly5L5kyV+TNzfDxD4B82MDAorR098srWw1JW1Si9fQMSGhIkC2ZNsbpmZ7jrSWxd3X1SXFEnb753Umob2iQxPsrqumphocRGRwR+g41xhf3ahpt3HpPjZyplUB9/i0fgTs1Jk0Wzc+3fcm3X7ftOS11jm4SHhUhmWqLct2aOJCXEOH51CPprSUW9bN1zSsqrmyQmKlwWzJwiKxcWSLLWz02lua1LThdXyRbtu13dvZKVnmhtjL4bFOSOVT6Dg0N6f9bLjv1n5VxZrfVXtOeKBfmSmZoQUM3pV6Hu6tLOoI/QxM5nnZ2ddiPjhWzzpqYmex8xcSS34ZWdnW1Z5ljfjW1Msdc4MtAhbHgh8a2wsND2JN+xY4fU19fLwMDACHBs4ILz47i77rpLQkNDA6IxcO3HzlbK7iMlEhYaonH/EDl7oVbrJJI3Wdeux0RIkAuWwA1phXr7+gWDfUR4qERFhulDXgZ1YD8j0ZHhJmT41w0FbdfQ3C7Pbz5oYhatg3p3T5+K3AnJzUqWqdmpNjA4rWCIjggLlbiYSNEqWt1Ol1RJSHCQoH1f3XbE7kW0LRgU6wB4Tus6oyBIEuOinVbdy663vbNHfqX1w7/REWFa90vy+o5jOhmJt36LPu2GgvYru9ggb2hfvaR1xKQSE83tKmgzpmZIQlyUTrCDHV/V3v4BefPdE1Krk8qo8DAJCp6kk7DTkpIYI/GxURKlbRwoxW8jBZ7ChaS0F154wcS2p6dnZMaNTVUOHDhg67gRE8ffENzp06frbC5IFi1aZJ9v375diouLTcTxObLS8d9ZWVmye/duOXPmjJ0XBZ3v7Nmz9t9YeoZHdAaKUHf39JtQN7Z0yBf/4CG7Eb733DtyobJeSvWGmV2QJUGhzr8xMNmAOG1YOctuhHgd7Bu0zp/72k9sRjuzINM1Qt2v/bGqrsUG8qc/87gsnTtVTqmg/eMPXre6JsVHS1qy8546F6yCfMfSGbJ26UzdQyFIBtQq+Yfvv2J9NUQH7xffPCh/8yePqZVZKC1qlb227agcPVNhwu5kocbkEhOvt3adlE99aJ3ctWKWVNW3yBf+9y/kfJnuLZESL5PV6nRDgecAliY8fF/97AckV42FLSpor20/JmdLa2Tu9GwJ1fZ0ckG/Rf+EB3Pj2nnyyF0LpLu3T/4K7VleJ1Myk7XeyQFTRb8JNSzmo0eP2mYqX/jCF2TFihUmpq2trQYHDwGB8H7iE58QZJtjz/Ft27bJj370I5k2bZoJPLLRv/nNb9o2pxBqPNkLM3w8lhN7keO/UXBebNDyt3/7t7asbNOmTXZMoJTy6kYd8AYlS2fm6SlxNmGZmZ9hdTp0skwKc9N0UuF8ocZADoHCSwTeEzFhzlL3KEqHWipuKU2tnVLT0Gptmpkab0KVlhQny+fnq5VZp1Z1iiOFGn0TXh8U3FdwH+KFCTReEO/UxFiJiY7U9y/JrMJMeemtQ9qH02X2tMmObd7W9m51dzeatZWZlmATze7eflm7ZLpNyC7WNrtGqNFv29q7zFOAusIbNCUzSaZPTZd9x0pNxNCfnVw6uno0jFGn7Rhp9YQ3L7hjkqxcUKAC3ikXLtZTqNHAsHQhytHR0ebK9jyFCxY0BDYyMtJufAgq3svTbUyxxzjEHWIL4cX6bbyHB4Vg0MCxHnEebS23t7fLz372M+tXeKDIvHnzzPIOlNKiNwXqGh0Z8Wuvgg50YepixIAPF5tbyuhd7DBzRywT8erZhVk6SYl3SzXNzd2pMeoUFS0IGyYl+Bd/V2h8s0dn704tuNf2H7sgP399r1qZHeYaXbdspgpVgrlKq9XSnKqDHcTtwIlSqVIRg7Xi5IKQTZvmVyTqJDNCvUJoT7h/U9Urgrg82totpaOr18JTyQnREqzjEsIdkRrKiNUxqbKmSfr0M6cXhNyaWrtswhGpLm6MS/AWYSJWXF4vncogkIrfLGoINCxhxKBfeuklOXfunMWg8fhMbFF6pZBCbCHuEHUIN56DffHiRfn+979vMWm8IOZpaWmX8cXOaljvDTc5Yt+rV6+W+PirCwLOCZc5XOoomBhMLSgc1zZDp8HNMNpqRpIVkjb69DPE+txWYIXBQnll6xGL2ebnpEqcQxOsxmobWJOD6iXBoO5JvsG/EGu43QYdPvlK0HjzrMLJ0tzSKXVNbZYYiInmvXfM0/yKGvMmwGvSruLWo585fbKJxDmIF9oPk2oUDO4I5Xi8CmP1Aye+h6RP5Bt4JpioA0QMY1KftuWl9z2VTqyb55ph0PVrjBpjbvD7yXHq41PjKMTqjns0kIrfhBrblMKljRdixxUVFSa+ENx169ZZchlEFluWQqThCsd72LYUMWvsO/7mm2/atqYQduyctmDBAotfY403ClzHpaWlsmXLFotHQ6i9PfULv3nhwgU5ePCgnaOurlam5E0d1zbDzBxajBvEU9BRMLiFaUfC7N1NBRYZ3IUHjpeaa/9DG5fJzKmZFuN0SwnWxBRMNpGwghsfBf/26d9IvPIMDk6sLwQKqxIKNCTTo/kV//Hzd6S+qd28CB/Utnx71wlNRmqUcBW1ZHODh1udnVxgWeI+RfuNDqlhggIRw8stBfch8klGGwlDOh4NDCCsqN6E9ycqTq4v6hCq/RNGkmfSrCnJNhFB3QOtPf0m1HiYR35+vnzrW98yi/fw4cMWr3722WctWxvPw0ZWNwQTrm1Y38jU/shHPmJu8UceecSsY1i/OGbz5s32AJH169fLn//5n1sfgugitv3iiy/aYzvnz5//G5b6lZ0NQo7X7/3e79lHTz/9Feuw41kQJ8HN36oucIgYBsL2jm7rNEnqfnLLcggPQ/B8a/dJ2X24WNYvnymrFxWaS9FNJVKzSKPVXQgBw+COgvZsfN9V7IYMYQxoyO5GvL28qsHitIuK8jSWmWH1RXLkQXN9YymTM5ejefokLGd4fJo1FAVxxtQLFnY9MobVdRpIGcKea77Rf7HsDGLdpO0HTwJKl07C2js13KjjUZgLJtQwgBI1abdNx1lMMDGXhhcM92e4fgYGgVT8JtSAAEGCGwlLqpCpjaVX+G8INFzQsLYffvhhc4fDVY7kMcSlPa4nuLARb8YjOCHa//Vf/2WuahQI3uuvvy6HDh2SD33oQ5aYBrd5IBYkZ2DGjtglYrZIVDldUiONOiggQzpMJzVuKWiX517dK+dKay179GHNtox1eGLKWG2DhDlkAlfVtkhNXavkZCSZixhL8D7+2CpJT756+GWs8wXCe2g7xC9R4BbFYAexQlIOBjvUubWjy2LWuLcRm379naOyRDPec7SPO7lghUKOJlTVN3VYDL5VM4abNQ6/Y/85+fADy1y1B0C6xt1R34vq9arRusIzUl7VJGd0ySj6bpwaFk4vMZrEinBbi+ZRVGs9kUCGych7MB403wLLYgOp+E0BkAwGlzZuaAguBBgxaLgLPQlHEGdY3RBZWNUoGCywtAtWN2LVeEY2BBgJZp5MbsQGsXwLbnMkqT300EOWdHZl3DtQGgJWyRwVLWwG8t2fbNV6hdrMHZmyWG8baG6YG+WGhJwq3dgFS1ywLrMxu1Nn7HvsdEgmK9KYJzKk3VAQ+0LG7L262cf2A2dVoItN1HIyE2WatiuW4DmtwHUPCwSJZEgqgvseIRr0VSytS02OlZ261haTTQg32hsbncydkWOfObnAA5iaFCvrV8zUZUsVcuJclYUykDGMVRmop1sKvD0QMWy29Nxr+0yokSw3JUszvzXk4QbvAbQAFvUdmrV/obJB/uXZt9Tlrc+10AlK/pRUW6ERSMWvQo24NKxnCDJEFku2EB+GhQyxHat4hPrIkSOWNe4RYKzFBnzEqRGbxpO9jh07ZjHvqqoqe6HAGodljuNw8wVCwcRk3oxsS0rBuj7cFBjMsfYWbnG3FORPIYEDlgm8BnG6kUt9Y7tVMCENvgAAIABJREFUrz2jx4TMLQVtigzSD9y3eGRTBawjvnd1vmVHO3WzE8SaIcBYg4p7Ef+bpq7u+bNydblZvJzS3awg3J26/AXhjCVz8yUvO8Xx6+O1OS3r+aH1C2TrbuxM1mjufOy6Busr0iWbneD+Q99FnVA3rJ9GW2dpn11UlGt92uPRdPK9ivYM11U1964u0o1czpiHL1zzmO5cNsPGXhhPgVT8plS4yfG4TCybgkAjRgvrFy5wxKJhJUN8kQTmsbBHg0NcGxuiYO00RB4W97333muucog8YtOYCDQ3N49sdILv41i41GfPnh0wQo3rwpZ1mesS5IF18wKpf9zSa8FgNj0vQ77ypx+4pecN1JNhjfh8tSbxckPBAI0ldB96YPlVq/P4PUuu+pnTP8Dkqsg8P1lOr4rX68cka/WiafZya4GnEjut4RXoxW9CjaxvxJWLiopMpCHcGAhg5eIzxKXh4ob1O3pzEhyDZLKnnnpKfuu3fsu+CyHHy7MmG5Y1lm3h+6Nd6WgMHOcR9kBvHF4fCZAACZAACfhNqCGgEFa8xiqemPRYn0Gs4fLG62oFa7JZSIAESIAESMDpBNyz+M/pLcHrJwESIAESIIExCFCox4DCt0iABEiABEggUAhQqAOlJXgdJEACJEACJDAGAQr1GFD4FgmQAAmQAAkECgEKdaC0BK+DBEiABEiABMYgQKEeAwrfIgESIAESIIFAIUChDpSW4HWQAAmQAAmQwBgEKNRjQOFbJEACJEACJBAoBCjUgdISvA4SIAESIAESGIMAhXoMKHyLBEiABEiABAKFAIU6UFqC10ECJEACJEACYxCgUI8BhW+RAAmQAAmQQKAQoFAHSkvwOkiABEiABEhgDAIU6jGg8C0SIAESIAESCBQCFOpAaQleBwmQAAmQAAmMQYBCPQYUvkUCJEACJEACgUKAQh0oLcHrIAESIAESIIExCFCox4DCt0iABEiABEggUAhQqAOlJXgdJEACJEACJDAGAQr1GFD4FgmQAAmQAAkECoGQQLkQXgcJkMCtJRAeGiShl27tOQPxbEGTAvGqeE0kcOsIUKhvHUueiQQCikDQpElCEQuoJuHFkMANEaDr+4aw8UskQAIkQAIkMDEEKNQTw5m/QgIkQAIkQAI3RIBCfUPY+CUSIAESIAESmBgCFOqJ4cxfIQESIAESIIEbIkChviFs/BIJkAAJkAAJTAwBCvXEcOavkAAJkAAJkMANEaBQ3xA2fokESIAESIAEJoYAhXpiOPNXSIAESIAESOCGCFCobwgbv0QCJEACJEACE0OAQj0xnPkrJEACJEACJHBDBCjUN4SNXyIBEiABEiCBiSFAoZ4YzvwVEiABEiABErghAhTqG8LGL5EACZAACZDAxBCgUE8MZ/4KCZAACZAACdwQAQr1DWHjl0iABEjg/7Z3JtBVVlff35B5IgQCSZgTQOZJQEEQFCdErQPV1toqtdZVXbZW/Wrt265lu1rb2vJW19ev7VrWOtSpWrVVwWLVOoAoKDPIPI9hCAQyEhK+89u8J+/1GpJAcoc87rPWs5J7n+ns/z5n//feZ7iGgCEQHQSMqKODs73FEDAEDAFDwBA4LQSMqE8LNrvJEDAEDAFDwBCIDgJG1NHB2d5iCBgChoAhYAicFgJG1KcFm91kCBgChoAhYAhEBwEj6ujgbG8xBAwBQ8AQMAROCwEj6tOCzW4yBAwBQ8AQMASig4ARdXRwtrcYAoaAIWAIGAKnhUDiad1lN7U6Asdq66SqukYqKqv12clJiZKakqRHUAoylpVXydGaY3LcCZWanCTZWWlBEe9zctQdPy41TtayimqpdbK3b99e9Zmemuz+b/e569vqF8ednLTdyqoaOVZbq2KkOhnTnayJiQltVazP1Rs5j9bUah+tOVarOkxxbRh9JiQEK+aprauTo0dPtF3kRo++7X4OmDb8BbaoovKo2qR27dqpjGlx2G6NqOOkke3YUyLvLVwrL/17kdS5TjJqcG+56JzBMmnsgDipYcursWvvQXn07+/LsjXbHYHVysTR/eW/vnN5yx8cp08oL6+W5et2yLOvfSTbdh+QvM4dZPJZA+Ty80ZITnZGnNb61KsFSb//yTp57T9LZafTMWXKuMFOzuFS2KPLqT8wTu+ocsS1Yu0OeeFfC2Xt5j3SMStd+ydyFnTtGKe1Pr1qHThYJguXb9a2e8Q510W9ujidDtK2GxSnhMBh5fqd8s83F8uS1dskzTlck50+p00eFnftNiZEXVVVJQsXLpQ33nhDW1F5ebkcO3ZMkpKcd5qert/17t1bUlJSZNWqVc6bS3SNI0G6d+8uY8aMkREjRsiOHTvk448/lmXLlgkeH+TWt29fGTt2rAwZMkSeeeYZ2bp1q/MKj9a31MrKSo1qioqK5Oabb3Zef+rpteJWvov60ylWbdgl100dK5kZKbJo1Vb5ZOUWGVhUIJ1zMiXB1butl7SUZBlQWCAFXTqqbCWlFW1dpJPWH53u2V8qj780T0YM7CHnOYI+UFou7yxYI0P6dZfk5ETJSEs56f1t6cS8Retl3ZY9MqhvgVzmDHnd8TrJ75wtWenx0b9aA0unTik9XCHPzVogPQtyZOywQqmoOipvf7haBhTluz6bKlnuCEKh7a7fUixz5q6QKeMHSU6HdNm0Y798sHiDjBrUS/Jys10mISbU0Wrwos8qp79/OJLOdP3whivGKY+85fRZ1LOLdOqYKdmZ8ZPtiwnapBgg37S0E0CsW7dODh06JJ07d5ahQ4fKli1bZO/evZKVlaXXeEKtqKiQ7du3y+DBg+X999+XTz/9VMmdayB6yBongALJ8z0ET6l1KbkPP/xQ//IelBIv5aAz4NtdxEX9p00erkS933m0RNkYwLFZRZKQ3PaJGkM2bkRfTY8iX+mRynhRQavXAyO+e98h2bCtWG66+hw5c0hvWbtpj3y8YrN+16VzVpsnavoQUcmiVVsUvyvOHymD+3VzRH1cU/06vhGQUlV9VB2vjdv3yoUu0zV57Bmy231+/+N1ssWRWI+8nMAQNRH0juKDsq/kiHMwB0r3/Bx51zmYb8xbqcFEpnPA2jpRk+ouPnBYNm3fp1mCyyaPkPKqapm/dKPa3d17DxlRQ6LnnHOOHhQf/RIRX3fddfL444/LihUrpGfPnnLrrbcq4dbU1Mi2bds0SoaU3333XcnNzZW77rpLOnXqpARcWlpaH5lff/319SaC64nADx48qOMQ06ZNcxFNctyYkJ2uUTAmlJfbwXlyJ1KieHV0mE9dxxg5yGUX2rgHC9iM//R1KbRiZ+CSAjR22VBDOuSiLwxdQZdsyc05QcrodsTAnrJ11wHp3ydfeuZ3aujWNvNdXd1xbaMYtS4urc98g82OtMgWEI1kpgcjY4BCkJOhm1ynwy6dMjWC7uDGNscM7SN7ncGHxOmzQSi027KKKsnv0sG13Uwds6UdF3bPlRVuKAdnzNuptiov8wzoh9lZqU6fWZKVmer8yuMyamAvOXi4XB0VspnxUmISUTcmPFHlnDlzNL09ffp0TYVDrhArKetevXoJKWyIm2g6IyNDzxOhQ9gNRcplZWVK/pD5hAkTNGr3kXZjdYnWOSJLUtt0fl/wWplQdvBwZYMyRatu9p7TQ0AnBrqoGkOXlHQiq4M+O7mx6fVbi6XanW/rhWh6b8lhae8mUq3asFN+9chs2brzgPTpkavRNel+JlsFoVS78enDbs4Bcwu8TImJ7VW/61yauNLpOiiFyY81x+pcW82sn/TI+C32abdru8wvaeuFSYE40x2cQ5mWeqKNMixKyptIu8JhEE8lrogaIiW9TWQMAefl5SkJU/gLuQImx6BBg2TRokVy++23y4ABA/Tz8OHDdWw7tOzfv79+LPuKK66Qc889t1GSXrt2rSxYsEAWL16sj1m+fLmcOWbsZ57Z2h+8c+Fl5fkqtjs4F0dZ+tYWPbDPQ2forr1TZOj8bnSs5wIi+TFn0DFs6akpMm3ScDV0c93EMjJBZIFInQahEG2hz9A+Sgdt52Z+B62PnrBHyBqiOfc/n4+7LEowWu/n9akm140wxqOEcUXUOubl0tQcRMikyMMLHYVI+oILLtAx7E2bNklxcbHs2rVLx7bPPvtsPSjV1dWyZs0amT17tkbRo0ePloKCxtMZRPD5+fnSr18/fcY2Nybevn1kl5jgrTKux+QGX6qO1ug4X3qaW8oT2mHqr7B/4hkBomgi6CMuhajjta7wt9yl3FIdgQUh9U9fpH2SDWLY5qzhRZpGZM7FUjeLljH5oBB1kgsSSAGjP78Ejewfyw2TVdeRtRHRbOtkDNApsmKXKETRVdXHJMMNZwRh1jdBH223yi0pZKkdBVnLXSSd6DJE9N14KnFVG5/CBkSia2Zsn2wsedy4cRpFM24NGc+fP1/mzp0rRNCeqBnPJuqGwO+//37p37+/RuONFcbFOS6++GK97ODBQ7p2MpKlM+PSrj+UOANHii3JpdT2u3Ei1vf17901EB0jkvjF47MZnyWttveAG+/DuDtjgOHb7sbFerix6SCM3yYktNNUPunfXBdJIy/Fp/v9ngDxqJ9TrRPONLKWHCp35HxiHTXDG0wky3fjt9luqVZQSkc314BsyL6SMiWy2vQ6N/Gzwk0APeLabo7uf9DWC85y104dpLSsUo6UVakjwp4H21z/ZDUGuo6n0jhrRbmm6uW4iJaDJVslJSWN1iA7O1uGDRsm1157rfz0pz9VIiZVTSE6Z/nXkiVL9PzAgQM1nR6PpVdBZyXjXW5SDhOtKp0BWOOiEYh7pFsOkRRn3l1LMNS0rzrpJxJM/+Owt+SRcXlvTocMyXfLWNDpHndgEJh09JFbhte3V1dd4tLWC1EXa4khaaIRUuD0uw3b9rps1jGdYBaUghPC5D9WKzCbn/HNEjfpaK5bmsZyw+5u1ndQCtkR5GWSILIysWzbLlagFLvJc4XSIQCbFJEZKHST/1hyh5wlpWUu+1UtHy7bJB1d3+3jJs7FU4mriBpgiKqnTp0qLNl6+eWXZcaMGbo8i3T4zp07ddb3qFGjdPkWhM7aagrniMCZUMa1b775pqbF+/TpI5deemn9+ux4At/XhR2OJpzZX6qdR/ej373o0k4JbtJKuowf1U8NQEJAct879hyUp16ZL6s37naOyG7dDejm/3pMLjl3qExwsvYsaNuzoEPbFjrtltdRbv/aFJn93nJ5bvZCTbVNHN3PzfjOC8xSHmS+5NxhMm/ROvnFH19Vh5PZ4ONH9pVJY4KzWQ/6ZKbzN6dPlI/cEp7Z7y53Q3NJMm5kkZsdnB+oHfbauYFaZnZf6paK/t+n3tIleCytPHtEkdsIJNcNAcTPipnTtec6bOOyJNe79dMLlm2Uex58XtPdAwvznewFcRdRxyVRT5kyRQl7/fr18tBDD9WPVUPYEDMzvtkwhZQ249iMZx84cECXcTF2DVG/8sorsnLlSh2TfvbZZ+v1ybVMUrvyyitPmlY/XeWf7n3IeoYz3swi7e52OCLKZKejfi7tHaQtRPFiRw3upemzc0b1VTnT05Oln4swg5AKDtc/UTVrbhm3PeRSh5lpqWrourrPjIMFpdB2XRPWDAKRNanDAc7gsaQnSCXdycXOVaRF97k0MClg9IkzHYQ5B15X6LJb1xy5aMIQbasMx+GkFPXsqmPUTJAMQoGYx4/sp0sJd7nMATokkmY3Pb9SI17kjAui7tGjh5Imk7ggLVLYTAQjjcbOY6TEOZjRDfFyLWPNhw8fliNHjujkMr4766yzdPkVz8jMzNTlXKS7N2/eXI831/JcJoLEU2HZx2iOIX3iqVqtWhd2OJrqoq8vSmGcj44fb2m01safNCntNshtF8ww5GR9gpT5OVlbwHEe5NYRcwS1kCXp7rJeHPFe4oKoJ0+e/BmcIFrGnjlOVtjQJHRTk/DrZs6cGf6VfTYEDAFDwBAwBNocAsHJv7U56K3ChoAhYAgYAoZA0wgYUTeNkV1hCBgChoAhYAjEDAEj6phBby82BAwBQ8AQMASaRsCIummM7ApDwBAwBAwBQyBmCBhRxwx6e7EhYAgYAoaAIdA0AkbUTWNkVxgChoAhYAgYAjFDwIg6ZtDbiw0BQ8AQMAQMgaYRMKJuGiO7whAwBAwBQ8AQiBkCRtQxg95ebAgYAoaAIWAINI2AEXXTGNkVhoAhYAgYAoZAzBAwoo4Z9PZiQ8AQMAQMAUOgaQSMqJvGyK4wBAwBQ8AQMARihoARdcygtxcbAoaAIWAIGAJNI2BE3TRGdoUhYAgYAoaAIRAzBIyoYwa9vdgQMAQMAUPAEGgaASPqpjGyKwwBQ8AQMAQMgZghYEQdM+jtxYaAIWAIGAKGQNMIGFE3jZFdYQgYAoaAIWAIxAwBI+qYQW8vNgQMAUPAEDAEmkbAiLppjOwKQ8AQMAQMAUMgZggYUccMenuxIRBZBNq1i+zz4+XpXxQ54wVvq0f0EUiM/ivtjYaAIRANBNo5BjMSiwbS9g5DILIIWEQdWXzt6YaAIWAIGAKGQIsQMKJuEXx2syFgCBgChoAhEFkEjKgji6893RAwBAwBQ8AQaBECRtQtgs9uNgQMAUPAEDAEIouAEXVk8bWnGwKGgCFgCBgCLULAiLpF8NnNhoAhYAgYAoZAZBEwoo4svvZ0Q8AQMAQMAUOgRQgYUbcIPrvZEDAEDAFDwBCILAJG1JHF155uCBgChoAhYAi0CAEj6hbBZzcbAoaAIWAIGAKRRcCIOrL42tMNAUPAEDAEDIEWIWBE3SL47GZDwBAwBAwBQyCyCBhRRxZfe7ohYAgYAoaAIdAiBIyoWwSf3WwIGAKGgCFgCEQWASPqyOJrTzcEDAFDwBAwBFqEgBF1i+Czmw0BQ8AQMAQMgcgiYEQdWXzt6YaAIWAIGAKGQIsQMKJuEXx2syFgCBgChoAhEFkEjKgji6893RAwBAwBQ8AQaBECRtQtgs9uNgQMAUPAEDAEIouAEXVk8bWnGwKGgCFgCBgCLULAiLpF8NnNhoAhYAgYAoZAZBFIjOzj7enNRWD/wSOyeuMe+WTlZjl+/Lj07tZZhp7RQwYU5jf3EW3muu27S2TJ6m2ycdtead++nQwsLJDhA3tIQZeObUaGpiq6bkuxfLxik2zbVSKpKUkycXR/GTussKnb2uT5XXsPyfK1O1z73aVt9wzXZoe7ttvLteEglZqaWtm+p0QWLNske/aXSnpqsgwoypeRA3tJxw7pQRJVDpdVyqbt++TDJRulsvqodO3cQQb366ay0meDUGrr6mTH7oOyaNUW2brrgCQlJagtGjGwp3TplBVXIkaVqOnEx44dkzVr1sjevXu1Ux89elQBSUxMlISEBP2/vLxcOnbsKL1799aDUlxcLIcOHdLr+I7n7Nq1S7Zv367/86y0tDTJy8uToqIi2bJli76DZ/lS5xRTU1MjKSkpMmHCBP3brl3sG52rujNyu+X9j9fJ7n2HJCkxQXY641dRVSM98nPUIMRDPeuBbME/6InOv2Lddik9UimJrnNA3CkpiZLTIUNJLQjl4OFyWbu52Bm7vbKz+JB0ys4IJFGjz0UrtzgHc4uUlJZr24W427t+hbFLc203KKWsokrenP+pbHIOZlV1jbNF7WW9+79TdqakpyVLclJUzWnEYMUe7dhzUN78YJX+xUTShvceOCKFPbpIh4xUZ6vbfjIWx+u9j9fKmk27Bd0mura7Zcd+yXLydchMlZTk+LFFUW1ZdOqKigp58cUXZe7cuUrSu3fvVhLKzs7Wg2uWLFkiQ4cOlRtvvFFuueUW58G1l6VLl8rixYslIyNDbr75ZiXu2bNny+uvv67PgYALCgrk/PPP13veffddee+995TIfSktLZX9+/crmb/yyivStWvXeucgYq2+GQ+ucY7GJyu2yI7ig/Lj71wunTtmyP975j+yasNOZ9z7SN9eXdUAtvVSV3fc6emYzJm3QkYM6Cnf/caF2jn+z4PPu86yR4p6dpVeBZ3aupha/14FneVLU0aq8Z752JxAyBQuhDrazti9s2CN5DhHhLbbybXdH858UR3PQX0L1LAHodTW1smBQ+Xy0pxP5NvXTZIp4wepU33Pgy/I+i17JC+3g+S5qDMIpba2VtZt3qMk9su7pkthzy7yr/dXyOvvLVfHkyxfZnpqmxYVW1RWXiWvvbNULpk4VK68YJQ6X/c4W7TWyd6zIEe6dc2JGxmjStQQblZWltxxxx1KtpDmCy+8oEQ9ZswYGTt2rBD1Xn/99RoRQ86HDx/We8LLrFmzNGK+9dZb5cwzz9TTEDFROVH3NddcI1OnTlUC9+WZZ56R1atXy4ABA9QpoD7xULa5tMsx1zm6dc2WfNfh2ztvdaBLqWHslny6TY1+EIiaFNrGrXslw0UfBU7WTh0zlbhJCVdVHZUNW4sDQ9REk8hZ4ox7Qpy0s9Zu65D0hm3FzhlJcMMW2ZLrZE5wadGRLnV44FCZtt+gEHWpSwVv333AyZihbbdjVroa9kluSIMMwk4XeQaFqEnrl5ZVOHvUUfKdXjPSUtwwRidH0HluOGezs1HZbZ6oiaA3OqcjOzNN5STjdbi8UsaPLBKyYZtdZP2FJWoMBeTYpcsJLzs1NVVT3HyXn5+vKW28OVLYPXv2lMzMTHn77bfloosu+pyNIRLn2sLCQr0Psq+srNTv+J/nclCIuFeuXCkHDhzQa6+66qq4SXtTv5LSCk0vMc5FhEmh4ZAGLj5wWBhLCUIh1YQ8dHzSS4nOIamtbe+ikWwdrz50uCIIYqoMyEbqjPG8OBhdiQiuOJf7So64vpTkUoVpKjOF8UyImgg0KAVSPujaJ5mD9NQUTf0mJydK9/xOstsR9REXnQWlHC6rkmrXVzs7RzrFyUgbzspIU9n37CuV6qPH2ryoyLD/YJl0yEqTjPQT+kx0QV6Bi6K37tyvw3LxVKIaUTdXcIh22LBhSqpz5szRaJtIO7SQvt64caOmuEmDQ/7dunWrdwL8tYxf79u3T1599VUlcKLvwYMHnzSa5tqtW7fKzp079REbNm6Qgm7dm1v107qu+miN1i10TISUKcagorLKDQec1mPj7qY6hj5c5IxsPkMAiaU5Q08atdpF11baDgK0y0o3jwKCJqr2BeNOORogfeKU0D7TUpLrx2fbt2uvY9M1x2r1CEpBb9jbtNQktUsUxuPpt+g73Ba3RbmRAeeLtuodTOZVIHMtQ3Rxps+4JGoU379/f42Wn3vuOR1nZmw7tIwfP17Ht59//nmNvvv16yejR49WIuY+38CYgLZs2TIdE7/pppvkvPPOOylJ83wmqHHtvHnz9HXbtm2TzrmRHWeDkOHiOjcO5guNBfLiXFAiMrq8RtGukzBG5Mux/3HCgpoirhc0YP94fdJOQ/VJ26UEZXawyuI6Ie2TsWrkPVGYHFuncgZKVicn9vMYsnpJnU7R6wl7FPsJuP9TrdP+g3zIEqpPZEWf2Nt402fcEnVycrL06tVLJk6cKB988MHnJn1Byn369JGrr75aiXjRokXyyCOPyMCBA2XmzJluqv2JKG3FihXy6KOP6nj1WWedVZ8OP5mGibYh/RkzZuglM//7v53iIjuRi3ESPDzGwXxhogPjtzkuHY6RCEIhrU86rbyyWiNrCkbvkJstDIFnuhSUlbaDAHMpGKIhMkGnvpQeOeFUMzs4KIVsV1ZGio5f+swPUdcBt6ySjFCQZrfTD+mPB12/9A4YkTQ2CX0HYb5MkssOMNTIMrRK134p2OCS0jJJdnOcGJ6LpxIfs6lOgkj37t2VYD/55BPZtGmTLsPyBSLOzc3V2eHTpk2T2267TaPpkpISjcAZl2b2+MKFC3Wm+IUXXqiRd1MTyHgu1+fk5OiRmpLqiDqyMLEEC2+d8R/WUzN+st5NrGLsephbj8r6viAUxtz79e4q5RXVug6VMWmMPBPmMIRBmXgUBF01R4Zk53gV9sjV9krbxbAfc+S1Yt0OHa7p3yc4ewAwp6JHXo6Oye/df1gNPOOYHy7d6CZXdZRuAdoDoGvnLB2TZpLcPjenBKd6R3GJmzi4V0YN7iVZLrBo64WJnn2656oOi50+cS7LnF1i9U22G7fuGWerT+I2oqYhdOjQQSNkZn0zZswMbsauKcz4ZoY3ZMp5llp16tRJCZ0JZYw1z58/X3bs2KFkT5QMAcdjoVP07ZUn+90EnL/NXqjrpre5tcXMRmRpFpMcglCQA498SP/ubk3mYXlu9kc6Q58IhY7RPS84G55scRNSlrpNXTZv368zSIlCMAAsWcJAxNMazdNtW6QOiUoG9u3mNo4ocfpcoG0X48fGEUFZagc+jGV27ZwtIwf1lpXrdyqJ0W6ZSFfYM9fNBs88XRjj7j4/y7tP9y66JCvTOSk41mT3BhZ109UMbb0kObuTm5PpAqGeQl99btYCTfNz9Hb9k5nt8VTimqghYpZRTZo0Sceq169fX0/U/F9WVqYEjbFnGRfj0Z07d9b0NtH0Rx99pKRdVFQkmzdvrh+3ZqOTHj16CLPOm4qwo6EsxkPOHNLbRSY1br3icpeCEUdm3WTM0N7amIJSyOCTnbjYrVtkM4WPlm7ScaKzRxQpgTFzOCiFCHPh8s06mx3ywjGZt2i9zjBl2UcQiBpd0X8mjx3g1lKvlvlLNshx13bHDu8jwwb0CNRuXYxp4mhNv2S0zHJrb5GV9jpl3EDp69YZx1uqtCX9CFn7uQBh6rlD5R9vLdZIk50SJ7ilaPldOgRiuSG2KNVNDLz8/BEyZ+4KzYyQ8RvnbNEZffJ0VUo8lbgmaoCCVC+77DKd3c0aaF8g6tdee03Wrl3rlkmc8PCYYDZ9+nSNxDnH2DU7k7FuO7Qw9v3zn/9cCTw9PT62/iOi7JE/Vr58yRitKp0lIEPTn8GeD4OKCjTi8pNyTsgajHF4LyxtOOTrAAAgAElEQVTOx9jhheqi46WrdExSUb0GS9b+vfPUsN/y5UkqflDbLoZ81KBeusWkV6rTZtxNPPJtsCV/c3Oy5MJzBjtHZNCJxwSw7TIOP+yM7jLUZfji3RbFlKhJW99www3aEIicKXjoDz30kEbG/jMR8n333aczv1mWxTpr0tks2+I7HxXzDMatIe4777xTZ3kTURNxhxYiaWaG4wTES8F0qwFPCJYRbwjf/zXkwZUVGRMCRsgN6ZLvEPOE8xFcfXrZv1h6ZWZ0sHXaVmxRTInaz+wONQAAN2LEiM/YBCZ4MVYdWtggheNkheVdVgwBQ8AQMAQMgbaOQGSnM7d1dKz+hoAhYAgYAoZAjBEwoo6xAuz1hoAhYAgYAoZAYwgYUTeGjp0zBAwBQ8AQMARijIARdYwVYK83BAwBQ8AQMAQaQ8CIujF07JwhYAgYAoaAIRBjBIyoY6wAe70hYAgYAoaAIdAYAkbUjaFj5wwBQ8AQMAQMgRgjYEQdYwXY6w0BQ8AQMAQMgcYQMKJuDB07ZwgYAoaAIWAIxBgBI+oYK8BebwgYAoaAIWAINIaAEXVj6Ng5Q8AQMAQMAUMgxggYUcdYAfZ6Q8AQMAQMAUOgMQSMqBtDx84ZAoaAIWAIGAIxRsCIOsYKsNcbAoaAIWAIGAKNIWBE3Rg6ds4QMAQMAUPAEIgxAkbUMVaAvd4QMAQMAUPAEGgMASPqxtCxc4aAIWAIGAKGQIwRMKKOsQLs9YaAIWAIGAKGQGMIGFE3ho6dMwQMAUPAEDAEYoyAEXWMFWCvNwQMAUPAEDAEGkPAiLoxdOycIWAIGAKGgCEQYwQSY/z+uH99dXW1bNq8RV6fPSs6dT1+XI7WHJXEhERpn5AQnXfG6C11dbVSU1MjycnJ0q5dcH3GmqNHpX379pKQGOzudryuTttucpLTp5M3qKXGydiuXTtJTEwKqogq1/HjdVJztEYSk5wtah9wW1RbK8eOHVNb5JQbFb2uX79O8rp0ada7gm05mgVB4xelpaXKrp3b5akn/tL4ha10lsayceNG6eIU2KlTp1Z6anw+5vDhw7J9+3bp27evpKamxmclW6FW6DMrK0u6du3aCk+L30dUVFRo2y0sLJTMzMz4rWgLa7Z161ZJSkqSbt26tfBJ8X07QQr67N69u2RnZ8d3ZVtYu4MHD0pxcbHaInQbjXLo0CEp7N2rWa9qd9yVZl35Bb3oyJEjUlVVpRFRNArv+/73vy/Tp0+XadOmReOVMXvHRx99JL/5zW/koYcekt69e8esHpF+8d133y1jx46V66+/PtKviunzV69eLXfddZc8+OCDMmLEiJjWJZIv/9nPfiZ5eXnyne98J5Kvifmzd+3apfq844475Nxzz415fSJZgbfeekuefPJJefjhh6Vz586RfFX9s+tcBiolJUU6dOjQ5Pssom4CIiIhjmgVvDkO3hmtBhMt2cLfQwNNcOn9jh07BlpW0mkZGRmBlhHdEnXh0PI3yG0X45qenh5oGdFnZWWlS+8nfiFsEfYWWXNycuJSr9EJE8MttH02BAwBQ8AQMAQMgWYhYETdLJiidxGTVPDqgjxm69EkMiHyIqoOciFjQAQW9EImiLkV0RrjixWeZILIkAS90C/pn/TToBdkZE5QtIY4TxXPhJ+6cqo32fWRRYBJHAMGDFCjF+TCxDmMAeOZaWlpgRWVFCITrAoKCgIrI4LVupmzTHkZNWpUVIeLog0qc1Z69uypR5ALumRVxtChQzV4CHLBFhEcIavO/I6zYpPJ4kwhTDDYv3+/euxB99oxeMy2xCFhfCioBX3isUdzrkMssDzqlqEha9CjsJKSEnUwgz4TGvJCn8gZZEeavsKKBSby5ubmxmWGz4g6FhbN3mkIGAKGgCFgCDQTARujbiZQdpkhYAgYAoaAIRALBIKbb4wFmiHvZHyHNDZjPKR1SZUxUcyP+3COz75wPvQaxvs4KNzDtf4avuf+8CXwfGYyBJN5Qp8dSSh4p6+rryfv87IgP8XXh/qBB5+Rwcvi63hix6cTzdKfD60/7+DwmEZj8gcpQI5QTL0c1IVz/AV3Xx8vl8cBGUJ16jHxOuUZXt9eXq9f3nti97bI7ph0Ml0ik5cLffo6+++oO8Vf15BeORfaJrxs4bJyTTQmo4XK6uvAX9oV9ff961TarccFjLg/tHh5wSFaY6C+bfq6hGIeKhffc03od8hCXfnet2/k4VovJ599/w6XlWdxXTSGtOg3vg02JKP/zteHunn9U2/k9N+FyurPIYO/viG9co42G0lZjahDW1gr/r9v3z758MMP5Q9/+IN8/etfl8suu0zHehjzeeCBB2TDhg26fphCx73kkkvkwgsv1PFaduz65z//KfPnz5fS0lI14EzmmDp1qpx//vnyn//8R95//33Zu3dvfY1pQDx78ODB8oMf/EB3TYpkw+HFNFDq+u9//1veffdd2blzp85uZiyWDT6oy/33369j7YzRMs51xhlnKB49evSQTZs2yYsvvihslOE3lWH3rttuu007zwcffKDPDi1ch5xf/epX5eKLL5b+/ft/5nwkPjzxxBPy1FNPfWYnquHDh8s3vvENrctf/vIXNWjf/OY3dWIcnfa9995T/aPXgQMH6nXz5s2T119/vb7T9+rVS3U+efJk+dvf/qbylpeX14uArOieNvHjH/9YioqKIiGePpP30NZeeuklWbhwoRw4cEB1SRtCl8jLNb/97W+1DX7pS19SXVLYKIJzkyZN0kmQK1eulDfffFMWLVpU74yNHj1aLrjgAunXr5/87ne/0x3pmDTpS1lZmfaDMWPGyI9+9KP67yP1D3MjZs+erTpCVk8sN954o2zevFnYjIcxS3RJ26X+bEKUn58v69atk7ffflv7pzfgTEKaMmWKnHXWWSrf2rVrtU37gl4hCvrET37yk4iP+dIeeSdtc8GCBfX6RU76IROn+P/ss88WNjahLyIrdUTftEl0uWzZMpk1a5buUMYz0TP65+D+3//+92oDQomSz9iASy+9VGbMmBEpFepzmaiJrh555BH9TDtirgTtljpQR3TNX+zFV77yFe3H2CrsKG1w4sSJQl/EJv/1r38VbDff0x69vaL/0qZXrFhRLw94oGPs8L333qs2PlJOmBF1hJoRyps7d65uS7dq1So11iNHjtRGxHcYXxoyHf3TTz/VjgCRY7gxAjt27NDduvr06aMdhAbBbkh0MBoPncobdToPJIDBoaGwfMRHOxESTx/LeyFajC4NnU5PvZiYgSxggBxf/vKXtdPTASAwjBoNH+NA5xg/frx2Kjo79UZGjmHDhn1mmRr3YDiWLFmikz6iNZkHOTA+oTtRYbAhMgwFhm7btm06q3vQoEGKAdsDstUkxh6dYyw5IDO210TvyOh1haxg4CMU/oLVmjVrFNdIL5FBNxgp2hQygC9tCcNH2b17t9Zhy5YtauAwdp6o9+zZo7rjXtrEq6++qrhgzHHSkMUvUUNmdrkCH671EdszzzyjxpXtKiNd0AlEihxDhgzR9kfBODMRDgeDNgxhoVOMOjJC7Owu98Ybb6jOzzvvPNUlsqM7/ofoxo0bp1tR+ugM+V9++WXtw8wUj0bfhJi844PdwAmjPVHQG3JBOjhV1IldENGvrzPtHYLDQaWtY5c4jyw40+gReS+66CLFDT1ycM9jjz2m9i0aq1ZoM9geHEfKxx9/rPoisDnnnHO0L+JooDPqDilTL2+Haae0W5wzrqM/Yqtotz4SR1bwQq+s3vCFe9555x29B+cH3UeqGFFHAFkaLGRMJ/BGCYMLUVNoBERefktJopjFixdrY6GjENFwDfdiDCgYUholDQKjzkHxM21xBjAsNEQfqesFESq8FwIjkqbj43QQdVEgVJwGjCGNmEgKD53ImUwATgkzZ5GJxo0nSoTNM+k0GBg6BwaCCItCJyPiBFeMA0uAorX7FYYVYgrfApT6cg6jAIGhAwgtfNkOdQcL6k6GAf1gSL2RQK/I6WVFXp4F+YMPRiiSy2MgJeqPMcOpAl8iXwqESrv0UQY68bpFz6H70WPYwOSTTz7RtnjdddepM0WbhhwptF8iG1/Q9/Lly9UhxQjSfiNdICGcKMj2lltuUaKm7uCA84CDDRmRwcLBxpGeM2eOtt3LL79cli5dquevvfZa1SX9Hfm4F335PosckBiEiHMJsRF1RzrTxXtpXxCrx5O+ii4pEyZM0PZMf6ROfMbWQGrUFwcaPCB3ZL7vvvu0DWKT0CXf+1UMV111Vb26aA8QJbrEIfX2rv6CCPxDnXGKOCjYDfSFfLQ/PqNntghFJgKDhvZo5xrs7k033aR44Nx4Mvf7WmCjfMEhARvaLvYNco8kUdtksgg0Hjo8HQMy+trXvqYKpIHQyCl0aCIVjB/Gm2sx+HR6GlOoJ84zMAIYvHAC5lo6H+k7nAKMCo0mGoU60UgxUkQlnqR5N9EYncETEt9hOOg0dGKMgTdsdHg6PnIgt99MItyYgRVZA9KOd955p5JhJDtGKIaegKgDB0TlI00vL50YEoKk0Flo8VEyGEBMyApJ45BgEELl8NkTvHvehdHAKYvkhikY2PXr16vxxVnwJI0M6BCniIN6olcOokPIx8vGtdQd3dKWaePoGIPGd0Sc4c4G1+DYPP744/oeMgeRTO97ndDOMMLoCz1QR/os8tPPaKehhQiM+nMdcqNHZKUNoEu+g8TCHUfkoy08++yzSs5EZDi10Wq3nxEi5APtGZ0T5UOoOFW0Rd9HSc8zpIRuqTdYoUuf4kaP4BFauJZg5O9//7tmZGhH0ciOnEzG0O9pj9ikK6+8Um0W9UR/oYXPyAA2yOrtETKEtwf0ir3FKQEzghTsWiSLRdQRQBePFCNLY0WBNBKMFVELxgFD/9xzz2mEiKGgM+P94dXSYUgzkYb817/+pY0eEqRD0XlCOwgdCO+RMTHGSzHqGJtoFOqNPERY4Qa4ofdjHDF0pBUZX8bbJlJ7+umntePgZGAwfHopnKgZwwVTPy4dqbGghupOx6SDMwZNgVTQlf/Md+gGPf3jH//4HNlgxDHQyI6euQ7ig5j4G5oKxfjj2fO+M888UyO4SBcMMIYbkqSuTRVSihgoZEUGXyAgHC1kIirlQFbkIGolYuY+X0hR0gfQ/w9/+EPVfzQK0TDtjX7385//XPsodUYuSCq84GST+mYoCt3jODFeSZ8LlQ8dh8rnnUuyI7SVePlhCwiJ/kgfJiPS0C+dEalit+iPT7g5GpA6WUB0iZ3BeQmVFYwY2sHx+t73vlc/LBKOZaw+40Rdc801cs8992h2Cwc5tKBb2ugvf/lLdTDQMfMSGL7B5np7BJFjv9E/w3o8D5xCsYiEjEbUEUCVhkCUTINGyaRFiFiItvx4LEbhiiuu0MgDo0ynYXIKkx3oDCie5/ixXAiZNBYTWrwxJV1O+oXnYzBpYJFuMB4uGiwd3k9AaQhGZMNYMWZFw8axwJhhFKkz4z5MkqLB+8wAhhujhoOC0ce7heDAAjIkYxAtZ8TLBJEyDubHqHESwqMFDBdj7y+88II6MDglvqAT9I08pBvJIJAOxbiRIfBpRZw5nBcmAPEsDHtznKCGsD+V74gm0BW4eqcBYiIVzvwD9Aa5+WiXv3xHREG7xrkg6kBO7scgomdkwQkg7ch1OJukfilkFrifcWLaPPI2RBinIkdzr0VOsgakdHGq6WPUlcwUqX/aI5//+Mc/apRMXTHGV199tfY9hmow7AzhIB+ZHnSJjv0v3hGhM58CZ4aIiz4dHoU2t76tfR19lwO941yFOor+XeiStnfzzTdr9EhqmDYNYaNL+iFE5iNQxmrBgwwijk94FNraMpzq87BTkDOOGLYG2xlayIiRxqdfk+X0ZIyz+e1vf1sdO3DC5j3//PPaJtA330cjaDCiPlWNN3E9BoyGTFqQxkHDxhgzJgZ5EzUQVZMu9hMgMGrMnGX2IuOgGEXGuTBeGAwOOjzGHaLHyBCN+IkTGEaMJ8+NVsHDJLpANpyMkxU6PDhQN4ydn02KJ48hII3KWCyHn3CFXGCAQeV70mnc6zMUJ3tXpL6ng1Kf8OgWXfuCfHRyog6MP7oOLRA9z8BTpy34cUtm95NBgQAgeAwDqVQcL5yVhoxoa8sJzqTWMU5eJq833oUjCYl6osbhgHQgKxxFDFvoz5TSthmagOxpu/QFxnUhBU/UfAcGvBdyIzMTLScTTGl/jEFDQDgjkBF9imwGUSHX0G7BBr2hC2Z08x1Opjfo6AzZONCbJ2qiaBxM+gn6jdYksua0DfTAgSw4FOi8IbKBbOlz6B1scEbQG840mEDUOHg4KpA0REjGi7YRLV02R16u8e0ZZ5E2S1BEm8XRoFBn2i3fYXOQB50yWRanhP6LY4NeIXn6MbYsWs6lEXVzNd2M6/zYDwYKRdMBaNQo2C9ZoDOHj4/4SQoYd57BNXRwSAyDgOeGwSO6xLDQ6X3n4DweezQMeigEGFgmcDDJBkONh+kjfbxOZEcWCJYUIY5HaCH1RifHYOB4EC3T+fke40fUyTmMHR2DSVgYjXgzAKEyQWCMgzFTlnSuj7rBgWiZgu44MAro7E9/+pN66eiWjAt6xfHifLQiMBwuiJJIkgwIjhdGl+iIKGrmzJkqT2jxE7/IlqB7P0GHto3ucVxwQNErwxz8hjOEyHkiGqJsUs84q7R/SCNahXbHQaHevB8ygpiYGU2ETZtkohkRU2h0SP3pnxCbn8RE+tuP86Nr5GOSJQ4ZGTCwiqYT3RSO2BYIhvaJzrE74EB79PIhB3LTbmnXODY4KDgr4MI96Bm5cTZpLzgk4SnlpuoS7fPUn0CAAAOdeKLF7iArnwmQiLxpEwRI6NMfZMzAgwwJeESr2GSyVkSazo+xRZG33367emNEg8zqvvvuuzWCpGGHRmK8HlKnkZBm4xl+9jAGnI6D4cSA8hnjjSPAM/kfEoTQok1gfiwSA0uKj8bvC50YrxRDHO6U+GuQB+eDKA6ZMQw4MxgOjALPJRVJRyH1hAfbnPHTVlTnKT8Kw0YHJgrDeSEKoaBb8CDSDpUfZ4SUOfrDocOD5zPkFU2DxzshJB8dMcxCQSe0VYxYePGpfkgLAkaPvq0yTEEbpfAdsvOXiVqQOsu3wAYiJ1qJJklTJ1L11Il6U38KfYyIkTZ2snbmSYzrvG65l//Bif4NVgwZ0LZJAeNER3IioFb+NApOMfsZ4DDR9mij3qH0GQI/RANJUbgG2WnnEBptHOLCyWQ4CxKM94IuyI7gmLJHg58Uil1GbtqB1zP2C5tEe6DdEjSAF8546AqNaMhsEXUrooyCSd/SkPGyQ9f54lXjgb/22mtKxETG3nDT0ImyGNPGWPpUN9EMXi6dH2NGOhRyJp3OvaToILxQjx8v0M9CbCid1Vri4hjw3m9961uasmfcxs9u5b14pKSLTuZAkHKj4RNB+mwActKRWB7kI0xSbZwnJenHpvkMIZJp8MsyWkuuljwHWYlWmEuA8wUZUDCApI8Zx0O/fiYt7QP8MHqcw3DwP+P2kDeFv3x36623auQXiQKeRFdslEP7/fOf/6wHBoq6gzuTakIL9xCJ41Qwpo6+uJY+gCwYdD4jK7qGtGjfGEYmUkLkEBzDRL7QxnEYiNgiWXB40Q0OAwTrI0nqiRGmXXpyCq8H8tFmSdt7+TDu4Ee7pQ3jXJKBgAy9w8JzwILUKroM7bPh74jGZ4ICxtwpyMPeDd5eYKsgInQKRtgh2jYHGNG+mWSG/pixT2EdvF+nzWfaDP0zdPmWXhjjggzYZvonMnsnFKJmvgRyeJuFfpn4SpuknTK5FyzoG9hg30cRiWExHJVI7e1gRN2KDccTCJ51eFqEDsouVXjxeHMUbwhRuF/ixP8YNTo/jcc3GgiYlAzRJuTEWDaNLDylRgqL7zz5taJ4n3sUdaVDY2Dp+HignlhIHSIzOz1B2OGFBs15H1FzHpLGYcHjxQGh4SMLMocSPv9jBMNlD39Ha33GKDUU4SIreDNWRYbBF8buIAOyA8iOnpGLrADGD4PNwTlk9JE48nOAp5cXPSJnJJ0u6o0z4FcdQLJ+ghh1QU/UH3kxSLRPfw/pTgqkzeRADDSRMvX1QzjIytg9zhvyEEX79DjnfOH/hnCuv6CV/gFP6kp9IB4MMnIiA+2Z4RraMm0stH7oBLlo2z574HXpV2eAETjSV3lPaLaAc/T9aPTNcKhoV7RjCg4fbQ494oAhJ9Ex9eJguAJ9+zQwfRFb42WFgLFHZM5oD1yH3pHPF28TwusR6c+0PWwL/dHrDp2GDiOhg/PcUBwZA4ZlvD1GZ1xHe0DXyEWmALxoy4xvcw1YhsqKTLSd0LbS2nLar2e1NqL2PEPAEDAEDAFDoBURsDHqVgTTHmUIGAKGgCFgCLQ2AkbUrY2oPc8QMAQMAUPAEGhFBIyoWxFMe5QhYAgYAoaAIdDaCBhRtzai9jxDwBAwBAwBQ6AVETCibkUw7VGGgCFgCBgChkBrI2BE3dqI2vMMAUPAEDAEDIFWRMDWUbcimPYoQ6AxBNhPmh968LuRsZaVNZpsUMPaz9ZYX8tmOhystWctP2ui2VyHDWJY6x66rje0ruw6xRp/CuvWOU63PProo7oOl3Wn4WvdWaPKGnM2yWETGNbisgbXb5JDPVlL/fDDD+saV783+OnWxe4zBIKAgEXUQdCiydAmEIAI2Qec3ar81pvsCQ2Bs1VhaIHQOE618A62XmXnOjbNYaMKjqaexbVsBcuOW2x+0ZLCNotsxwghhxccAnY/o444EbwXLNgJDFwgbjYTYQc/cLFiCBgCblc7A8EQMASigwARMzsf8Xu97ERHVPmE+61ffs2HiJrdkNgpi+vYuYtr2dWM3cz47Lcf5Tt2R+I6iI/z/OUzuy1BdL4QVbMDld+pCfLkHX6PY+4h6sVRYJ966sBB9O3v4XoO/1z/fqJzvuOdEC6FyLghguYc17IFI7+1zu59/FwkO5vxPna/Yktc/2MZoRrhO3YK47k4HB5HvwMf3/Ncv2c8O0SxqxTncQLYpxl8/M5iYIcMXI/cnPOyIbPPAvA9532deC64sCuV3zkutJ72vyEQKQSMqCOFrD3XEGgCAciK7RrZM5kfwuAnLtknG5KBtPhtZLbbfPrppzW6hBB9qpztaLmOCJg91omGIXZIJHS/4VmzZuk5foCBrS/Z45rfBmcPZ8iJZ7CNJNubEsXiEBARs3Ui+5DzPj5zD9u9Uti/mZ8zJL2Nk/DII4/ozwbyPBwDfjWqoR9ogMzZVpV9sO+44w7d+9sTHgTY0D7JkCQk/qtf/Ur3wId4uY5f9mIrS+5jH2Z+4YtoHHJla1aw4/k4Q7Nnz1acwIatPvkpSuoPnuxVzQ/KQMg4AMjMT8nicJAVII3PVr4Utot94IEHNDUfye0im2g2dvoLiIAR9RdQ6SZy7BHw0SXkw17DRKeMJUNkd955p5Iu3/ETn1zLjwMQ6XE9Py0K4UBy/GgJaWN+rQ3ygOgZ+/WpbqJJzkPAkCo//AGxzZgxQ/cn5jr2vfZ7QfOZaJ99odnjmx8i4BmQG+PWkBsExg8a8BOOED4kx97J7P9M2hxSJwIPLzwHBwRy5Qgdv4Yk/X7m/ocSuB8ZcSb46U9ImugZQuaX6ag31/KThRD6ddddpyTKcznHdxA0f++99159FudwMIjQ+XEQImtIHfnBCfyYO8A1/AoW+0TjrFAH6kfETV2tGALRRMCIOppo27u+0AhAuJDN66+/rlEukTREwwQqn8omyuZHHSAcfn4Q0oOYIHPIG6JbvXq1TvyCICFGUttEiBAI5/mZyfDCuzmHIwBZTZ06VSNTiA8Cg7ggWqJOomGiVerGWDL3Qt6QOGTPZDXID9KG2IjGmfTFDyLgSDz55JMNjonzLsjak15z0sdcg1wc3MsBHoxzQ7BMzPM/YINjQzTNd7zDp7bByZM3DgI4ggN64JeRqDffcR2OD7LyDD7zHMica/ixDp7TnHqH42+fDYGWIGBE3RL07F5D4BQQgOggasgNkoSUmdlMqhXSJlqDaCAESIeUK9Ev48mkn/kO8iTa88TrSZRzRIJEkpwPJxPezTuYYY0TwLsp/qdDGxKDe0hjQ1gQtH8m31NHCBJixkkg6oTE+EUqyLCh1DBOAFEp6Wk/7tvQe0O/IxOAM0J0S134TLRO9Eu9qD8/MUndGGNnrBpSxXlARvAk3U9mgJnwZCIYAqAOROLgySQ27kcudMCBfkj/46h4R4BhCp7b0K8nNSWHnTcEWoKAEXVL0LN7DYFTQICoEAL4xS9+oYTmo0VIjWiXv+HECemyfIsUbOgYLtdCVkS1kSyQFylufkPZL+3iO0iXVH24Q9BYXYhMcSSIZiFZnIym0shEz/xOMPgwLs2SL7IJ/M+7fcqe3wjmd6RxgpicR1aAcfkbbrhBf4aUSJnfXYbwif4Zl0eO7373uzoPwDsWfIec1AvsySxwL7+1/ISb+PfrX/9aI24ibSuGQLQQsMGWaCFt7/nCIwCxcEDGRL/8hRRORnaQGpEr6W9SvkSjEAlpaiJCJjdBmEyG4jNRL1EnUTjXhRaIh9Q20SGRJBO0iGr98ijOExGTnvaztqkXqWEcAsa9qTMH78FBoP5EqLxz48aNGvkT1RIBE/mGF0iVyJvIlnFu0te+nkTC1Iu0fmihLjwXkic9TUYC+XgHMvOZCBsnhnF1xtKHDx+uE9aoI/cztg7BMy6PjETQ/CWbwbPICnjZwJb3UX/kJiJnZjrETjoch6Gh8fdwWe2zIdCaCFhE3Zpo2rMMgVZEoLCwUNOvzFp+6aWXNIojCoWcr7jiCuE8US1p8ccee0yJk/FjSCec/PkM0ZC6ZXyc6JDn8SwiRL6HlJlsxmQ1ZniPHTtWCQryJBJlYpaPpiFoiI5oH8JlUhkOAwQHefroO9o4GfUAAAHLSURBVBQO3kVanIlhzGLnPUTBfE8KmvpRh9ACOZOq5t3UjbpD0kTAHDgNOAmcx9mA8HE+kAeZmY3Oem2upW6kw8GNiXRMPoPQX3nlFZ0PgGxcB+FzHVE0DhKYQ+7UHecJfK0YAtFEwIg6mmjbu77QCBDZTZw4UaPD8MJ3pFp92pXzkAIpb9K/EBuRHue7du2q0TAR9YgRIzSVzHmeAQEROXMNETjXQH6Mu3KeiWoQIxutQEx8B0ESYRKJQoQQH4TPUiuWOEFeEBnRMqRFVAzZce95brY39SNChiT5/uyzz9ZxYt4TXoiqIXeeCYlC8sjk6w5GECwT7MADeXBWeDdOCRhwzUUXXaTRLuRMGp33eyeCOvjJcpA62PhNXyBh5gSAB+u4+R6Ziaq5n2gfQudALiJu/sepGTp0qGJiae9wrdrnSCPQzjXOU9/+KNK1sucbAoaAIWAIGAKGgCJgY9TWEAwBQ8AQMAQMgThGwIg6jpVjVTMEDAFDwBAwBIyorQ0YAoaAIWAIGAJxjIARdRwrx6pmCBgChoAhYAgYUVsbMAQMAUPAEDAE4hgBI+o4Vo5VzRAwBAwBQ8AQMKK2NmAIGAKGgCFgCMQxAv8fZykEfoCQ83UAAAAASUVORK5CYII=;" vertex="1" parent="1">
          <mxGeometry x="-60" y="110" width="490" height="463" as="geometry" />
        </mxCell>
        <mxCell id="4l4AhPd1liksvzsvpT19-2" value="" style="shape=image;verticalLabelPosition=bottom;labelBackgroundColor=#ffffff;verticalAlign=top;aspect=fixed;imageAspect=0;image=data:image/png,iVBORw0KGgoAAAANSUhEUgAAAewAAAHdCAYAAADfDEpoAAAABHNCSVQICAgIfAhkiAAAIABJREFUeF7svQd4Xdd157tIgui9gyAJkmDvvUikumRJVrEkS3IcZ2Q7yZuZ50ziFzvx57w8P9vJfJ7YGc/zxI7sTJzYHjfJktU7KVLsvVewACzoIHov5Fu/BR7oAgRoUCKIa2ptffcD7z3n7PLfe6//avtoxEUt4sURcAQcAUfAEXAEwhqBkWHdO++cI+AIOAKOgCPgCBgCEY6DI+AIhBcCp0+flhEjRkhycrIkJiaGV+euQW+ampqkvLxcmpubZdasWTbW4uJiqaurk9zcXImPj5dRo0Zdg5b6r6K1tVXAePTo0ZKamioJCQnWl7Nnz0pmZqakp6f3/6D/6ggMMwJuYQ/zBHjzjkAoAkSofvrTn8rPf/5zOXz4sF3it66uLvtcuHChF2DBNX7/fYluFRYWyg9/+EP56le/amOivPDCC/LNb35TDhw4IC0tLb3GeK2/lJSUyLe//W15+umnZe/evUbWR48ela9//evy3nvv/d7geK1x8frCHwEn7PCfI+/hRwQBLL9Tp07JiRMnzLLG+uzs7JSNGzfKF7/4Rfnc5z4nL730kmChBqWoqEg+/elPy29+8xspLS39vUXqk5/8pPzd3/2dzJs3T2JiYq7rOGJjY2XSpEmSkpIiZ86ckYKCguvavjfmCAwWAXeJDxYpv88RGGIE6uvr5d133zUX7dixY+1vR0eH1NTUGIljBVKWLFki0dHR5jbGGt23b5/cdNNN0tbW9qF6iJWOe5rP9S7Z2dnCZzgKOOKGnzNnjik94Dlt2rTh6Iq36QhcEQEn7CvC4xcdgeuHADHc1atXy4IFC2T8+PG9GoZQINKAuOPi4swi7Ftwi0O8uJ3LysqksbFRRo4cKRkZGVYnMVuu09bx48fN/UtdxJCx6vl3oAjQHkpEe3u7EdrMmTPNuqfeqqoqqzc/P19ycnLsOQrXqOv8+fOmbBAnhojHjBlzxdgw46LOyZMnW+we5YQ4c6ibn37TDgoLf1FWKioq7D68E7TFOLGWuU7/6DsKD2MFi8jISHOB47kIrZsxL1y4UH71q1+ZWx6Ln+e9OALhhIATdjjNhvflI40AhLJz50655557LPkptEDOkBm/v/nmm5KWlmbE1rcQE4aMn3vuOVm3bp0lUkFkkNEf/uEfyvLly434jxw5YnFciGvGjBlW59y5cy3pizpwzVP/yZMnLUFs3Lhx8td//ddC/Jc477Zt24z4P/vZz8pDDz1k7nsIcNeuXfLyyy/L9u3brR8Q58qVK+Xhhx+Wu+++e8BkshdffNH6+6UvfckImf7/7Gc/64nZQ8gQ7YQJE+SZZ54x5QOl5K233hKeRUFAqVi6dKn80R/9kbnW8ULw++bNmy1mDhYklOXl5VldKC9BgbCnTp1qXgrCDPzl+eHwNvSdU//uCAQIOGH7WnAEwgABiBPCxiULUSYlJV3WK6zZ22+/3Yh28eLFMn369MvuwcIlng1h3nXXXXLrrbeaVUyC1WuvvWYEePPNN9tzDQ0NRkxYv5AgBIU7+JVXXpEdO3bIl7/8ZfnTP/1Ts5ifffZZ+da3viWzZ8+We++9V/7zf/7PsmHDBvtAfBA2BTf+Y489Jp///Oft38SDSaB7/vnnTeGYOHHiZX3u74cvfOELpmAE5fXXX5f169eb8oHSUllZ2aMYoEhA4FjamzZtslj4P/3TP5mSAQ6MfdmyZfKVr3zFrGb6zPVQhQdiRilCwcAiRzGhTtrz4giECwJO2OEyE96PjzQCuI+x+vhL0lVUVNRleEAoWI7Et3EZQ+CBKzq4ubq62qxl3OpY08RlcR3fcccdRmYQckDYkDcECrETs4W0sFppmzZQCmgPa/7YsWPyk5/8RB588EGLl2OpkqyFhQuhQ/w8Rz1Yq/SL77ioscZRJCBvSHQwhef44NLGG0AyGIrFxz/+cVMEIF2IFQVixYoVRr54B2pra2XNmjXmIaBPjAfF5P7777d78QJQJ67vvmRMvwPcCQWAjxdHIJwQcMIOp9nwvjgCisBAbljIhHgxruXdu3eb9Qh5hsZisdIPHTokTz75pLmPg+Q03My4nM+dO9eDMfFciJnYdEREtyjAAoWIeZZruJmJbfOde3AnQ7q0icXM/VjwuKzpH32HLLFQUUC4L/g3xB4c4xrMREO4PMuRL8aFArJq1SojWmLejIW+vf322z3VoVjQLtfwWkDg3IM3IvBaMBYUFbDx4gj8PiHghP37NFve1xsWAUgIouQvFjFkBaH2LdyDlQtZHzx40Ag01BKEECE3yCiwFiFRiJf7INagYMlTX0DWwe98x4oNXl4CKVMXVjP9CxQK/s01iBGrlba3bt1qFi59w0qFsEkMg/wh9lDlou/YQr/TV54j/vzOO+/IU089Jffdd1+PR4G6UAxIVEN5CQrPBa5ucKRPQQJacA/jgsT7jpt7wZ0+Mn5POrvSDPm14UDACXs4UPc2HYE+CEAekCpuX6xCyA7S6Fu4D9fvokWLjBRfffVVI8ygQKK4sHkeUsOtDImRfBW0Edw7kCXft83BfKcNyI54Mf37q7/6K3On0+aPf/xjs/qvpmAlQ9b//M//LI8//rjF7kMT8SBlXOFYzmR0hxbGhSKCO3z//v1CmCDUsifsgDIANkGBpHGxgxnKDmPoS+hX03+/1xEYCgT83MJQoOp1OgIfAAEIGtc1CVUQykAFC/GWW26RrKwsWbt2rWVjB4QEkeE2Jm5MvBrihqzJ3MZi7y9RbaB2ruZ3CA8iRNlAaeAoF4oD4+BIFa7twRbGgpubF8aQ3U4IAAINtXhRWCBWrGvaRNkJjrnhDqcvhA/4QMIcl6MPuOXJxCcHIPSNarRJP/Ek4LUI3PuD7bPf5whcDwTcwr4eKHsbjsAgEMBNSwIYr8skyYrEsYEK8WM+EAtu7oCwsRofffRRs7w5fsWxLMiL+iA5FIKhKFi1EDUEi0ueuDOEi/WP5Xo18WIIFpc/iWWcqSZDPHiejHRc44ydY2hY4RwBC9zetIdCg7KARU72OrFvFBsIGcsb4qaeUAsa/CB/lCYS9dwdPhSrxOv8sAg4YX9YBP15R+AaIUBSFK5fji9xZpjsZuLMWM0kSYW6cLEoISzi2RAzFi3kjZXJOW6ehTCJJ0OkkDWZ4hAY5AQxce4YyzW0oDSQVEabQQyd5yE4sqxDX9YCSZMVzvEn2qavHOkiS51YNqRHH3mOa/QxSGrjGfoRuOWxhKmLfkG63A8J487mOFpQsH7Jcuf+2267ze7De4AlT30QNUl0FIib8fLqVs50b9myxfpP0tknPvEJI3TGy3MoGbjP8UDMnz//Gs2oV+MIXFsERqgry/9/2NcWU6/NEfjACLAd//7v/96sP8gb65D4ML9DbqGWH79xjQ/kxPWAAIPfg+eCZ4PrwbMD1ckAaKtvffwW2gfIlXuCBLWgr/wN6gjACNoK2uZvYOWGjoP7g+99gQza4i/Ph9bFvfwetBP0nXsg5VAsgnoZC2SNi/w73/mOPPHEE6Z0BM/2bd+/OwLDiYAT9nCi7207Av0gUKRv2oIwBnqBSj+P+E8fAgHIHDd88L/XDPVkfIhq/VFH4Joj4IR9zSH1Ch0BR8ARcAQcgWuPgGeJX3tMvUZHwBFwBBwBR+CaI+CEfc0h9QodAUfAEXAEHIFrj4AT9rXH1Gt0BBwBR8ARcASuOQJ+rOsKkHK+c//+A5f9Dxau8IhfcgTCAoGKav3/WHd0hUVfhrITUZERkpFy+RvhhrJNr9sR+LAINDU12lFL/rezV1OcsK+AFm+L2rlzlyxdvuIKd/klRyC8ELh44aI8+9o2Ka2qC6+ODUFvxmWnyhP3Dc3LYIagu16lI2AIbNm00Y4ZOmFfwwURH58gq269Tf7mb792DWv1qhyBoUWgs+uCbC75rlQdLBrahsKg9smLpsg3/u4vwqAn3gVHYPAIfP1rf2uv073a4jHsq0XM73cEHAFHwBFwBIYBASfsYQDdm3QEHAFHwBFwBK4WASfsq0XM73cEHAFHwBFwBIYBASfsYQDdm3QEHAFHwBFwBK4WASfsq0XM73cEHAFHwBFwBIYBASfsYQDdm3QEHAFHwBFwBK4WASfsq0XM73cEHAFHwBFwBIYBASfsYQDdm3QEHAFHwBFwBK4WASfsq0XM73cEHAFHwBFwBIYBASfsYQDdm3QEHAFHwBFwBK4WASfsq0XM73cEHAFHwBFwBIYBASfsYQDdm3QEHAFHwBFwBK4WASfsq0XM73cEHAFHwBFwBIYBASfsYQDdm3QEHAFHwBFwBK4WASfsq0XM73cEHAFHwBFwBIYBASfsYQDdm3QEHAFHwBFwBK4WASfsq0XM73cEHAFHwBFwBIYBASfsYQDdm3QEHAFHwBFwBK4WASfsq0XM73cEHAFHwBFwBIYBASfsYQDdm3QEHAFHwBFwBK4WASfsq0XM73cEHAFHwBFwBIYBASfsYQDdm3QEHAFHwBFwBK4WgYirfcDv/3AInDhdIeu2H5WdB4vk4sWLsnTuRFm1eJpMnZDVq+ILFy5KVU2DPPP6Dik8VyntHZ0ycWy6/OGDKyQ1OU4iR4fv1FVWN8jeI2fklXf3Stulfq+YP1luXTrtMvA6O7vkrY0HZcvekzreRomLiZRH7l4k86ePk/i46MvuD7cfCs9VycZdBbJp9wm5oPO5cOZ4WbVoqsyaktt7PvVaY1Orzud2OVZYJi1tHTImI1nnc7nkZCZLVGT4zue0idny4B3zZfqkHOnq6pI1W47Is2/sGHAqls/Ll1uWTJVJ4zKkQ+f3bZ3frftOCesi3MuZ0mrZqmvx3a1HbH/OnjpWVi6cIgt0XkML19iT7M+Dx4ulqblV92W8zWdebrrERI0O66F2XbggBboOV28+LIe0/5GRo2XpnIlyi+7R8TmpvfrOvWeKz8tv3twp58qr7dqsybny6D2LJDUpTkaNCl+7r6SiVnbsL5Q3Nhyw+WQN37RwsiybO+my+ezUtf3CO3tkz+HTUtfQIvGxUfJpnc+pE7IlVuVSOJRhkRI1NTVy9OhReeedd+T++++XGTNmSFRUlNTX18tvfvMbaWxslOjoaBkxYoRERETIokWLZNq0aRIbGystLS2ydetWKSoqsn8zCfHx8bJ48WIZN26cHDlyxOrmGoXrfOrq6mTq1Kly1113SXJystV9vQv9gKzPldUIQpBNfaCgWBd9vGSnJ0pifExPl87XNsq+o2eVrCtkTGaKiHa3qaVN3tSFd+8tc/T+pOvd/UG1xxgLispU4B2VcTlputBHS4UK6k17TiiJjZHkhFid01FWF2R9+ESJERizMXfaWGGDQfYQ2BIVIOFcGOtmHRdK2DTd1DHRo+W4/pt5HJudIkk61qDU1TfrXJ+Tk2cqJD0lQcc3SmpVKKxRYrj7ppkyfkxa2A61q+uCEdLZkvMyb8Y4ndfeAj3oOHOYm5Uic6bmSpoqlbsPnZaUpFhTXjq1jjfWHwjbMdIx5nPngSI5cOycTM3LkhgV0kXFVbJbBfgEVZaTE2J65EaDKl+s3RNnynWeY3TcyaZgb9hRYAQ2RZ8P59Le0aXzcdDmdUb+GBkxcoQpzdkZSUbCkFVQyqvqZL+u3aKSKlvnre0dgnxas+Ww3H/r3F5yK5zGzHzuVxm640ChzQf7E9kLgfOd+Rw5slvZaGntkMMnS+S4yq6Y6EiVuclSquNGeRut8qqvAj5c4xwWwi4uLpY333xTfvSjHxnZpqWlSU5OjkDkv/zlL42kIdcLqtnV1tYa+UZGRsrkyZPl0KFDsn79eqEO7kPjh9xzc3MlKytLysrKjLAbGrq1+Y6ODjl9+rScOXNG7rnnHlm1apVtzOtN2Ag9Nvn+Y2fVUs6Qpz5xk8Tppvja/3xRzpSel+Lyml4Lv7SyVnYdKrIN9PCdC0zD27T7uPz6te2yePbEsCXs5pZ2OXW2Uk7r5v6PT94qmaqIvLp2n/X96KkymaeWc8Ilwm5Xwt6676RZYWi9ty2dLvsUn+dVk4+LiQprwsYD0tDUYtYJG/yPdD4R3P/tX16Xs2qlnSmpljnT3ifsShXmkHuKEtn9t8yVzNQE2bb/lPz61e1qrYwJa8LGMn5v+zG5qFIqOfH9MV0mtFQJnqljSU+JN8Xl33+7UcZlp8qfPHGLzvt4s+ZQ0qgn3Aoygf159FSJrUfmE8XrB7941/ZmkXq55k4bp2TcrejXqgKG8s06vWP5DPMm7FKvGftz0viMsCZsxlejhLtb5ctdqiw+fNdCaVMS/n9VFqGg4MmLH5/ZM0VF587LESWzSfr7E/ctkRa9971tR00Bu2XJtLAl7MbmNjUeylUxbpY//w93WT9/+uImlU3nTXFmPqMiuwm7URWX9TuOmTFxy4LJZjzsPXrG9icesI80YZ87d072798vc+bMkZMnT9oHwqakp6fLQw89JE899ZQR9UsvvSS7du2S7du3S2ZmpjzzzDOSkpIin/3sZ2XlypX2TGFhoRF/RkaGPPLII/ahsAlRAn74wx/K2bNnZenSpZKdnW3Xrndpa+9US6zcLEfTYtV9htCfP2O8lKpVycJC0w0KQhLLDcGRnhovSfGxMlk3EQTB4hoOpWMwmKGV4gkYk5kkWTpOvAh5aj0Wqyttx4FTkq9jSLjk6kZ4o8AsmJlnrqroqEhZPGuC/OS3mwSFJVzHCA70/ZQKcQR4jo4TkqLMVmuSEMYRFfxzdNMHpaauWQ6qN4X55P40nf+ZOt/H1UKra+z2FF1vJXIw88k99K9R5zQrLVEt5a4BH8NphWBrUqXtoFpkKKkQQKu6/xPiosy7cr6uUS7qug+3QjgDQc6ay8lIlAxVqCgz8rOVrErNE8bYAvdvvZI7Ya0/evgm8zhglbKXv/2vb0h1bVNYr13250lVqhPjo00WpagShrKCR6te55o5Y58GpaSiRsp0X3/moRVGelnRiVKg4RxIvLWtPWzHeq6sWpWvTiXcJMnUtUvBsm5SIt+jXjxkThCKam5tNwPpIQ39oHwxzuVz8+V7P11toZxwkUXXPfjQ3t4upaWl5qL+4he/aG5wCHugAmljSWNFY01XV1erqypG4uLieh7BuobE+xbIevfu3bJu3Tpzmd955519b7lu33EJnq9rkli1xojTUhBwWCwICzZMaIHgEQqpiXESNXq0um66wwNY5bikiA2HYyFOiyKSov0Ogg54B2LVEjmvggyiCwr31dS3qMspQgU67kYxgRh9Kf6HYAnX0oUyqCQcpbG/UPchVjbEW9fQez6Jd9aoVZakgoDxdYd7RklcdJTFQlt1vn/fywidccYHUSP4g8KawKpjrY8chlDUYHDV6TRLDAsrQccQFNYlv3GNe4LCeMi5YO7Z08F84m3pUDlFjkK4lg51h9fUN9k4Y1RJpiBfMCJwlaNwhZZmdRfzIZQDFriRR2sODQo2HjWwCMeCosm8YOwEJT422vYse5fYfFBMPtc0GR7IKp5DFjGf3Aehh0O57i5x3NOQ9aRJk2ThwoXyyiuvGAlXVFQYHrjAX331VcEKh6xxga9YsUJmzZplRA3x7tmzx1zcO3bskPHjx9s1rG+IPSi4wg8fPizPP/+8LF++3OLg3HOlQlwcyx+XOmXnzh0yc/bcKz0y6GsaSTeyYrGPuhQ34eGIUd3xXIRcaIHM+C0iYqTFlyj84XmuhaOVQh9Z3GijbOxANtNnPmzsvrYVmAREzfNsFIQH93V19b3bYAiPomNkk0NAoUk39m+dJ5TL0IJSxv1cD0irZ6w2n73nPzwGefW9YD3bWg9Zz91rQtf6pVDI1dd6fZ7o6rzQI6iDFpkv5ilU0eQaa7xT77f5vLQ/bR3rOofY2aPhWmwt0nfbl92yBWULWcO4LpdFF+SCziex3GBP85c93cXaDdVkwmjQNg7tZwR78lKx+dQxm6coZIoYA4pWt3y+hMklWcR94TKf193ChkRJKluyZInFridMmCCQ67FjxwxS4tbNzc1G3Hy6F1CXCUCSzm677TZLLoP0sZ7Xrl0rL7/8shw8eNDqCQpWO670yspKS2xDQRh1iRx7burzD54Pbbutre2aLUaENJYVCyXQSFkvxI7YLH2zvllYkaNHmTuRzcKeYHPwLNeMGMKwYC0j4Oh3sI8Rdnxwj/eysHRfROlvbIaOSx4Dm28Ep44NARGuhTFGa3gDoYDFEpR2LGWdq8g+Wd8IR+7HmobMAqHeAemH8XxeDf62nnUPMcehWe+sCYihjTVxNRVe53vpM/LH5vBSYb74rW8WP4I9WpOYmHvIj2LrGKVcxx9KEtd5GL+zuVE6F1FR769FHmDfsWe7refe+w5Fiw9eAzMW9N5ug6LL9ijPhGMxmaoLLtQbiZxhz0arlc0eDgpzhnwKlc+BYsN9KDPhUK6rhc3Cx2KGRBcsWGBWNbFrMrshV0g1NTW1J4aN+3zDhg3ywgsvyJo1a8xKxpqeoCR/6tQps7Qh7X/913+1WHVeXp4pARAtbnDqJdFs5syZkpjYHcO4EuhTpkwRPp/61Kfstm9845tyrYw8NjBxsRZ1reD+DtwxxEdYN8SRQgtuNn4rP19vMbLRSt48C3mzsPoS/JXGdT2vJWlcjLFWq/ufxX/xYoSNFxcpme2MIygjRygmGvvFxY+LDpdbc2ubCT3qIKszXAsERBwaYcDYEAL8RvYswozM/9ASrQKSXATcqLgRcbU1q8vfkiaVKHDT/f6Xizb+SCXoYPwIdNzGkAQhgXD1DGFopmgcmnnElRrMZ42uY0iZtRuqbEbpOuZkB+u2QXNKGGP3fF4wZa0vwYfT3CI70nXtkjRJPBe5jBJJNjinFxI1DBBaGBsfku9IlkReEbuG0FjH4apYIz9RLkgQDOaT0EarytEsnU/WZFAYQ5bOZyCryLcAG2QYMguCD4dy3QibRYFlXVBQYFbxpk2b7ChXU1OTarTtMnv2bPnkJz/Zy6INjnSRaEbSWFCwtDnmBXFjPZs7QzV7SJwjWxs3bpQDBw4YeT/++OOWkDbcBYE8eXyWkm6nJZmdV8FNYgNHXyZrIsRUPeYVWiD3KXo2m8xijvywkI5r0trc6WPD+nxytiajkDlbUl4rZZV1ltTCWWU+//HJ23rFe0er1jpfs4dPa5b8IT0iM1Yzirfped0EJf0xejwoVAMe7vnr2z4bnOQUrCuOonGkB4G/T48EEccl8zu0ENOfo2d6OSLEkS8EwcHj5+x4X+jxr77t/D59x2tAYh1nsOfpOuVkABihYNaooKxrbDYhH45lhFqJE3I5WjfC1m5Fdb3lYbAusbjJKB55KUOc/rN3ObdMQhpH2SJ1PZCElqd1cKQtnNcu+5OkMvIsSO5EucaTsHXvKblzxUzLEg8tjI9ESY5x5et8kn1drGueBMsg3yQc5xR5gnenpLzclBH257HCcqlU2XufntQI9YKRZ7NET98gp3JUhrGHt+gJFuRXt5LyPrkP51ivG2FDyljDWLqPPfaY3HLLLT3jxoomEY1Ydqdm9QUFkud3/hK/po7CwkLLBqceEs9Ga0IWsW6+45opKSmR5557zuLVd99997Cdue47qVhfWIy8PIQM2n/4X69b4gauJl6agtLB8Se09knjMpWwkmWZvoCCF238+/MbzGpDM37yvqWSlfq7vQV9279e33HjT9fs5/n6ooWnf7XWwhDMHxmZE8ely3Y9A4k7n+M+vKCB41zV65pk3bZjdg1rdYFm2y7UzPFwLuYSVyKi/2SXkh2McGjX9Tt14kQTBi+v2WMbnmN8ZKneoi/IeeaN7fLLV7b1xAIfuG2eYRHOBeH+sZWzVIHMVqE2wRJwUEAhZCxmsMBy4b0BnE3mzPKiWXnyzb94xBKyzqllxnnWcIkD9oc14pgxLdEXGW1RJfk7P37TSLhDFbJFs/PsyN6beoyJxKwJ+mIUyBxye0ZfIPP8W7tsTUPsty+bbvs3nAt95aTGx1bOtnPkHEXkt8y0BJNFnELhyBayKF+NDNYvVupv3top//S/1xi5o2Q+qi84Sgzjlxvh5SBzn7X5j//2pslbPAmczmCsa/VdEbyciVMseL9u1+N5z7+9U15dt0/e2XTIjKQVC/JNdoVLuW6E3draKps3b7ZjWySB4aoOCkL97bffNqubc9Qc4cKKhryxrHGTz5s3z1zduLlJNgsSmSBxCu5wzmpjXfM89x8/ftzqCwru9+nTp5vlPRwaMG0un59vwpwjEcRXZuTn2NlVhD+/W7KWkjtuKXsrj54JxIIjBsx5QL4nqvAI18IYOa95p57v3LizQAmsS9/olWRHnHoypLXzHIdCSLBZFulRLpSROt1Y2UpsHC9BKIZ7Yaz0Hfc958cvaihz6sQsmadjRSD2zKfeh0uRa7wFjHP3nALgKBhvgOPNdeFccCfixq/S8M16nVOUS9y/uIqxmCG7II5bpS7xPYfP2HCwzHApb9fz5liq4V6YT87f6p/uNxHqfObrmWp7d4DOJwTQHbPtVr7xgPHGrFNnK9Rz1mFWN0p2lpJBuBeUy1uX6cuo1LLkvQm4fTlWOjkv0xQPFG9kEV5jjqwho26umKzWqb7fQuUWnhPe0kgcP1wL84l8ZY1u3cubCJUnVN7g/WGuiOMznxbTV/mD9wAr+5i+PAV3OOt3qc4vf8OljNDNd118VFjP3/rWt+zs9c033yz5+fk9GJAwxstQggxtiDeIOeMWf+CBByzZjN9ee+01uxcihrSx3jiPjTUNyf/sZz8zwuZa6NEvGiMr/ROf+IS9lOV3JaBxfxDD/pu//Vq4zJf3wxH4nQhgRdz7J9+1F3nc6GXloinyyg//4kYfpo/vBkPg61/7W3XRJ8hXvvKVqxrZdbOwOSf9zW9+04gy9PgVveXVpCR7kYDDB80o1ALG7c0z/IY7/eGHHzaiDgrXuIfrX/3qV60OSmgdfKdt7hsMWfdU7v9wBBwBR8ARcATCAIG9ARS9AAAgAElEQVTrRtiQJ3Ho/goEOlgSxfrmM1AZqI2B7vffHQFHwBFwBByB3wcEwuNw2e8DUt5HR8ARcAQcAUdgGBFwwh5G8L1pR8ARcAQcAUdgsAg4YQ8WKb/PEXAEHAFHwBEYRgScsIcRfG/aEXAEHAFHwBEYLAJO2INFyu9zBBwBR8ARcASGEQEn7GEE35t2BBwBR8ARcAQGi4AT9mCR8vscAUfAEXAEHIFhRMAJexjB96YdAUfAEXAEHIHBIuCEPVik/D5HwBFwBBwBR2AYEXDCHkbwvWlHwBFwBBwBR2CwCDhhDxYpv88RcAQcAUfAERhGBJywhxF8b9oRcAQcAUfAERgsAk7Yg0XK73MEHAFHwBFwBIYRASfsYQTfm3YEHAFHwBFwBAaLgBP2YJHy+xwBR8ARcAQcgWFEwAl7GMH3ph0BR8ARcAQcgcEi4IQ9WKT8PkfAEXAEHAFHYBgRcMIeRvC9aUfAEXAEHAFHYLAIOGEPFim/zxFwBBwBR8ARGEYEIoaxbW86TBC4qP1o77wgFy/yrxu3jBo5QkaOGHHjDvDSyC5cuCjRkRESGxN5w481KnL0DT9GH6AjECDghO1rQRpbO+VbbxyV8vrWGxqNm/PTZP645Bt6jMHgvvF/fVKkq+uGH2t8XPQNP0YGiDJ9g+vTNo/o0yM+Akr1B120TtgfFLkb6LkutchOn2+Ss9UtN9CoLh/K5Ix4aWzrvPzCDfYL8m7m2AyJj7rxt/dHwWNygy3PKw4HpcT5emCIPIY9MDZ+xRFwBBwBR8ARCBsEnLDDZiq8I46AI+AIOAKOwMAIOGEPjI1fcQQcAUfAEXAEwgYBJ+ywmQrviCPgCDgCjoAjMDACTtgDY+NXHAFHwBFwBByBsEHACTtspsI74gg4Ao6AI+AIDIyAE/bA2PgVR8ARcAQcAUcgbBBwwg6bqfCOOAKOgCPgCDgCAyPghD0wNn7FEXAEHAFHwBEIGwScsMNmKrwjjoAj4Ag4Ao7AwAg4YQ+MjV9xBBwBR8ARcATCBgEn7LCZCu+II+AIOAKOgCMwMAJO2ANj41ccAUfAEXAEHIGwQcAJO2ymwjviCDgCjoAj4AgMjIAT9sDY+BVHwBFwBBwBRyBsEHDCDpup8I44Ao6AI+AIOAIDI+CEPTA2fsURcAQcAUfAEQgbBJyww2YqvCOOgCPgCDgCjsDACDhhD4yNX3EEHAFHwBFwBMIGASfssJkK74gj4Ag4Ao6AIzAwAk7YA2PjVxwBR8ARcAQcgbBBICJsevIR6UhldYMUFJXJ6eLzNuK83HSZkpcpmWmJvRC4ePGiNDa3ya6DRVJV0yhdFy5IWnK8LJ07UeJiomTUqKHTtSJGjpDUuEjJz4yX5JjR0tZ5QUrrWuT0+WZpbu+6bKZiI0dJdmK0TEiPk9GjRtj95xvb5XBpvfb7ov1GfdOyEyQ6YpRo9VLVpNdL6qW144LER42SMckxMi41Vkbotaa2Tjlb3aKfZrkY0tpoHXNy7GhZlJcilQ1tUljVJLXNHRIfHSH52nZafKSM0soVOjlb0ywlta1S19JxWX+DH+obmqW0vFrOlVQJDaWnJ0ludqqkpyX1eqa5pU1KSs9LWUWNdHR0GvaxMdEyJX+MxMfF2PfWtnYpOl0u52sapK29Q0ZHREhKcpxMmpCj90ZJS2u7VFbVytniKmnX6zHRkdbexPFZ+vwoqa1rkpKy81KubYhiEKG/peh85+vzUVGRMlLH1dV1QRqbWuTEqRL922prgrpnTc+zvwOtiQs6B+Xn6+XoqVKpqKqT0aNHSd6YdJms6y4pIbbXWC8oeKy3fUfOSK3iM0L/y81KljnTxmkbkdbuqbOVcvJMhT3H/ORkJMmkcRn6N9n6dKigWE7o9Qv6b+YiPTVeJo7NkAm61ilgcVLrKCgsk3bFMykhRqZNzLHrjJNSpTgWnqvST6V+GyEJsVEyaXym3pdt14eq1Og8nNI2j2nf6HtuZrLka7vjclJ7Ncn+ZD52HTotJTpnbe2dti+X6P5kn47WdT6UpVznkT4Wl9caZhNy03Q+s6zt0EI/a+ubtZ9FUqN/+Z6l627hzDztL+tqpFTrmI/r2j1Tcl46de/mZCbJ9Ek5kqUyaYRuyApdO8wX1ymsg3G6T+ZMHSsjde0fOVlia6JB18ZIvZ/5BDM+fKfUN7bKWd1Dh/Ve1mOE4jNhTJosmj0htLvX/N91uoaLVNYeOlFs85mdnmj9CtZi0CDr+ILO596jZ7Sf1bpGOyQqMsLkLbI5cnR4UOWw9IKN3NraKuXl5dLc3L2IEFoRKuSysrKkurpaampqJDIy0hZYdHS0JCcnq4Dr3vCVlZVSV1dndVBYdKmpqXZPR0eHlJWpIGhv7zX5/B4TEyMZGRmSkpJiC/F6FxbMXhWE63cUqEArNwE7JjNFPn7rXElOjO21KFgwRSo4Xly92zZapy6mzLQEiVVBP3tqriTGxwxZ96NVoC8YnyJzxyZJSpwStpJqhRLk6wdK5VxNi5FwUCDILCXrZZNSZbISPGTfqIQLmR4ta5AuFemQ9awxSbJC74F0dbrkVGWTFOoHcp+oZLtgfLJMzIjTzSz2276ztUbG9YpDUBKUmOdpn55YPFb2n6sz5aFeCRkSn52baM8jIJD5Z6pjZEdhjRworhdIqG/hlzPnKmTvgVNSdLbc1kNqSoIsmJMvSYkqcBWDoDQ1t8qxE+eMKCEYSlTUaFMuJk8aI3Fx0VKtBLNx2yFBCejs7DIhGh0VJQk6TzlZaXK+ul627z4mZ5WEOjo79Vqk/p4iaSmJkqikWVvXKEcLzspxbSMgrXQVFCbYlNS5v6ERsi6WnXuOqzKnhK1rAlLPG5dl/RmIsOnztn0nZevek0outSaIxigRffJji2VGfpS18f5Y2+SYEvtv395lY6UNiD06erTMzM81oQxRrNt+FL3C1iVCcMmcifLA7fNV6F2UY6qQrtt21AibtZIYr+tjXr4RQLT284wKxI27CmTLnpM2X5HanztXtNoeSE2Ks3YPnyiRTbuPy4nTFTYuiIg5GkrCZpkc1bGt3XpUDhw7q2Ska1uVt1uXTjOhDW5Bae/okkqd0zfXH5BCVcKYc66D5aJZeZcp4D0PXoN/QHg7VZHfqPicVhKN1DaZz0/ctdDkQqiy0KTKJrLmubd2SqsqihDy+Jw0idV5mDVlrK1zlKKXVu+R0spaw36sknGDEuy9q+bICF3HkOzbGw/q9TqTtaz7maqsoqClpcTbXG3YWSB1uj5H6fVIrfOmBZNtLpk31gFtrNd7dqviEMz5cl0TQ03YJ89UypotR7rb1flM1z1O31AyIeGAB5g/lMQ1mw/LEV3/Hfqd9UBfl82bpEpM8jWYuQ9fxbAQNkR77Ngx+cEPfiAHDx6UtrY2SUhIkLS0NPmzP/sz+e1vfysvvfSS5OTk6ALrlMmTJ8vDDz8sn/70p23Er7zyirzxxhty8uRJAxxif/LJJ+X+++83JeC73/2uFBcX90KnpKRE5syZI3/yJ38iDz30kC7U0R8evauogcln4b6ydp8Jrn/48uMmoL70D8/IgYJzJhRzVYAHpbi8RgXWCYnQxf/Fp+42gYwA++kLm+QvP/+xISNshHBiTIR8Yv4YeWmvksPpGkmPj5K/vHuqHCqpMxINtVoh0WnZ8TJfCffptaekvL7VNvToiJHSCftqmTs22azidw5XyLHyBmlXoQEpIexRyFbkp6mVHSH/sr5QqlQxuGVq+iWST5CthdW2cehXdmKU3Dc7W6rVeq9RC50C8XZofe8VVMkbB8tUWeiy/n/h9nxt56IUlDdKiwrXvuWi9m33/pPSogLtjz9zryTqXPzyN2uNlCfmZUuWCqOgREeOlvFjM2XFkhkSFxutVmqt7N53Qgn6sMTq92ydt6KzFXJaP08+eqtMURIvVCH5k1+8I4VquaCIohxs0vv/0+c+LuNyM+RkYals2XFEThWV6v25Vi+W8sfuWCSjVfCf0uv7DxfK22v3yB9onRA2dbzz3h5ZtXy2TFdhGx8fa0SBNR4xgMcFfJvUU/PrV7fKx1bOkT//o7ukUcf81X/8jczWOrJ1nBmpCT1jPaH93X/0rAraOPk/nrxNqtQjtEXJ/rk3d8qXPp9uAu9BJeaH75jf7RloaNI1uVleeGe33HfLXCPXB26bJ/epsI9U3Lq6uuQHv3jX6pw1eYxMnZAta7cdESzZpz5xs9y8aIr823Pr5WxJtew5fFpuXz5DiVCVHyX0Dp23b//VE+rFiBaIZ6Ax9p3bD/r94sULsn77MfVG1Ml//cvHdKzx8o//9pbs1n7Nmz7OiC5Qpuj/25sOqXLZKZ95eIV6ybJkg/b5rQ0HJFH729dj9kH71Pc59gJz/txbu2T+jHHyf376DvMq/dW3n5VDx4tlvFqt2WpBBwVP3o4DRWb9f/Gpe9SQ6ZTNe07I/35li/z1H9+ncjDCCPf46TLDGrJ9+d198uvXt8tty6YbgWNk4KH53v/9aVNKfvv2btmnCs3mvSfkrhUzZbp6R6bq+LHKKf/y7DrzwGzVdXO/romWtg4jdDw8X/+zh2294ZEYaqMJxQYlFQXz77/4qCkX//Lse6bsoGDiNQmUGxTR1ZuP2N549J5FqnRNsPlEKYpT785HmrC3bdsmzz//vEyaNEkeeeQRs5yxgLGcIV+s7ZUrV8pf/uVf2oZ/+eWX5cCBA7Jx40Yj8BMnTsiyZcvkS1/6kml89fX1kpmZaYTP32984xs91jeW9tGjR00JmDJlij1H/de7tOn42DwRSmS4nHBLIdwWzBhvi7egqLwXYVeo9o6lsnLhFNNkE9RKqdRN87+eWW9WzlCVOCVOLOYGtWwrlRgh6AjFeN+5WslMUEGU0NvNjHWcHBspO4tqpFpJtFWFCW5UrGSEC9YvBApJHymrN6sYi5d7IGGseepv0d9xc0O+WPHmQs9KkG1qJV/U/3C356XFmZs9QxWIdiV7CnWd13apq0v/jUVX06Su41bth/4Yo+76voSN2xbXM2SWkpygLtsEGWWWbKZ6dhrVtV0mmTo/gUCBlCcpiQdWbKISJdbxIXWf4SJHa7io7UIwDNqe099Yu9HqEeGeNhVayUnxar3HmTucvygFx9VizlIvC//GUoeYIYUUFS4pev+x4+fMysW6xm1OvSgU1MX6QcCizgwk/CDrIrUA41Es1EpgrKMbItR1O0nO1zaqtXu+F2GfK6sxwrxl8VRTKPngDl2t5ISwT1ZvAEKOIVqb+rmgRIcySuGnKCXq7n8TnrjYbWmbctatYBWpl4F65inhQAAL1D27RUnk6MlSuWXJNNmiREB/caMnafsQNWNljoeqINzZn506ZxAernCsz5n5OeYK3n/snO3PkSO7ZQfW5LZ9p0zhmDg23ZTwJSrkn31th1QprkNVCCcwnzGqwCMXaJd5gWAIoeGaDiXsErWascIhX4gySgn6bFm1/Oq1bdKsddWoS72uoUWWzJ5oc2LkpNYnbm/qSkmK1fV30Sxz5pI5Z/8wF0lqzbNWJ47r9nziKaGAU7PKj5o6vKci+1RZ4xlc6CiIrFnWCMr2UBbGiVchOyNRQ10pNp94aNhPKGFZ6hkKCJuw1w71tqGYoXyhrCF78TyUV9X3jH0o+zuYuq+7hV1RUSHHjx8X/v7BH/yBzJ49W5KSksyFjRscdzgucFzjS5cutc0OWRcUFNiH71jkY8eONfJlAQVudaxmCB/XOAVypx2scdq5+eabJTs720j+ehe04jLdPGw0NgaCCrJhceP2I04UWhqb2vS3Bo1xp9kmwhVOvBFtlU2Ly2Yo4mQQaJLGret0wzWrIOhUQQb5QqIpSszEi0ML1jcEWtnYJrdOS7cNWqVEf6qq0QiYZ2JUSECcSyemCvFuXObnNEZ9srLR6uc/LPI4xaSuq0MSFCOUhij9jRI9eqRMSIuVjIQoJfBquWVKhmLX3QvaQxkICi55+s+jkH9bv9a1xvWU/HDf4bLGyqCkKnnXa/iBOHRogSwg06C0tLaZ5ZmsLj8EDwScoUIekt+xp0AOHjmta7Rd13CKEmRiT5wb0ubDWiDOXaOCHVd4q84nfQj6QTsQNPFinkfJI3bNB6F56OhpOXzsjLn0IPrJ6p6MuEQkvTquX1q1PQiYuCKWH8+w9vLUWkSYI1RDC/FO3O0Tx2Xa2BCuxDoJ0bTomFiz9P2cCsOte0+ZG9UEvioA3e5SRPlFI7k1W49o/LTJrLPJqgxBGJAL65d/p6jSQiFGzj5mD5j79KzG+VXJoe5nlFgY81QVtJO0TwjSoSi0UanzTkw2VfuFckZBsS5TgV2qoQTuCQq4QoSP3L3QxgFWeB8gfMZH/4ci7hngEq8ygTmlDZQNrEX6Q/5BaCF2TEgtX7FjnSJ/EnQdBHIEzBnLeM0fYP1RH2517iFOjksbhQSX9vd/vsZCGuCRrr+Te8P9oXKIvrDeWOPMMQocSiFGBm0+99YOI3/6O2VClsXCh6qcv4QFrnn6TWGOkKcopvQjKIQ4TLFZOt3GzLgytf+Mp1nXPbgHiuhQ9Xcw9V53wj579qycP3/eCHnhwoUWV6ZAtFjHbNgojf1BykHhGm5FLJa4uDj7e+bMGdm5c6e6MhPNsuYv94UWyH/Hjh2yb98+c5mvWLHC6hmoEBeH4OkfpaysVFLTMwe6/ap+x/JDAw4EJg8j2kgWgrDYNKEFQuY3XFnExRBoWBoIW66xIYaCsCM0zhOl7TW3XzAypSCkm9XVnJkwwmLQoSVGBXqKWsPKk3JBiZvrY1M0kUit6nXHKgWLPU6TyrCyJ2uMGeJmLGn6TE2zKmlqwZepGz1Xk87mj0sy4p+YruQcWNFaL8loKAZY58fVxb1sYlqvPgRfiDclKlnjfkfJKFeFob8kOeQuJIlwDqwC6mBD0jcIiXsQNn1Ls85hsQqgQrXCcWUTQ0bQQfy41StVyGFRM2dJKij4G4twVaGOoDipLvA6JbEKJSPi2swxGn9ogaxxr1fXNsjsmRNUgY2SBnXDE0vHEjirwhOLhU9p+XlrJ02JvT+CIOzQ3NJuwjqIyzNG+oLAQhCFljb9zvrCDY31xL14H1Aa8ATRV9YeRH9EwwfFKviy1SIbqxZMaIEocLUS58VaRtlE6cTTBLGzdgP3Mn1jD6AQgDsKQL0qJ7jBu+cD8tacFcXqZrV6BorV952rq/nOSgcnlDji9UFB0NMe1mgIXxv2KNVcR6lhrRDzZg7Y6xBAf/NxNX3q717mE0UOhSKo3+ZT5QRJU6zd0MJaREmKj9OkRB1btxwZZc/SRzCmThSAIEGMuSEMhHcGdztKEgSOGxwPEHIIK9ySIUM2CWsJYi9S4kvTNTlVCRkpRzwcRQLZztpmHk/p+sZLAYFGq0yjX9e6sJ4QsrHaz6AwX+xJQhqhCpjNZx/5bOtU5xbvGVh9JAm7qqrKCHf8+PEDWroAyT0tLS1G3KdOnTK397Rp08yNvm7dOvn5z38ub731lsybN09uu+02WbBggeTm5vbUyeI4dOiQ/OIXv5CbbrpJlixZYgrBlQpx9ddee03WrFljt1WrxX/vfR+/0iODvsZyDBbl+3o6HtTub5ct2Evr1y5fusfuDB6+9uu7eyyXGmH/hDYx0H7idyxhiP7fN5228dw1M0s+NitLdp+ptSQ0rGzc3i/tLTWSvn1apkzPSZCFGvfedLJatpw4b9b3g/NyjPBJWINwTV/Qz6rJ6dKkZI3bPVLbQohQLx8ERpBUhiWep5b4owtzra39Z+t64Oo1Ud2TYXWHCmFIg2Lj7gdf2jlTXCFH1U2NtbtQk2ZSNWmMOHiVWipY3Q/dt9wyv4s0hv2zX6+2v2SS56mFc9uqefLexgMqCFss0Ywkt0616kKxRaMv0AQ3YtwIzuWLp5uAqdCuNamgxir/zBOzNKaeIUeII24/rIlzJ2XJgqmXZbf3jFnHYlAGayf4dz9jDH4KFWahINJXyHf5/Hz7kMRGgtoGTaS85+bZJtQg4jnTxsp3/voJE/o/1hh1YXGlnNO8jMBCvqwvQH4JCGLJCHZi3k89ulI9Hk3yjz9+3RLZCCGhTFy2X3oG+yH+YYNnUbxfB/3shUVI9XS3+/qlH0Me7QfaD9Gx9x+l3u6x62oNAdH+fYVGe6/zkPr0mWAcvTvYXR+KCkl1rP2nv/4fTDF4Xud7n4aDNu06LnfdNNPInHWLRfuzFzcbfrPV/U1Ig8KzECTexL/5Tw+YkviDn79r+QLzp49XKzvF1vi1L92ABPua+g0nhtZHoHWH6DSEEzr59sC179WHqXFgc/PD1Pohn8XSfeedd+Rzn/ucAYyLm5j2okWLzPr+6le/anFsXOunT5+W73//+3YdKxpSp2BVb9261SaGJLO8vLzf2atZs2aZqz1Ibnv66R+qddT72MvvrGSAG9DSUzWRhw2AEKOwFnBBQjoJqgGHFjRcsmu7F3qyafJYNmjE/JtY1FAUYsNNJG6p6zuwpiFGYtEcwWrt42LGgi2pbTGS5RpES+JYfUunWdEdWl+FWtAkoBFr5m+x3k/2eW6yxkNHasxUXejrCiotwY35ylLX98wxiWaZU7I02YwYNpnonRpPy02JMUsPqxxhgNUNlmSa3zI1Q1ZrctuB4jpTDvor7FVyAsx9qXgGBesZRS8hPu4y2YdAOqOks2N3gVkxn3xolVnNkBMudBLCOBKGOxHS4tpUzarGmm5obLaktXmzJkl+Xo5ZZ9U1elRGcxRGjsDK77bosPppY/P2I5bItnzxjB7vClYoVnROVqr+VatErQb+jlOhWK6k2ddDE4wJS4o4dL1arYH1Ze2rKx5vDe7u0ELskvWF8E1RKwmrzGLwaqUF3p7Q+3F74kIs1HgnLkWOKeJ2pTCX1DdBXapk65J0hIBn7ugLf9kX9A2BmaCKDXNDf8GRY0rmmtTTEcRrsQQrVCkiQa+PvO01hg/yBdFOqAqvA9Z9UBr03/STPoW2SWZ2WkqchQ9wgWOh0j/WE+GdUCv9g/RnoGew+MAb6552KaxN3N4kH+LNCC2sG+aYfIXguBnziacGjwfufI6GVet11gUF13WD1o8rmSNOWMi4h1HUWO+TNGZNRnWBepluWTLVnjmpFvPqzYdsfp64d7Eeh5rU0w1c9yTVkrQXo+sW2Uaoj/Y46oW1PhSEnaR7HOsYj01QkL0cq0zR+Qw8PFxjHZJoCabIWJSQILyBpQ1W4VCGRupfYWSQLwBw9CpIVOl7OzFsLGkyw9n0HMWaOHGiZZJT+DducO7BhU09WOCHDx+WqVOnWhz8vffes0zxxx57TCZMmNDjeu/bVuh33O18gsLxL+WHa1IQPBP07GsryVy6qOvVgkAwcoaRjTBBM4dDC5slTzM+ORc4RmN8CEyOw3DeEsE5VHH4Zo0vV6lbGqsYksbljVt7Rk5iT2JZaD8hYxLEiBujeIzSDxZ3lFq7EDhnqjmaFZyR7rowwtzixMppCysaQQjxk+CG9TxLyZrfOBaGxrvmaKW2UWfNojzcpFnlKAbHKxotXs4ULVY3OOe86c/2omqLnwcu/b4TCHYZacm2bmqUuLCWcTvj6kaY5eo8hRYsgmp17W7cctBwh3jJ9A6EDH1F+GD98jwF5YozoMS2gyRHXIlZmswEAVRpJnKpxoFnz8gzaxtBAemvXrfH7pmtGePZmowWWAK424mZgwfPo8ji6sRNTmLbQG5iCHOskj+KIesOgsH1u1+t87l6thoiDC3EbBHiuw4W2rqDuDmni8s7WtcBz0JuEAECj3UJqVEvv1k4QScVFzprHoUqiIujIOA1IIOaMeAWnawJdLjWwY9YKfhO1axjXKu4fmkLFz2KLmM0wcmP17gwFixAcK3QGC19thCGKhoIcAgodM9xbY5m2ZOYBRERWjmqXpEMVS6SNCkRRWcoCjKDM8QNijcx926F4qIc1JMmKEt9z4vjciZksX3/KUtGw3NBToEpVorlWI0lk8TGerjvljnWZTxFyKfxug8gerBnLaMYgBOkByYoVaxP5irIxqaOOVPHmUwLCvHzMg1pUCdmCmuC51k7KDp9rd1rhRuZ3awZ4tUYPswZY63Wub1DTyOEhixQMjkui/KCkgJhHztVZooaiXcD7a9r1dfB1nPdCXvMmDEWbyaRDFc35IsVS4JYY2Ojuv00GUg1RYiXpLTQgpu8oaFB4wqjjVghf458kQV+8uRJS1ojeY1s8sLCQjsWds8991wzK3mwoPZ3H4IKa4QNxSZ4U49/EL9GI8WSwJrBAsHdB1mTwUjG4oadx+3cNguGFzTcqccouD5UBSLkpSdYzRM0K5sXnXQT7Eh7eQrkOF5jyk262eqUYEvqWi2GzZnthXnJ5iLM1ISxivo2I2ASzMr0HpLIlqvbmyzy/AzNcFahC+Fi0WNRk1AWuLvztH6UhmNK2DS4XRPNgsI91EW9EDr3pesLU7C+xyTrJitrlJykGMto5xrxcTLQQ4vFulWgZCpp8+IUrOYYnYtKJdEcXpyiliyWboySOLHpZhWO+w6ekr36maxkAikdPnbaYtdjVajh8s5MT7Zz1LjLcY+jCJBglqmEmKgWBoKSI1zgB6nTLnOaP1FfvqJtlOn3oI071HVOUhxtEKvkHDZrhRe6cG6bhDOsUY6XYdHNnaV7SF/k0l+BJFlL48Z0JyW9vfGQWQ4kAUFQjIGXZiSoZYYHCMuHZCNe2ANGCFmsL7KhseqxrEjA6j5mNcrqgdQhdNYlwvx4Wbk9Y3FSnW+ydbH8eLkKe3uurusTeipitZ555aUWew6fsb0xe0quEd0s/cuJCF6+whlaXkpDBj7ng8ka7z5f0N9oP/hvkAYWFm2gRLM/6TMJU5xxZt8e1z7HqSKLQoM1vlIz6TmuxDEpjg5BXAtUASOJbqhKt8KTYEpCaUWdvKXno8EMC3v5/CQjQPoC4TAfzAsvpeGYHEMAHqkAACAASURBVCTK2iPr+Q7NGucexjxG18H2/YXy3o5jRp7ndC1iLATn5iEsLOF31ILGs3BQj4+hcDFfWMvv6LPME2sBXYqXlIAbZ9g5Zsa885KcY5fmnBg/faBe2h6q43rM01j1SJ0tremZTxQsDJ587ZNl26vSAilD5uRHbFQ3/xY9CgbJsy+mTcq+7CUrQzW3g6n3uhM2Lmfc0xs2bJC3335bbr/9diNW4tXnzp2zBROacBY6CI5+FRUV2T3x8fH2QSPmObRfrG6s65/85CcWI1+8eLEROHFzCglnWO8kug2VVncl0BHQH1s1W15dt0/+/bcbjdxu1WMsaHZdF7rkXc2qJe4zXwUaWjFaPW9SelXPbmPlkSn7Z39455Cd8aTvEEq9Eg1nmolDc0aaI1671F19VjPFs5P0uI0mhZE1frS9wSzZM/oGtClZ8fLg3DH2VrMTSsRrNeGsQUmVzYnLOlaJ4yE92401ikKwR+Pb+/TlJ2jtJJUtV8LF7c2G59qR0gZ7U1nfAmZY7ZAwLkgsbo57QdrpGlYYmTPSvAGUnWpp42rvS9hcszirEl27rqm31+7SfojMUIsTQobENusZaTKwOUIFKe49VGh1EpPGMma9YfXef/cSc33zAhUIec/+E2b14rbN17p4UxlHsDiPvXXnUSmvJDtVczjURb58iR61UasHIVyuSWjHlSjilHgPHiky8qcfuL0ff3iVRKdFyhglkyULpsia9XuNGFEmJivhz5k50bw1/RXWOWTP2VLOSq/TM9CxqoisUlcm6wlLkvPPWLfzlWx4AxpWNGd3f/kKISWRZboOOVuNdXtCFQmEGmdsEbTUz1uz7lXLCoKr0RAAR7SIb2JJsT9nTs6VVYvyjDgoN+uLK8DopTV75PX39ptQX6ovp4ComRcTpkp+qzcdln/+5Rrz3Ny+bIa98GIoXZPMKUIbi/KnL26yNbFkzgQbH+2+/t4+GaNrgvgsVi5H3w4d735pCG5jrOv/ovsziN32Nx8f9jfwxrPzkJ6DB79/e36jrp8Ic03P0NMCeGpQ8icqhsgRvCsdM8ebhf28vjwFT8Y8XeeffnC5ERVrj3PUjOlXr27TY1AcEcuz7HeUPdzV5A1gIT/9q3dNOYCIb1442eaD53mxyjH1LmB0/O+Xt5hCBeGvVCUPRRFXPH3Dcv2+nslnDNS5QnNAQo+gfVhs+j7PWlqs84c34mcvbbb5xAgCK8a+Zsthy7RnfZIgx9yjWPD+i3f0GCNK8Z/94R1D+rKevn3+Xd9H6IZCRl/XAoHu2bNHnnnmGSNbSBUShXCfeuopWb16tR3V+t73vterX/y2fft2O8NN/DpwqeMyf/DBBy3rnHq//vWv23NY88S8g5Kfny933HGHPPDAA2al/67yjW9801zif/O3X/tdtw76OsTbpAIxiD/FaEYqApTFhaBkA+BeQxhCSMT32tX7wCyh3bLAIP5rqXBgCX/hl7vtdaAUhDTxa45g8RdSxfLmPDMua36jb1jH9IvvWOGQNf8Rtw7i2dTHM7jJqY+il7U+dXNesnxxj5MwRmIahWNaWOKhx7XsghYIHRc9i5brxMTJaqduyDtIQONeYu70OXgzGy9duXny+xnmwfEqYscUcI+yEwl6LvySCxZhSJ24zbEqaD/AHgGPZg6xIgiJgVMn90MyxBux3C0OzHhVcJg7W+tgnrszfbvfmIY1TlzR2tBxBO2wLoLXn7LesTS5j23LNfpHFnroemD+ZqrSwstoKMwRiglZsKw/+oa1TGwTbHBNEne1LHmtEyuMLG/GQkeworDGWHfcCzYWM9dr9JPnsFQQ8EGeBXHQ7sa7ccXlyD0UsGrRtY6VDlbEXsGR+CZ9p9AGxGln27XwLHsl1I3J74az9v1alcD9HuSZMDZwYi4ta1oxoA/MH3NAfBRMOIvOPGPFci/9upaFtpjHoNCmuZVtHjTMpPiimKFyMzeQOvMRrD36iWeFxcc6x53NNbrJmKmLcB3tsC6xQnmegkcJmdWdA6FhL/a73hO4swmZdGfY67q9NG7a5x7mtbsOjZsH60Z/oG6UoP4UTdb1tSqMjbVIeIUStMu8MmbmyeZT54yx1+t94MdeI78kODp3LftEP77+tb9VBSdBvvKVr1zVUK+7hU3vcGVDrri1a2trzR2O9YtrfPp0PQenxM1vfQvHtrj+qU99yp4LdA1c7BMnTrTXk+Jy+9a3vmXX+h7z4rw3meTD8eKUYCwsDj4kPfQtLI7QAmnjprzexQS8kmF/hGlHVvRaaIGgO1p6/xZ6nWcg5/6OWHEf5N43mW2gMSOzcIeHlqt5PvQ5hAofrOG+JfQ31AxeYnKlgvDD4h2oIOBJRBuoICT5XKmgIERF8bnyfX3rQIYioPo7loIACARz8Bzrc6Dzztzb9/7Q9sAT0lJZNGABK0I/fAYq3QR9/RN9bJ50Hvn0LX1fBww5YakNR7nSPPRVahjTQPNJ37mOi18GmLOB1k4wblzvvytMd6X+DiV+jI0P7yDoW1BCQwvzOdDc9312uL4PC2FDzpAyx636K7zcpL/Cc1wb6DrPYEXz8eIIOAKOgCPgCNxICFw7X9KNhIqPxRFwBBwBR8ARCDMEnLDDbEK8O46AI+AIOAKOQH8IOGH3h4r/5gg4Ao6AI+AIhBkCTthhNiHeHUfAEXAEHAFHoD8EnLD7Q8V/cwQcAUfAEXAEwgwBJ+wwmxDvjiPgCDgCjoAj0B8CTtj9oeK/OQKOgCPgCDgCYYaAE3aYTYh3xxFwBBwBR8AR6A8BJ+z+UPHfHAFHwBFwBByBMEPACTvMJsS74wg4Ao6AI+AI9IeAE3Z/qPhvjoAj4Ag4Ao5AmCHghB1mE+LdcQQcAUfAEXAE+kPACbs/VPw3R8ARcAQcAUcgzBBwwg6zCfHuOAKOgCPgCDgC/SHghN0fKv6bI+AIOAKOgCMQZgg4YYfZhHh3HAFHwBFwBByB/hBwwu4PFf/NEXAEHAFHwBEIMwScsMNsQrw7joAj4Ag4Ao5Afwg4YfeHiv/mCDgCjoAj4AiEGQJO2GE2Id4dR8ARcAQcAUegPwQi+vvRf/toIRAVMVLunpEltc0dN/TAa+pb5IWtp2/oMTK4kSNGSPZdUyQ2ctQNP9YRN/wIgwGOEJ1WLx9xBJywP+ILgOFHXiLsjq4LNzQaT791VF7cduMT9qiRI+TxZeMlNzX2hp5PBnfhI0JiTtY3/FIe1ADdJT4omPwmR8ARcAQcAUdgeBFwwh5e/L11R8ARcAQcAUdgUAg4YQ8KJr/JEXAEHAFHwBEYXgScsIcXf2/dEXAEHAFHwBEYFAJO2IOCyW9yBBwBR8ARcASGFwEn7OHF31t3BBwBR8ARcAQGhYAT9qBg8pscAUfAEXAEHIHhRcAJe3jx99YdAUfAEXAEHIFBIeCEPSiY/CZHwBFwBBwBR2B4EXDCHl78vXVHwBFwBBwBR2BQCDhhDwomv8kRcAQcAUfAERheBJywhxd/b90RcAQcAUfAERgUAk7Yg4LJb3IEHAFHwBFwBIYXASfs4cXfW3cEHAFHwBFwBAaFgBP2oGDymxwBR8ARcAQcgeFFwAl7ePH31h0BR8ARcAQcgUEh4IQ9KJj8JkfAEXAEHAFHYHgRcMIeXvy9dUfAEXAEHAFHYFAIOGEPCia/yRFwBBwBR8ARGF4EnLCHF39v3RFwBBwBR8ARGBQCTtiDgslvcgQcAUfAEXAEhhcBJ+zhxd9bdwQcAUfAEXAEBoWAE/agYPKbHAFHwBFwBByB4UUgYnib/+i1XniuSrbsPSH7jpy1wc+fMV6WzZskk8Zl9ALjwoWLUl3XKC+v2StnSs9LR2eXjMtJk0fvXigpSXEyOmLUkIHX3tEpZ4q1n7sLpKS8RuJio2TG5LGyaM5ESU6M69VuVXWDHD5xTnbsOynnaxpk+YIpsmjuJMnNSu25b82mg7J2yyFJTYm332KiImXqpBy586bZ9r28qk4OFZyT/UeK5KJ+jxg1StvLlcVaT2h7DU0tcrywTN58b6/MmzHB2kq7VGdNfZMcOnZWdh8sFPo/Qv9bMj9fblo01errr4xJiZX5E1NlSX6ajBgxQo4W18nuwvNSUFLf6/bs5BhZNSNLxqfHSpTiPlLvHR0xUmIjR8kvNxXKnsJqSYodLaumZ0l+doIkxIyW8w1tsu14lRwrqZOmtk6J1PszEqPlgUVj7W9bR5cUVTTK63uKpbm9UyZnJ8qyyekyLj1Oey4yauQIe2ak/v3Bm0els+uizMlLsXuCEhMVob9fkFd3nZOC0nppaOnob5h2T+HZStmw85ic0r8xUaNl7rRxsnRevmSlJ/Z6hnV3puS8vLnhgM0LuMzIz5G7bpolSQkx0tTSLht3Fshbep11yPWUxFiZnj9G7r55ltVVU9ckB3U+3916xNZtblaKLJyVJ0t1Prn/7Y0H5dCJYmlobLX729o7ZNSokTJd18STH1+m66lYdh0s0n5U9/StWuucOXmMPHTnAslMS7Q5GIpSXF4ruw4Vyabdx+XixYvWp6VzJsnsqbm9muMaY2N/Hj1VKk2tbYpDnO3PsdmpEq0Yh3Nhnk+eqdA1USDHdE9FRkbI/OnjZLnuGeYrtFy4cEHOldXIK2v3SVllre3RaROz5f5b50pyQqzNXbiWMl3De1XWrtt2RC7onE0enyVLVI4tmDn+svns0n3yxvoDckDXbkNTq8TGROp8LjLZHBMdGRZDvO6E/eabb8qZM2ckLu59wT9lyhSZPHmyNDU1ydq1ayUnJ0fmzp0rWVlZBtKePXukublZ8vPzJTMzUyorK+XEiRNSVFRk11lQ2dnZQj1jx46V9evX2z2dnZ09ILe3t6vwG2l13nXXXRIRcd2HbgJg067jcvx0uZFglG6S7QcKJT4u2oRQvP4WlNr6Zjl0vMQWT7IKxNGjI4w81247KrcvnyGZqQk9917Lf2gXpVEX67ubD0pLa7v2KVo36EVZv/2IZGUk2cKNinxfGHV1dQkLnc9pVUbGjUmTqY05It1TZ107XVyphHxWPvGxJfad5+Ni3h/rQSVaSJ8xgkvl+QY5qRjF6j0rFk4xIc8c8/sG7ccuxSwtOUFaZuRZfWzE/UdOS4EKzgglVPCEpCK1PpMu/RTE/fwJKTJnXLK0tHVJqwrfGbmJJoRLqpulsfX9tUNd9UpU5xsijEST4yJlbFqsZCZFGznHR0fIpMwEWTE1Q843tkm1fiD0O+fmSFVDq7QoOaclRMlN0zJ6yBpCnjE2SU5VNCjZNkh75wWpa26XmIZRpmxkJ0cLCkWc1h01epS0dnQoKXRqfW02mohRI1SBiDOCh7CZt4FKW1uHrN58SKprGyVB53OEtr1u+zFJ1zWUGB/dSxhVVNcbYR49VWKCu7W1Q4p0XreqknnrshmmDJ0uqbJ1+fBdC3ScEZKgdTBvQTlyslR2KuFSUpXUi8uqtb8jZbwqnCgIrPM0/T360jrae+SMtLa165zG29hZH0lKBBmpHTbv9UrsxwpLTdGgnqGhal0qCuIeXUcoC7GqVEZpe5AxCt/4MamSoOuKtUhBcTleVGY4dGkfWc8orJt3n5BVS6bKxLG9FfAAm3D5yzyu3nzYlLL4uChVEEfKezsKTAFG8YCsglKpSvnB48X6OWdrol0VzNPF51VxOy53rJhhuIRjYT6RoVv2nFAFKlI/EaqwVpg8mzQuXfsdYwoxpVWVxhNFFTafjc1tNqbzul+27TtlMgUFJRzKdWetX/ziF7Jz505ZsGBBz/gh0LS0NCPg//7f/7vMmDFDPv/5z8s999xj90DApaWl8sgjj0hqaqrs2rXLfjt16pRqd6OMmHlm9OjRRvbbt2+XgoICFTbdGjybnu9stltvvdU+15uw6QObfNv+U5KnpPbZR26WeBV0f/Pd520RsSCmTnif5UpUk90BMekG+uS9iyVWiRKy/+3bu2T2lNwhI+xOJWAE++ZdBfLph282K7b8fJ3847+8qpu0SoVoogrdpJ65i1MCwBrmN4gzMT72snWNojRGLe6nHrv1smv8cFgFQX1js3zmkVVqnaSp0CuQg0fPyBElDtpHRtY1tMhZ9TScK602BSYgCCyFxuZW2atWEWvhsfuWqmKRLJAU803bfQv1xSgJzhmfYgTwo3cKpF436X+5b4bkZcRLbmqsWawBCUKSb+0t6alm2phEuW9+rhRVNZklnRofJVP1N6zsX28uMkt95rgk+crDs2XD4TK7J0fJ947ZOfLabvVGnDwvGUrg98wbI8umZCrBt0uhWtunKxt72oD8+TAGLHSUgK3HK+1DQQHASo/WcZwsa5Bmvae/0qkKCN4HrOIH7pgv966aIw2K19f/54tSeK7SrMFxOe97Q7DEjykRjR+TLp95aIXi3izrdxxTi/ugWsj5AltCtFgdf/LEbbYuQwvKzQFVzkorauVPn7xN60mT597cbgIegZ+aPF1uUiWMT1B+8PM1NodY0AjQqRPYC90Csk3Jgeew2ulnesrQKarNuj/3Hz0rzaqofvnz9+o6i5Hv/Wy14XRavQ70b9QlwgbTd7ceNcv0TlWg88dnynbd2y++s0fGaj/DmbCZI/bTBt3jd62YKZ+4a6GupQ6VRb9Vq7tSJuSm2ycohbrvDylhj81OUbm10vB5TxW+l9/dK0vmTgxbwm5RZRNPDgrH177wkCTpfP778xt1PqvklH5m6XxGjuymwMamNlVij9r6vkc9RfNmjDOl8yWdzwxVbD+yhA2pQsTf/va3exYEgrahocEIOzk5WQ4fPizr1q3rIexeAkHJ+YUXXrD7vvvd70pGRoZ06GKrrVVXjUrYqKgo+dKXvmT/Dj4Q99e+9jWz4B999FEj9utdWlXwYFmj5Y3JTDYihhAWzsyTivP1UqAWRChhV/KbCs5PfXypkrOSQXyMTMnLkn0qUBBuQ1Ua1e1cWlGjgjVOrf4ktZ5iVfvs1I05Wcor68wlFkrYWLOQJy5A3PSX5NlVdw8LvU1JB0MRDX6EEm2o5g6pH1eM7rllrry9YX8PEXfoegA71hDWfbaSNSR3JRcW1u14JWbaKq9rUau41ebisBLtBP195thkOa5WL5p4fwWXNu7p3247I5X1rZKeEC3JsZE9bukOHUtji4YVlNDzMuK0jVZJVEt8srrLj5yrk0r9znj3n66RR5flydaCSimU98maNsenxxvJv7jjjBF23zJFXejx0aOtz61K3ChL/RWshSIVuAirbPWQWIhBhdLy+ZMs5EK4JZSwi9WLU6WW4iPqCsS7wjrAYj6iFjdWWaQqCFcq9Y0tqny16B4bJZPzMm0ucCvTD9buTaqA4VkKCnsUQobwZk0Ze1nVuMshQtzv3DNU5cLFC1KkngP6MyYzSdd+gvUdksZlDJEjtLFEKYyRfrE/UUrwDiyaNUH+v5+8Ywov9QTW+FD1+YPW26RzceJMuXlXcnSsYEu4abmG5lCcIbRQwmZNlOq+f0KVYcIi7P/jReU2b8xPuJazZRpK1DXLGPHsMB8ogngOdx86re7xzG4vnA6guaXNDKT7bplj6yxJ5d7NCybLD3+5VvA6hct8XncLm8lFuEKsoQUw+eDS5jrkum/fPpk2bVrPbVipLS0t9klPT5eUlBSrJzIy0j6ASgkl5Pr6evn1r39tvy9fvlzmzJlj9V/vgoDGxQKRQHDdm/miuQzLquql7lI8L+hXi26EOhUKuH4RcMSJ0OZ5vlUFOJZHqOC7VuOhXiywpIQ4aw8CxgpFwSgtr1avRftlTQVzd9mFSz8wb4UqIP7r91+w2Oz0/FyZp4rKxHHdApg48yaNr/6PH79mJI0ngusrFk41nHDboUQwv3PVDb5hh2rClwq4VqoHoE1dqljlp7QdNt+UCTmyYPZE/Xu5K4s6U9St3alu6EaN+wZcRwwY4ktS8h2o4P6GsCHo46V1UtvUblZurbqzb5uZJeuPVEhM3SizgGfkJktZbYu60BvMlQ6xQua0wb9xgSfHjVah0dsLQPuZSVESoVgdOlujClPXZd3Boo/RGPpujZ93qpdhoALJEl5BAJE7YPM5Uvun66pILUeEd2hpUuxwg+NJidA+j9J7WQeR6vrm2oiRUWrNt5vF9f/8j+fNFTx72lgV9vmWYwGRjRyBshXTQ1j8GwLHKg1VLBCcKBPgj+WcfikfIbQ/rMed+wtlmcZWJ6vCOlSFPoAT7s9EVY4DskVRxiVeo9eCdUIfOnT+KlWxYWxx6j7GM0AIBjc6YRVcrOAdjoU1QU4A40SesCaQL+zx2jMaDupjEOB5YE8StkMpR2lB9kSqp4VrYMH8hlvBi8A8EmcP5hP5whwxfkIZQcHrUFXTaGE45HPofHKtRT12fb1JwzHe607YxDz3798vTz/9tI03Pj5e5s+fL+PGjbPvsbGx5t7GRf76669Lbu77yR6ADjFD6sXFxfKjH/3Inhs/frxMmDDB4tuhpa5Ok5kOHTL3+dKlS+Wmm26SpKT33bm9btYv586dk6NHj8rJkyft0oED+2Xy1Ol9b/tA3xFUWI4sdggwKMRtCbTiugwtFzTJCELBogncuiTasLFYaJDgUBTqpS9szCC+Eyxe2g1d5INtf/bUceaizlTNHCGNa52/CGlc6q16DWEHuaYrURSrYtBFLLmiWnLVDbfrwClTUGaqBUZsM7ByaB8hSl0oQ1j5kIbF0zVuDtHgPod8QovKJ4sxMyehZNehmGNUc22gQlwZMj5X3WSubGLPNfr3uLrQ56rVvXJ6prrak1UhUGLDU6BzNlrnjLkjcSzgVlz5fA+uhbY3KSve4talNc1S16QKRchFhGu0YjUuLc4UmMPnanUtDEzYXEOgQkTBfFIH64prYBVa+M7vzEe3IibWdxQtrkHcJKw9rtYWAh7lCDc6CWSfefimbu8ISoG2FxSInzroR2jB6sZKzdB6crOSe6yd4B7mFY8ORI9bMtSz06uia/SF/jHm3n3vxg0SDi3d+xlcVam5tJ9VT7G9zXR0sZbCtNB3WxOqiAR7idwB9outS13ToYV55wNJB2uCvzwLmeGdUMoPu9HanOlaDE3Q7d4HI81bFLqxwKRNfwuVzzZG5tbmc2jk7dWCdt0JGyFDQhjWMwUrGVIOCJvfZs2aJYmJifLss8/Kww8/rEKg26oDwOjoaCPeNWvWGBGTRMYH0l+4cKFMUOKmENfGxb569Wp7ZtGiRTJ9+pXJF7c8CXEoFJTKyiqZmH+5dWMXr7IgsNgQTDyLPCi2cHRV9c36HqlJRQgDrgfkzKLieRZVf7HZq+xSv7dTL33B1RwQAX/pB9ZWKFn2W0E/P2IVQ7a4z2tV+D776lZzY5PBmZs1UpM9ymzTP/HACsnRpJY9mum9QwX5Vk3gmT9zghE2mi+xwX2aFERyD5bB2dIq1ZbV+6B9pn95muhz320LDLcfP7PWkp2IefclbERphwol5iTikouTbo9WzNngHR0Db85JWQkas46UXaeqdYN339egFumJ8gbZdLRCZmkSW6oqoSgSpTUtlrkduKxJFLuU42LkyffA4g6FbbbWYWSs2ep9xT79JcaOpU9yXEl1Sy+rtS/8tIP1g/AK5pO6wYtrfTN8+c7aa1cLkfsYhxG7fiAj5mGxei4WqAckNjrKvB+/fm2buhNPyYMaIyehjWdCFVAIgLVrSYAhBTfsZs3GXqxZ2ChafUutxs8L1PWamhRvYaHQpMy+916L7+DEmEP7HuB22f68tJ+5NxDm8BZ7mzkexVoK09KtgJP7o32/pPgT/sGgsHXZR2FlTfBBaQ7WBH8ZN2sCj0o4FpszXYvtIcoWY76g/ba1GDJFyIIo/Q08AvkcjFEvXbZPhmu8152wSfa68847Lf4cWohBB4XEMWLTlCNHjsj58+d73fvQQw8ZaZNItnv3bnn77bctEY0ktC9/+ct2L9b1jh075LXXXpPvfOc7Mm/ePAX9ylogln2Q8EYd3/jGN+VaKcrmctI4F1YDbshg4ZNMwwbHPRVayIjFHXde3TQIMxJ92FAt6o4kDj4U7nDaJ0OX2CXJRrRnwlcXOCQZrSTJ52qLHXHho4UYKrHmFj0GgyVNhmqFurTZQLmaAIVSNkljSEdPlsj+M6fN+obkt2mWMq5wcKtWTA5p/KxO422feoDkvRhLkhqTmdKTjDZByRs3Ou7yvoU6atSVjWCKj+l2+zNO4sxsXFzV/RU27qTMeHWHR8lrmpndFiII6ps75A09osUxLeTA5JxE+cLHpklVfXfWOIlpuM4Di5p/4/quVQu6PURBoI1ZGkMv09g61nPfEqXu80WT0rSPHVJY2dvF3PdevgdeBmKTrB2bTxVKuP9wDYZmd3M/Lm7mC3cvis7IEV1G7hAXZB1YWUFbxAbHqnV8VuO/KGBkf6N8QcaQNHjy7w5163P8i+8UhH2duplJ7HlUTw+Q/Na3cCpgv54gmKvHjTI0pjyUhW7hjUGg49ZnjbAW69Wtym/pGcRA3+8B5J6RGm/Hf3AX42oFJ2K6EEWQAT+Uff6gdeMlIRRXr/OCPAqICVmD54X9H1rIGMftT64Nsf2AvNs1d4hr4egOp//E2xkbsiyYT+aLOWKdhhofKB7pOp94jJo0JIAb3eZT5Q+8gTwOh3LdCXuwg8bNjXWNJV1RUWHHvkILSWcc/eL3lStXyk9+8pMey5jJ4fgYVvzjjz9ucfDQY2SD7cO1vA9BN0WJiFhIiWbQ4sLF4iT5IS9Xj0L1OTaAsJyiWeOb9EjCGLU6OWpVoElr89QdyXNDVag7R4mP/rFBEbZ1Spjb9Zz1w5qIROLS1RSO61BQ1NgUxEFLlKhxc+Zo8h0xQCw4NhVnutPUTc45YDYWLnRI4ot//HHbOEhMLD+s5zzNYl21VLNzNbEJIcKxLpQKrAAsVzLKEbTU17dgLZIQBnlwxjpNybReSZpjVmjkh4s5a9rbtkV4E7tO0XvRATbtIgAAIABJREFU2E9pVjfWMQU5jss4Wue4VTd5vCpUeXrcimNXZ6oaLcksKynGsrlpgySy9MQoc6Ef1Bh1jWaoUohz00aSxtfJUi9W67lv4Rw458a5Tn2/q8QrfiQQ1aoCUKZJg7UNTYbt1r0n7Wz1+JAMceri2M5Z9Uqs1yxgjmExLyTdkDiGUkXmLQVSxxpD4SzVeuu1TsibWDnKJ2R7Qq1j1vZRTVpjPS3Rc9iBu5nMXTKvaY8jirGaQBda2MO0e/DYOfnz/3C3WdhDWbASJ6jSx2yW6Fls1j4EflgVR7Ki75k2q5eVxRiX6nnewydKJEcTHSHpnYcKbbypHE8LZfeh7PgHqDtOFUUSq4jxIouYQ9zBW3WPr9R8kolj388Qp3rmiGTO1VsOW4Ii812iyjBn01Hww7WMUyWQeWE+yzVPiMRLTkBUqmJyx/KZZlEHBTmzRD1HZI8zVuQgymR2SAJiOIwzbAmbpLJly5aZ9Xz27FlLMmMTt7W1GYGTbMZvxMBJLCPRjE1CjJxjYwcPHrRrH//4x+0o2O+yrod6MtDmiNfykpQTpyvkB7941wQgVghHZCCzNbohiNUhKMfoouGA/4ur98iv1OUIf+Aa5yB/Xxfvtew7AhWBc9OiaXbc6phmB4M7RJ2Xm2FWEUd0iF9yBItkr2N6VnWjWr+4qzk/TTITR70euHORJfJQT6EeXcPdjtVOUsu0SWNU0KWY4J+tFtSRgmL59SubzeJDgLBhONIFLqHuUixuhCWxbnDANc6mJP7N8bifPrfO2iFTlz7gJu9bdDjSov3Yf6ZG5mq8+Y/vmGLWMhYvmdsNmuF964xsO1ON25m/2g3NHk9Sj8tFKa1SazUkEQzZnK5E+9jyvB7yxmvyxt5iJV31VKhLuETj0WsOlMqCCamWhR68GOW9w+V27IsSp0S/cGKaHeEq1WQ1jm2FFmLrKeqO5wz45oIKKa5p6ju0y76z7iGelYun6txUWNYr/SUzmHVH0hAvVMlISbRs54n6Gwk5vNzk35/fYB6OGCXTj+lxsBi1puwlN5pwxgtYsLRIQuSeFZpRi1VCTsYcVSqp9xcvbzHLk2x0PB4I+CA/gKzjU7pOFmpmNX3pG+KB4CF92hinZ6D7egIuG+iH/AFMsBbn6VokW/iff7XWyIh1NEeT6rBI1+k7EDijzPEm/vI+hBff2a0vFNlr96IIreqH8D5k167548SuyQVZpWsCpen7eqxupOLMnssfn2GnNXjfA7IIZW+i7vvq2iY7xvVvuiYs4VXn+aHb54ftkS5AQzbM/P/Zew/oOq/r3nOzofdGkAABEAB7L2IRKVGiJIq0iq3mJifjEidrOePYKx7HL4riceI4b1aKkzfJ2Eme49iOYzuSLFlW7429dxIESAAEQHSid5Cc/dvgpS5AEoQkXBIE95avL3G/ds7/lP9u53y6BLZey/7DX75pbdSoSgr9nsxxNrBiTkYhoe+uWTbT2vIV7ftsnEMfXKwhucASw2FviA9xwxFL2CSfZWdrJvHUqeb6Pn26b9cjlnDt3bvXXN4QMQO9tLTUCJk4Nsefe+45TRg7YMlokD0fhHNIOmMN+LUgcCwSNFgmIVx97WqtLNN1jLOVWCAuXOVMcMRRmBBYb83EiMXTo4oIGuNty2dKonauUAnWIgN3re5CtlXXQ7OeFu1zzfLZ5rLGimWSJmnFXGlqreJqxXLG6jWXpxIik1fADcW5uBaNKVBQdLchMosDYYCFumsZk8hh3bQArZ9NDqZrlve8mVkXWSooPrOnZxrZQyAoaZDEXCUJiJjYOI/J02fM1t3ZLrdul3P3lpw2gsXFHKEZ1yy5OqAkzprmqHBdqdBFljRnqOBKVov6oB4nNt1f+mLTUWphhyup4nKGqN88WGWud2x1SHmzLt/CQredzlRBKFIrObAT2vlH2DO26g5pl7KeKQmJceysxnHc8FcSsADPO1fNtnX89Cc8Abfp5MTEReIX5NoV05chzyTNUib6HFYm44s1xSz54TqSk7q1PVHE6M/gP029QyxpClhbs9QaR3F+c8sRC1ugcEGE6eoxCVieKKsopUvmJJhCMVDwuqSpxX6bkiJtODCGPPD84fibsrEDFkr0ZvVskS0PFiy9xE0MTmR+487HRTxHxy3rlo/psq92DfHgBbhZFRcs7pEu4I+HZaOuxab8/L3mphm2dBRCxjXc1R1hRgKu4jk6F7HcK7D7HQrYKp3LRkLm9OWwpj2ZQ8mhYI01q2tYyrV0Xo7NPXg7mYvZe4IwIzv6kRDLJjHMX8maO7FcvULByx4v96yr9fsYnVT7+/5C/OQ//uM/toSy73znO/2ehJUMyf7mN7+RtWvXyoYNGyzZjE1Q/vmf/9ks6K9//evmAv/Rj34k77zzjpE2WeMkld11111y3333Wab4ww8/LKdOnTJyDl4+xr9JPPvud7+rk33/mPGlqh2IYT/2+LcvdXjU/AbpVjV2XnDxjpqKDajID185Kk9sKRmt1btQL5SMn3/1FnO5j3ZBaSAfwMURuJ4Q+M63H1fPUqx861vf+kDFvuoW9mOPPXaR+4sS474mk5t4M9Y1Aknz2z/+4z+aZk7cmt/YBe2zn/2safH8zodriFNjOf/7v/+7ZYljHQQ0eu7HvwME/4FQ8pMdAUfAEXAEHIFrjMBVJ2zizpcSyBVLmU9AIFgs4YHWMEvBBpPJkycPdtiPOQKOgCPgCDgC1x0CI3MB3XUHoxfYEXAEHAFHwBEILQJO2KHF1+/uCDgCjoAj4AgMCwJO2MMCo9/EEXAEHAFHwBEILQJO2KHF1+/uCDgCjoAj4AgMCwJO2MMCo9/EEXAEHAFHwBEILQKDZomzNpqNSFhORRY3O4yxgQnLqdjvm/XU1+Ld0qGFxO/uCDgCjoAj4AiMPAQGJWz24q6rq5M777zT1jnzustnn33W3kf9B3/wB7aH98BXWo68KnqJHAFHwBFwBByB6x+BQV3ihw8fthdosNkIe3OzxSc7hbFpyZNPPinFxcXXPwJeA0fAEXAEHAFH4DpAYFDCbm1tte0/2U8W4mZrz6VLl9qrKquqdP/c9vbroIpeREfAEXAEHAFH4PpHYFDCZtexzk59Fd/WrbJlyxZ72QavtCR2Hbzl5/UPg9fAEXAEHAFHwBEY2QgMSths8ckLOL7//e/L7t27hS1BMzIy7Df27eYdxy6OgCPgCDgCjoAjEHoEBmVc3prFyzjKy8uNrHnVJS/XwML+2te+JtOnTw99Cf0JjoAj4Ag4Ao6AIyCDWtgQM0SNRQ1pt7W1WTybZV3Jycn9Xl3pWDoCjoAj4Ag4Ao5A6BAY1MI+efKkHDp0SI4cOSLHjx8X3rSVmppqy7p27Nhh75tmjbaLI+AIOAKOgCPgCIQWgUEtbJLNXnjhBamvr5c9e/ZIbW2txa3ZTOWJJ54QCN3FEXAEHAFHwBFwBEKPwKCEzdItlnJ95StfsQ1S2O2Mnc1IOMMtjnvcxRFwBBwBR8ARcARCj8CghH3u3DlLMoOg+WYpV29vr8WyOebiCDgCjoAj4Ag4AlcHgUFj2JmZmbZ3+CuvvGJu8YKCAiPuwsJCmT17tiWkuTgCjoAj4Ag4Ao5A6BEYlLDnzp0rLS0t8vbbb1tJIGzi1o2NjfKpT31KIHQXR8ARcAQcAUfAEQg9AoMSNuus09PTbSvSXbt2WXY4b+maN2+e5Obm+pu6Qt8+/gRHwBFwBBwBR8AQGJSw2Uu8q6vLNkyZOHGilJaW2h7iR48etSQ01mn7bmejoydpesKo32527fzJkjspbnQ02CC1ILvk3dIGebOkYZCzRsehrMQo+dxN7ukbHa3ptbgSAoMSNmutiWHff//9NpkXFRUZWcfGxtoSr3Xr1kl2dvaVnuHHRzgCytUmge8RXtwPXbz0xEiJjpzwoa+/Xi48q4z97KEqqWntvl6K7OV0BByBISAwaJY4b+javHmz3ebEiRP2ik2ImqVezzzzjL1u08URcAQcAUfAEXAEQo/AoISNVc2HrUm3b98uvAzkM5/5jDz00EP2Fi9+d3EEHAFHwBFwBByB0CMwKGGzUQrLuV5//XVb2sXrNvPz861UrMf2tdihbyB/giPgCDgCjoAjAAKDxrAXL15sO5odPnzYiHrWrFmWaEbiGe/F9nXY3okcAUfAEXAEHIGrg8CghA0ps8sZseubb75Zpk2bZtuRYl2vX7/elni5OAKOgCPgCDgCjkDoERiUsFmyhWW9aNEic3/X1NRYohnxawicbHEXR8ARcAQcAUfAEQg9AoMSNpngp06dspd/4Br/13/9V3nnnXckKSlJ2AWNBLQZM2aEvpT+BEfAEXAEHAFH4AZHYNCkMxLOWMZF8tmBAwfMyr7lllvkwQcflL1790pdXd0NDp9X3xFwBBwBR8ARuDoIDErYxKrZ6ay9vV14N3ZCQoLceeedsmrVKmloaLBjLo6AI+AIOAKOgCMQegQGJeyoqChLMtu/f799IOycnBxLOuO92FjeLo6AI+AIOAKOgCMQegQGZdxly5bZnuHf+c537LWaeXl5Eh8fb9uV8lIQ1mW7OAKOgCPgCDgCjkDoERg06YxlXCSW3Xbbbbb+mn3Dsbr5/Rvf+Ia9FMTFEXAEHAFHwBFwBEKPwKCEHRMTY+7vpqYm2/GssrKy3+5mbFXq4gg4Ao6AI+AIOAKhR2BQwq6urrZdznbv3m3fvPSDvcV57Sb/ZuMUXrvp4gg4Ao6AI+AIOAKhRWDQGPZrr70m//Vf/2VLu/bs2SORkZGSmppqGeLEr4lruzgCjoAj4Ag4Ao5A6BEYlLBxhbOb2ec+9zlLPlu4cKF88YtflK9//etSXl4uLS0toS+hP8ERcAQcAUfAEXAEZFDCDizfmjJliiWdYVET18YVTkybLUpdHAFHwBFwBBwBRyD0CAwaw05OTr7wzuuZM2dKRUWFvPzyy0bUvKnLl3WFvoH8CY6AI+AIOAKOAAgMSthz5swxa5rNUz7xiU/Ij3/8Y/nP//xPs7J/53d+RzIzMx1FR8ARcAQcAUfAEbgKCAxK2LNnz7aXfpBsBnn/2Z/9mcWv2eEMC9vf1nUVWsgf4Qg4Ao6AI+AIKAIXETYZ4Dt37rwiOMXFxbJgwQJLRnNxBBwBR8ARcAQcgdAicBFhk/nNuuuhCDufOWEPBan3zznd1CalFfVyqqZRfzwnkycmStakJElOiOl3I96M1t7ZLYcLT0lDc5ucOXtOEuKiZN70DImMCJNxV3Ef957eM9Ko5S4uq5HW9k7NXQiTiSnxkpmeLOFh/btQa1unVNY2SnllvbR3dEte9kTJ0DrGxkReVL+Ozh7Zc6hY96UfbzhkpifZOacbW6WypkHqTrcoQiKJ8dF6jyRJSYrV8Mw5K0d9Q4t0dvXo8XP2G2Xk+tnThh6moay19Y1Sfb4tEhNiJS0lQRIHtEWntkO11qn+dLNuJHRGPUxjFINwyZ6SJlGR4ZqMOVa6unukQusMTj09vTJ+/FiJi42SKZNTDa82xa2y6rSVu1vPTUtNkBn5ly5rY1OrlJ+q03v2yvS8DImOCr+wbz/9olvvX3jilPTo8XTFbWJaoozV/REuJxyKDR8v6bHhEhsx3vrS6fYeqW3tlo6eM/0uiwkbJykxYZKm5/aeUWz1aKeeU9fWLQ16DdeO0/pH63kZCZESrnXXP6Wt+4yUnG6XnjNnJWz8OEmKmiBpMeF2b9qosaNXqpo7pbv3rIwfN0aSo8IkVZ8xTgtH+Ropjz6jtavXrgnT+ybqPdLjtO7n60YZyhs7dPOmfkUe1j+aWjukoqpBisvrrNxpyXGSpf0qPTW+33MoA6HCQ0UVUlOvbaptEqXtPHd6piTERmr7j+wlr/Sjeh1nJ8rqpFb7NX14svaj7Ixkib/EWG1q6ZDDRaekua3DcEjVsTgrd7L2bX2nxCB9b1gb50PcrEXHOHNtUWmNXn1OkhNjZIq2J3PSQKE9j56o0vmrycZzmM5LzLdJOh9MGCHteRFh4+7GBT4U+aDrsHGvs+kKb/8iAz3w8hCS13gmm7KQfc6mLGSl842wvIxro6OjJSwszBLh2tra7D4B4VyOcx/uwTk0QED4N/fnPNaS8+9rIQePVcirmw7K3iMnrQxzpmXIfbcvlOULcnUiez9pnwmgrPK0/Py3W7TDNehEd0aJPVm++NBqmZaTLjE6iV8tadNOv2P/cXln62GpU8KJ0wlpphLJx+9aqhNavBFYQOobW2T73kJ5beMBOXGyRj5z381y163zLyJsBkRZZZ38+Im37Nhdt8w3woV8DxeWy9Y9hTrIqu22Gfr77SvnyPLYPP1rjOw9XCIHjp7UCafFCKSppV2amtvl7lsXfCDCLj9VKzu1rIeOlupdRTIzUuWmRdNl8fx8m8AC0tzaLvsOHpdDBSc14bLb+m2MlnndmkUyNTtdt+sNl0ad/N7etF+qqk8LikjYhHGSnBQn961frspIshJ5q2zbXSBH9B4Q+02Lp1+SsJlIi4or5ZU3d0mrTo6/9zt3S6aSfnhYX3nOKCFWaX944dVtOga6ZM2qeZJKGwwyoYzX9slLiZZFGfFGgN16j7KGDtlc3CAVTZ1yNogBk5Wsl05JkBVTE43Qe5S0a1u75EBlizR39hre0Vq3qUlRsnJqkkSHjzPShYw5r7lTSU7vMXdSnMxJVwVL781QKzndIVtLGqRSz4vXSX7OpFhZoOVBUAAoz4FTzXKoqm+paHJ0mF0/PyPWjvPf3oomqdTy9oaQsY/rxP7apkPy3s5jdDXJV4Vz3ao59gkm4V6djxpVkX7mtd1y5Pgpa/PYmAgdn7fIwplZOslHX+g/I/EfvdoHdh0qlVc3HpIC7W/hYRNkdv5kefjupTJX56Tg/o9ifKykSn786/cEg4O5dHZ+hjx63wTDZ6DSPpLqW1JRJ69vOixvbDls7Tk1M1VuXz5T7lu7UOfbcdY3EfBo1nnkhbf3ye7DpWZsTNB+/sUHb5Gb5k81BWUkyEWETZLZF77whSGVbajEzs1oZIj3iSeekDfffNMyzkle461fN910k9x8881Gto8//rgsWbJEfvd3f9dc7siTTz4pNTU1smHDBpk7d64cPXpUXnzxRXnrrbfsvpD54sWL5Z577rH7/N3f/Z3tzNbR0acNcg88B+PHj5dFixbJ3/zN3wxZKRkSEEM8icn2ubf2qgYeJf/PNx6R+LhI+asfPCcHjpVL7pRUmRSkxZdXN8im3UXWab72f6xTRWW87DpYIj99ZrP8n5+7QwfK1QlFQCA19c3y82fek0c/sdoI8aQOgp89/a4smJUt0WphBlvPMdERsnRBnkxUC/J1Je2EuEtPXKe0fi+/s1fJRhUznSwQyBpL9J1tR4T7PPaVT9j3Uy9uM4sTfHKz0mXDbYvkztXz7Pz2ji55d/sRVQ6q1ZpNHmJL9PXH3fuLlPQ65cu/s94I+JkXtpjlmqOWc6pa2gGJCA+TrMw0WbJwmno3wtXyb5YD6hl4b9shCcfboHUtKauWUi3D/RtWKolPlJPltfLfz7wrJap0REdGKEZRsmDOVFm5dKY89duNlywn9UGR2X/ohLSoksB9B0qHKgxvKG7nVBe91PGB5/N3uFr7t+YnyxElw1eO1qgFPFYeWThZSpUkGzt6pOW8VRu4FisX8nyzUD0Getw8GErcWM/I1OQoWZadIHvKG+Wk3qNTrWakXS1+CHrWxFiZFB8uT++rVEu+287PTopURSBeXj7SJbOUiOMjJ8j20gbZr89JVGt7ud5vaVaCETaT6IKMOElVC/25g9Vm3Y/XH1E0zoSQrKnnO9sLpFr7+/f++CFJUs/Ovz3xjk3g89RyxioLKKcQ1+tK7CjWn7t/peQoEWzff0Jeee+geV1WJOQG4Bxx34zpLiXh/35xuyyalSW/9/At0qvz6F/98HmzoienJfQjqONltYYBCslXf+cOaW7tlD1HSuUXz22Vr31+naSNEDIbCDTtuXXvCSlQZeOvvv6ges6i5ZfPb5OdOo8unpMtmdqeASUMS/z1LUekVeeTB9ctkfkzpsi2fcdl4+5C82jevmLmwNtfk78vIuy6ujphh7OkpCRLNMPtHSynTp2yV20S6169erWwRnsoAln/4Ac/MMv3jjvukKysLCNriBSrG0LmDWC8Y3vHjh2Sk5NzgbCxppubm+1ayPn555838v/93/99s8Sx1rG82SaVe37yk59Ui6fRzjUXol73s5/9zL6XL19+TXZow71Zri5RyjQxJc4IF4t6dt5k1c67zZoMJmxI8qiSx5K52UrmKWpRR+gk3iE/f3aLNOlkfrWkWZ9ZU9+k+E4wFzhWMIpHvlr5EDeu8WDCjo2OlEgluAmqvTJxjVX350DBGq5Qwj7d2CZTlRxx/SPcFzcdbYYbfJIOKFxR2Zkp6qY8LYUl1epiV4s2MkzP5qNKs96+WCcULH3uNRRByaupa9L+0KtKk7rbJ6WYYpSlk24TIQt1uafo/QJeGOphlrR+M8D5fZJ6OwqOV5jFzcSAqxxLBMUqRjGICJ+grvEec41jrXBt9pSJ5mbDIr+UQNLbdhXYs1FcBnqBOF583uuQlBh7HodL3en93yL0+anR4eZGxg1eo1ZwlJbxZEO7kuZ4c38PJGytjnp0zpl7ukWt6mDBFQ7Z4mU4XtduhA6JYgHjcuTaCdrmE/R4t+Lcqhj36I94sZXz7TtMj2P1Y63z7GgtDxjS7jhr0mMjhHJz7/LGTlUINAyh9+faUPE1z2d8tnd1a3gqWr1YajlqW82Ymq6/N8hB9frgFh87ts/V3awu4i17j9vEP33qJB0X6mLVwj335l4NszQP3ijX+CjjrVjHLi0GOU9VYwGLEsu6Xj1Bpafq+xE2uJSrt++WJdNlivZ7xlx1XbO8+M4B6/8jVfBMEsJL1FDidG1Hxua0nDQ5erxK9h0tM0UjQNgo/hA07c2cTGgAL9mrqpQR4hspchFh407Gen344YeN/AYKbnAI8pVXXpH8/PwhETau65KSEiPidevWyV133SW5uX0aKISNEsC+5dwX0uXfxcXFZoUH71Xepxl2SUFBgS03u/POO+0d3ZAgz+Cb8mFtBwQre+vWrXY+8XaUDCztqy3EWCs0loK1RgdiQscaydKOceJkrVRp3CRY0GKrapslT0kIEsQFTpybGBsED0FcjTgZHRmXc4rGfrB2iTdDONkZKeaSRjMNFgjJSAmyvpirbVIuKq0yssetFq449MXz9S56PkoM51A/MIPsOnUSRYEZGLfnHCZOYtozcieZ63wowuTcoK597oeyQRmQVHVhY3HXqoISLOAMsQcEq6pFMQngQVsmafybD5Z3idaPiSIlKV6SEuOszblHQLG51Hvksax5bkFRuaxaPtuUierahgvPNCVD+wju+7ycSeZiR0G4kmBNJyjBtun92jXOHLCUq5q77Hdi2wMFi3ySus5xjRO3rlcr+ZS6orFwiYFHKmnjps5Wt3iufhOXrlcruEzjy0hVS9+9scIb2no0Vh1m8fCi+lYjadziMfrcvFQNcemzElEAlAWK69tNSUlVJYI49wTtELPVGkcBaNIYOMoGzwmF0OewrOmzCfExFo9GJimh1TW0avimwfplQDq0T55QRfGe2+YbwUdqH0hXjwht0qZjhjwGxspIFKxrSAiLmbwY+i8uYbx8kFyt5o4ES0NTuzRof5+ZN8nqyfmExVDmmYtQtINd6COlzrXabmfVFcXc1afkq1dKlWEUMPKIAh4jyotBRXvevDjflJVw5T48Kj2av0F7MuaZ1661XLTTGcRXWFhor9C81Nu4ID0s7+PHj5vVOxTBGodkiR9zbYCsuZalYTNmzJD58+fbrYgvY31DvJs2beoXp2bAQMrEvLHEIfUTJ05YzBoShryDBYuaN4w99dRT5n5fsWKFWe6XmjCHUo+Pcs4ZnXCxkIn30OER+AzLGfsjYGUGnkFH4bdYJcmAVQeZcW23HoPMrobQUenMkE1gUFKOaC13hw78D1oOBvkxjZkRF75txWwj9oBAoElMlvpbo1rhR5W8cHUXq3sZK38gRlgFTDA9quilqMU5MHHvcvjQjzo6u6w+AbLm3HAlVqwHJqGgubnfbZiQiVMfLz6lxJmuk3u03QOLN1nd+4UnKmTjtsNyVC2yJB341GUok9lpVSBwo3Ov9LQk9RxF9XsueJ2qrjfPwGxipPq8oQjx5YgJmhTXc9YmZYS6tXfrJKvshLUbLBB6lyWGjZWZE2NkSVa8zJ8cJxnx2g/1/Ei1OqL0flH6TRx6obqul6ire67+GzLnntVK2I0a052THmdu7lwldn6HcJWvjdBRHqbER8pNepz7Q9BcR2mIi0epUgBxz9f7E3vHnZ6rrnWUiVAIVNzWTp/AM9RH1jwH4qb9mLSD+4TFPFWpxl3KmEbRGKd1ILyDUtI1IJkvFGX+sPeEqFo1/yFKwzsBEkJhgsB7te0HKoIok13qCSEZDSyoK/0jTEmtU+cG4vkjUTA2KCthu4DQXihSLapQn6Mznhfm52ZV1iFq5ljmAeYjrHIUfObAkSAXqQxMZrjygrXJ4IICwEBX3ZUqgksb4oSIh7J2e+nSpUawv/rVrywmHZC+ZJ8YI/dnnnnG9jjHmoaI16xZY8pAcNlws2/cuNHi2V/72tfMuna5dgjQp0hewzKepm5EyC7YaiY+iPVOfJo49v/7k5fN8spWV3VfpnR/ciEB7tCxMkuAI4P8g/bLD4NEWUWNJp+VSoO67h+6b7W5ryH42tNNUlvXKA/cu8pi4LjVf/7kW+rCrtI6RWh26uUJFlxQAA4dLbHrky8RE0QBINls+ZIZfcpTiFYJYMFuLj4t7x6vN1c3yWokkK2bmSa/2FVuhBqrSWMxSqpP7Kkzi3eeEu4sJfcF+r2volmyEiON0H+xs0wt8y6ZMTFa8pKjZfXUZHnxcLVkJfQYASKfAAAgAElEQVQR+Hsn6jWO3ajWfISszEnQJLZEs7JRMsgixyX+9P5Ks843zE6TfLXIiWeXagJbcKLch2lHv8YRuB4RuIiwIUVc4VitxJYhzmDBAocI0USHaqkyIfEJJnti5Vi+WPPcE9f3rbfeao/KyNBUeo2hY0UfO3bM4uUB4R7susamLkVFRaYIbNmyxSx4rseVj1D2Xbt2ydNPP227spFsRpx7MDly5Ihs3rzZrkMOHToky1a8rzAMdu2VjqGREpfFldamliGCfoe7mTphSQcLWnusxh4b1NKcrNpdhP6NNYvWyDE0v6shWAxopQ0a24VoEcpBudFcP0iGKBZKucbH9moCS8fOAnntvQNmOeN5yNYMbeLVa9QdzFIwllKsvVkVMH1eoSaNEMMemMDGEqnDhRVmqQ9GiANxGqOKAXFm6tNxvi04B2zRumPU3YeGHSxo2RWa1b5Ts9fb1RL7xD0rzXWKxQF5l+kyICzjhDhCB5FmAeepUtKgrmuyTwcrny2b03Y+ospHy69eVxzGmzscXHB937d+hd6/Vg6qO/yAZsi/t+WgLg9rtnLwHNpg7qwcK89A6dVys+QKi3XCeesUt29MhIa21KroOm91B67D+uo9M0aXczFmxZLKWOKFBY2VTIJZo7rI69SlTUycZWFkk6dEd2uiWYScUMJNUrIN17YkA53zyxs0PKBZ39PTYixpiyQ05oP9FboETp9X1dJpZSQ2HqFE36HegBq9Z4M+p7WrLw8FFz4WN/ehTDZ4hlFobty89IngMA9L//gN6zK4T9BXk1TxwConQ5yxgHWK8hbwhA1j8Yb1Viy7wxWOlRmwprEwGePkckQHeRh4MOOfD/kliRoaGj+ubxkloSo8ECNlydNAkOJ0HDKeCSMGhNwQwk0k/gavbqHNSDJkfsZzx3yMq79T25bzIlVJHQly0ayPW/n222+3TG5Im6xsdjVDSOQiQ5t12suWLTP39VAEFzb3PXDgwIXMbchz6tSpRla4vvfu3XuBsMkWxxrHeoaMT5482W+9N1uiQujE0Il/8zeWNJ8AYUO6vBIUtz6WNQltV7LAsP5zcnLM7Y7U1NSaYjIcEqaTMOut6QBYhkwEkOGxYrXAdIBM0WPBQpyb9YIHlZAslqKTBrFekkSYHAbGc4ejjJe6Bx0XRYO1mpAKA7xF48a4tZfOy7WOP1RhwpszfYrGg/smOgZEhE78xKfJFmfNK4MDNx3xQGLSxAK37ysyNxVEHhDc4+B4WgmN3+M/QDnGjhmrlnGcuboam1stwYv7V6qrm+VzkwbEwikDxLtlxxGLac2cNkXyp2ZcUJqIL7O2uk2XYZ0929d3uDcJOfS5K61Tpc75Su536jKxgPucMAmKRebkFMthmKZeBMISuCeRkpPjjcyJkRM7v1y8FPc2mdokixGvxqVM3DhbrWASuhrb+7v6KCvtFPByEj/GFY6VC4E3a/9leZct17KS9B3nnB59Fu5g3OxY2HYvjuvf9FeFyYR78t8EnSQRLGqUAc7v0ZNwmWOl8zsPhZu5huMoIKEQ2oCxhSJRq+uqCd1ARiRn0dcWz87uZ6AwBklOYtlQtq5OQGk6rl6VxPgoidN2ggBGqkC+UzRJjvwP4vMoHYxrMsRzNDeFuH2wENNNSYzWZWAlmhibYGuxIW/wsnXYIfL2fFT8SO6l3zFvYmAQAmCpbKP+e/Xiaf0UDcb/LM2DIZeoQj1ZhAeO67LUGDWamFtYAjYS5CLCJkb90EMP2Z7hJGvxLuxgwiZ5DCJ/9NFHzRIeipDJTbb5b37zG3stJ8QPgd999932byzot99+u9+tIFqSyn74wx9aElp8fN+aTciUl48Qs4bU+XBvLPHS0lKdFHTAV1WZpYwV/8ADD1hiXGBN92Dlhfj5kMWOVFZWWWbrcAhxaDo7nZ9B8t6uYxa/ZvnW8vm5RlalOvgjdSKI085C9jWbMGzTpSJofkwAJEWsWTbDktaulhCDhUwh7UJ173ZqXkCdEixWY5YObmb3Kk1gYRKAWIh5Q6RHdUMJkldIuKKeEFde1kS5SZd88UHQdN/bcdTWgZLEtnB2jv1O3Nq0YsUeLb5SBxxub64PCGUg6Y3JkQxxnj9UYXLGGsUlj4WP1YorHpdzmuI+MTVRN1NpsJg29cfyPqjLWHbsPmZkzbNKy2sst4CNVojns+aaddonFCMmQMqHhZyiv0O0kDdWMb9hkSNHC8t0MojW8RVr9+UTkFff3i2FmoW+esUcmayZuWSpy9z3lwpt3n5YyrS/oHhM1w1YLpeASKIYiWOQLBYqcenxOomxFnp/e7NlYGO1YmkTVyYOzYYlgaxsjsXpb0V16mFRssTixbJmMxXc5e36nakbqBDbLqjRyV/blGdhZbO8C4JPV5c3BF6qG6tA6MSqJ6rVjsUNafNMssJxd3eada3ruTVmmqzlmJYaY8pBik6c1IW13igOwy30T7KGGYesRmAdNn2rRD0nJC3l6EoFMqX7+nmEtlukrNJJn/HJMqEyTWSiH7P8K3i1x3CXczjuh3LBJinMRRWqpLJ0CQUTslqhYxPL9KR6wjAk4nQ5IsYE65epJ2ON/g0JrtIErUBy3nCUa7jvQbvRnihVtCfjsEjnUMh3uq4CIMkwQo0mjBIUsJsX5V9oT5btocBMU2MAQ2ukyEWEjZWJ9Qxx82YuiLSsrMzKG7BWv/SlL5l1PNRsawif+DJWNZYvljmxaQYJruu+5S/9iwKhsw6bcyBg3PBov5A1iWZY4QELHaLmHikpKeqW6pWXXnrJkuKwwANudtzrSMDlf7UbAGMB6+me2xbI06/tku/q+msI6Y6bZ8u8GZlGXqzRzs/S9b5zc0x7tQ6074T8b10LyvFZqtF/80vrjcyvlthEpp3+s/evkide2CpPvlBn2dSrdT1xjrqx2eSkTDcCydVyQ7iQ9ctv75Vfv7xdia5TDhaU6Trpo7JErfH/+2sP9S+2YgJ5oowEu6fYNGWTuszZ6Qz52NpFdm+UhoDwTLwUi+dO7Zc4NlRc6AeL5ufJVlUYfv7km+Y6m6vPyJ862crz+sZ9ZmnzN67nd3RTFMh2j26gcrjwpFmEZI4/cM/NMmt6lkzX9elkeL+ua6TJNI9RpWt6XqZZxritT1bUymtKwqyxhswRYt5LdW337asXSIZa0sGCZdC3sUOfHTuwXlib9KehWDdY2RuP67Kc/CTb7ARS3K+x5gq1sCFuYsO4nCHlyUquN2l2d67GnBlvXHustk3eOFZ7YVc0dhsjy/veubqMUsvZpKRcUN0q+3RNNRP/YV1LjZV9nx6HW8kiP1zdIlt03TUucNZeL9EM9GWacLZKy4McrGyW7Sf7ls9w/nEtS1xmvHx2ad9ucGyssrNMd9DTModKwPLWm2Zohn+X/PW/Pm8egRUL82SRWtcQ9S+e22LeroW6dpnVG3esnC37dQ+FX7+6Sy24DknXccn4ZDORkSyMaSzKRzbcJL96YZvOR7ttKeYdN8+yzVPwWm3cVagKcpos001DIGsyy9/bWSjf//ErBEtkhY6dr3z2dlNqRqrQnsu1/fAI/M9/e8Hak2V4996+wEICrCPne/7MKWZds9b6yIlKeendA+ZBiFdl5ZtfXG+YjBQZo4PykvoqBMdaZ5ZdkW2NQLjEtLF2sVhp+KEK92P9Nmu8iQ0Tt+ZeuJyJX+fl5RnB/vKXv5SPfexjZhlDzs8++6yt3+aZjz32mGWU//SnP7UlYtyTeDtWN677tWvXWqz6kUceMcKGwLHAA0L5ecY3v/nNIb0a9C/+4i/Nwn7s8W8PtZpXPA/3GrEiMkwRrGniQhAWrho0PjRb4phkP7PekbgKEyGTBpMCcaYruVmvWJCgE0y7Zgepy7gTiG8R62UgY0FDJGilEBaWI7+hteMdIN6H+4k6cl+6CAMHDZbtR4OFrgfpdqqbFzd4wK3NYAnEDjkfFzrPC2ywwm8cJ16I2xgiH0qIoEHrELyuGDc292lhu0VtZ8rPUi3KggcBNzMTG1Zh37ak6j7WChn2+r/xuiY3QWPttAv1Diy1wsvTl4EeZnF3rF8UruYW3Z1PrfVALgAKL8l0sepyG7hkhOczSZItzrGBY41yB7ZAJWYefFyLK88eUiVX48AIoxRXOJYs3xzvUGu6VT8Kn8WNIVKInOO4zwPZ2JyLFQ5u4MBkgfuba7C8uTe/dyjJNmuSGMfZVpSlX2xzitg91BJnzTVWOtcTU2f9dWAKIRZOHBuyRng+52CZI1jXHMcLECwkuz22bnq/3z7KH7iGIV8sLITllEzqLGeq130DWJsbqeOTcUr/rtasfTbbILxDLJfxSbxzKIrURynnR72WWZ++SD1RUJh/AnMR9SK+TR2JZzNH4+nCIg1kSzOe05I1FKN1Htg3P2rZhvN6you3jjmFzsncShgPVzf7QDBOGb+0L54cwiHMB6wCYE5h7X1gpcBwlus7335c561Y+da3vvWBbnuRhR24GkLGyh6uvcIhS6xsOjKki2XNM5i0IGysd8759Kc/LTk5OVYMyBhLnN+5jt+joqIsK5zzIWw6E5/c3Fxbisa57JKGohG4f6BOnMc7vofqGfhASA7xZBqfT8YllPD08P6WMxP1wNj2EB8zrKfRcSEyPgNl4G+UGQucz5WEgY6bKlb6a+ksz7rSEq3LledKzww+zmYwSXwukcEd/BvpJhnqlh5MIGUyxi8nJAkOdnzgdexDrsBcVgbiftkT9QAkSvJX53kCH3guVnRAIM6B+4sPPL/PNd57Yd/vgcch1+4O3dlQCfxSwvW4zflcTigTH7XJL3dKSH5HQeND/HOgDPwNkhsY7x14zUj9G0UJZZHPpSR4aRvHITXi29ebYEhYqOMSKy8GbjeKIk4bD2znkVTnyxL2cBeSyRmyZdtRPpeT4J3TIFj+HribGoTN53IC6bs4Ao6AI+AIOAKjCYGRm8o4mlD2ujgCjoAj4Ag4Ah8RASfsjwigX+4IOAKOgCPgCFwNBC5yibOE6tVXX7VnXymZgN3FBrqrr0ah/RmOgCPgCDgCjsCNhsBFhM3LMoqLi4eEA1uIujgCjoAj4Ag4Ao5A6BG4iLBZahV4D/WVHh/YzORK5/lxR8ARcAQcAUfAEfhoCFxE2Gz5uWHDhiHd9VoujxpSAf0kR8ARcAQcAUdglCBwEWGz3pm1zAgbl+AeZ69vYtv8zaYQAWF7Ul7C4eIIOAKOgCPgCDgCoUXgIsIOfhw7k7GVKNuCQtrsGsaLPHjhBt/sVubiCDgCjoAj4Ag4AqFHYNBlXYE3Xs2cOdN2FWP7z/Xr18vChQvt5R3uEg99A/kTHAFHwBFwBBwBEBiUsHGB86atdevW2Tdbg957773y+c9/3t5FzZu2XBwBR8ARcAQcAUcg9AgM6hInns2H9dhY1Ly1i3dhNzfru5GVrHlDlosj4Ag4Ao6AI+AIhB6BQQmbl2kE3oXNu6l5jeWTTz5pBM5LOXhph4sj4Ag4Ao6AI+AIhB6BQV3i8+bNs3djE6u+4447zCVOljh/P/jgg77LWejbx5/gCDgCjoAj4AgYAoNa2FjQuL2xqFmf/fDDD9snILy+0sURcAQcAUfAEXAEQo/AoIT9xhtv2HKuy+0p/pnPfMbXYYe+jfwJjoAj4Ag4Ao7A4BY2769OTk6+ANOZM2ekrq5OysvLhS1Mu7u7HUJHwBFwBBwBR8ARuAoIDGph5+bmCqQdEAi7trZWjhw5IocOHZLe3t6rUER/hCPgCDgCjoAj4AgMSti8OnPg6zMh7VmzZgnu8tbWVkfQEXAEHAFHwBFwBK4CAoNmiV/q+WxHytakp0+f9nXYlwLIf3MEHAFHwBFwBEKAwKAW9i9/+Ut5+eWX+z2WBDReDsIWpZmZmSEokt/SEXAEHAFHwBFwBAYiMChhx8bGSnp6er9rJkyYICkpKbJq1SqZPHnywPv5346AI+AIOAKOgCMQAgQGJezly5fL4sWLLyJmssPZpnTcuHEhKJLf8qojMEYX5I/V/xvlEjlhnJw7N8orqdU7q5XsaG6TptNto76yrZGjv9+O+kb0Cg4ZgUEJ+9lnn5XKykr58z//8343JFP88ccfl69+9au2RanL9Y3AGBkjsZHjdaK/vutxpdKnxIbL+HGjf4LvPXNWinYckN1HK64EyXV/fMyCHJGHF1339fAKOAJDQeAiwj6n2jm7m2FFk1jGh2xwfkdYylVVVSUVFRXC27xcRgsC0PboZmycCGM1B2O0C3VkC2FWdIx2OXt29NdxtLeh12/oCFxE2LyJ68CBA7Jv3z5599137c1c//zP/9zvjrwbOy8vT+Lj44f+JD/TEXAEHAFHwBFwBD40AhcRNtZ1dXW1FBQUCEu40NTZJCVgYfPiD/YV/9jHPnZRbPtDl8IvdAQcAUfAEXAEHIFBEbiIsMkAf+ihh+yzceNGaWpqknvuuaffTSBviJx3Zbs4Ao6AI+AIOAKOQOgRGJRxWXMNMRPD5hsJWODPP/+8baDi4gg4Ao6AI+AIOAKhR2BQwi4tLZXCwkLbKCXwxi6samLYr7zyimWQuzgCjoAj4Ag4Ao5A6BG4yCUe/EgImTdzQdgBYe01LvHDhw9bQpqLI+AIOAKOgCPgCIQegUEJG3LGFd7Q0CCRkZFmZbOsi7g2/77ce7JDX2x/giPgCDgCjoAjcGMhMChhZ2VlSVFRkXzve9+Tu+66S9iq9MSJE7J161aZOXOmJCYm3lhoeW0dAUfAEXAEHIFrhMCghH3TTTeZO3zHjh22Jhshhp2dnW07nPHt4gg4Ao6AI+AIOAKhR2BQwuZtXBERERIVFSUkoLH7GQTOhim4xgOZ46Evpj/BEXAEHAFHwBG4sREYlLCJUbNJysqVK2X+/PnS1tZmm6qQOf7iiy/aseTk5BsbQa+9I+AIOAKOgCNwFRAYlLB5PiR97Ngxefvtt80tXldXJxkZGYK7HMvbxRFwBBwBR8ARcARCj8BFhM0aa97GxV7ie/futWVdxK159zUu8WnTpskf/uEfmmU9adKk0JfQn+AIOAKOgCPgCDgCchFhQ9D/8i//Yku3sKCxpidOnCj5+fnmCk9LS5Nly5Y5dI6AI+AIOAKOgCNwFRG4iLB5nSbxafYUv/322y0bPCcnRxISEmwZl6+9voqt449yBBwBR8ARcATOI3ARYU+dOlW++93vyhtvvCEvv/yysGc4SWd33HGHxa/dDe59xxFwBBwBR8ARuPoIXETYLNlas2aNLFiwwHY4IyuczVLefPNNOXjwoJSVlckPfvADOz579mzfPOXqt5k/0RFwBBwBR+AGROAiwp4wYYIllPE5c+aM7Rc+ZcoU2ySFhDNi21jauM1xkftuZzdgr/EqOwKOgCPgCFx1BC4i7OASsJd4gJRZh00GOUlp+/fvtyxyF0fAEXAEHAFHwBG4OggMStgDixAeHi55eXn2eeCBBwYe9r8dAUfAEXAEHAFHIEQIDPo+7BA902/rCDgCjoAj4Ag4Ah8QgQ9kYX/Ae/vpl0CgrPK07DpUKoeLKuzonPwMWTQ7S7Im99/i9ay+c7yxuV1e23RIKqobdO/2MzJ5YqJsuGWexMdGyvjx4y5x9+H5qbunV06eOi1b9xZJZW2jREeGy6y8yVrObEmI67+73dmz56S4vFY27S6U2tMtMl432ZmVP1lWLMyT2OiIC8sAKX9za6f86oWt9vuSOTkye1qGFfhYSZUcOlZh95ExIomxUTJv5hRZOCtbxo8bK799Y4+Wp156NacC6ejsMQzmzciU1UumC+XdvLvI7tPe0W3va587PVPm6P0zFLNQyqmaRtl75KR99LEyMzddy50leVlp/R5Lmdo6urQ9D0vpqTrp6u6V1MRYWX/rPElJjJGwCaEbiuMUw+z0BFkxL1uyJyXasw+dqJbdRyuktqG1XzkjwyfI1IwkuW1JnkSGj1fMz0pRWb28t+eEtLZ3C/1y1YIcue/W2VLf1GZ17uzqkRMVuhx001G719TJSbJg+iSZm5cuCdpOz75zSLYfLJMubSckLzNZ5udPkvwpydY/unvOyIGiStl77JSc1j4fo/1txbwsmT11okRoefQRWoZa2V9YaWUJpVTVNcmBgnLZcaBEn3tO8rUdac8ZU9P7PZb27NE+zfg8frJW2ju7rU9u0PaclJog4WGha8/hqD/jtlTH1LZ9J+REWY1M0P43R8ft4jnZkp4S3+8RnMs88Prmw1JzulloEPr32hWzJDYmQsbpmB+pwpx0qOiUbNlTZH03JyNFFujcMvf83BMoN+15Rl8l/dbWo1JQXKV9vVMiI8JsvmVuph+OBLlmvaqzs9Oyz0+dOiUdHR0X3q89Z84cS2zjd3ZWI47Oh81bpk+fLtHR0cJa8ZMnT9o5AM2HdeO8DjQ9PV127txpGe68oCQgPT09tmMbyXQrVqxQwrv6VaecW/cdl4NKThBLWNg4eXfnMQnXiTElKVaitIMEpLm1QwpOVCppHtfBxHvJlcBb2iUuOlJWLcmX5ISYkPWf1vYueX3TQWHyYsJuaeuU0op6KyOdOHgyYkAc1gGx+1CJTs5RSqbd1vGpy4pF+Uq4ysAq1GfLnuPyzvajNiGkJcUpsWcoefTYtQcUk8iwCdrWY+RAZYXe45xMTI6XzElJRsicR1n47DxQbCSXquVh0iwqrTHCrK5vlviYSCOkd3cU2HMnpSXIWCWFUAjtuetgiSlgbTrAmfS2aHvRz9JT403RCQiYFpZU2wRJMidEVdfQopN8lKxanG/nh0rCtVxrb8o3sg7Tfk/7rFsxXftTh7Vtp+IVkCwl9mWzp8i0rBRpaum09hg3doxOYF2y7VCZkfP07FS575ZZ8tQbBwx/cJgQpEBGR4ZJSny0pCfHyh3LpsnhEzWmHOilJvE6ySfFR0lMVLhicVZSEqJVYRmnuI2R17cXSYSSXaIqhpzDJAshLJuTZc+oqmuRNu1j+vOwC/WArOmn9NcwLccO7WuMPRQ/2jPQlVAaiytqZbseb23r0vlkrJatUZLiouVmbc8p2m9HstBub287KseVrLu1/Sn/61sOS5yOH8ZxMEGdVsWMMQ7pJWi79uh4REGh/VYtnibR+j0ShfY8crxS3tM5tkkVQeZR5gnmkmwlYcodmBuYY0p0jtup45k5jbYvqzotyVpfjKPcKakjoopXn7W02kxYNTU18tRTT8mBAwcsE51Jjkns93//92XPnj22dzlvA4OgkYULF8qnPvUpmTt3riW8vfbaa3Ye10HMJMWtX7/eCPm5556TI0eOCEoBQsNB8Jy7evVqWbJkyVUnbAY9HeWd7cckSwfzHz661gbHN//2CdXoqmV6Tnq/TnGqulHJ/YRpsJ++Z7laOxNk465C+e8Xt0t+dlrICBtCrFer64V39smXHr5V1iybadr1n33/13JciRGinZgSd6HzYtUeP1ktUzNT5fMP3mKW8Ls7jsqrGw/K0nlTzULGuq5QS/T5t/cq0cYa0QbapaWtwyZJyO4bv7deJ+sJ8sNfvmXkW1haJZnpifLw+psuPI+J4ns/+K3dIz97opHz9v0nbNJZc9MMuWv1XBucf/I3/y1HdJJZu3KWjFWFb7iFPtXVpZa9Tu5MBN/44npJUuL5zj89KwWKCRr8tJyJFx5bo5MAE0eEKmf3r71J0pLjZNOeQnnh7X2qwSeFjLAh27iYcNlw80yzdJ/feERidaL626/dI9OmpEi59rOKWrWazsv8aWoZ56fLG9sL1aouNgt59cIc+fhtc+Tg8SojbMZleW2T/O3P3pZWVTwHSs3pVnlr13HZuK9EctVa71JlOViworl/jfazdiU+rO0H184zcoewe7QPbj94UjbuLZZKJWgI/M++uNbO23GoXErUSwX+wy30JQi6Scn6//ri3ZKok/X3f/KKHC2ulEVVWdae48b0WZMNzW3yxpYjpmQ8uG6x9UUI7eV3D8jE1LgRTdgobK2qqL2qSjlW8gN3LTal+E/+9klTKiGzYIUDz9d+HaOM+y9/co0pbyjEv351l3q5poxYwqZO+46elHIl3m//4f2qAEbL/37yXTl6osq8C9O1PQOerRZVut5SBQYv3sdumy+L1ZuIh/Hldw9qP4i5sQkbCxnS3bx5s3z1q1+VxYsX2wBsadHBqa/zLCgokJkzZ8qnP/1pW0oGMW/btk3+67/+Sx577DF5+umnJTIyUv7hH/7BCBrC5iUlWM0kxn3zm99ULbDngvUNcf/1X/+1WfIPPfSQTrBX370BWTMYmLAnpcVLslqIyBLtGGiwuGGCtbhadT0V6sT/8TsWKUnGmuU4TSeFvyl4ydw1oRIsi/Lq02bBpqtrDwuwQyfp1UunyanaBjlV09CPsEsr6qw869R1RN2Y1PYeKTVywnpCcOkXlVbbdVh7URH9NXKsKAZKj7pGxyu5osFPUI2fOgcL92OyKNABlzslzSZJBKunW/sAVgNkAqngBcBzESrrmmdhnWCBTtb2TFVrcqxO5vNnZkpFVaO64Sr6EXZDY6tOemXWnpPV6qf95ymp/6+fvGaek1AJVlCuTsBY05Af38gmJVMsWKzuYMIGc6yrg0VV1u5tSsjtHT2yeGbGkN32uMohZci+V9tjoJRXN9lPeFGQ0qoGs9jSkmJszBI6oZ3hZP7GAwC5x2koJSFWwyyVeEyGl7DpNyXal3ke4xOFCjKenZchRaqQ7jtaJnna51T/NGGcoCjSnhBcsiprhHl++Mu3pb6RUMG5C+GgvitGzv+3KbbUCYMBD1SSEhKelhUL8lRZabfQVDBhM35R2u9fu9CuSVWlnfH802c261i7WGEbKTU9qYod8wLjDa8e7TlDDaOAVy9H2y1A2O0artqh7Xn7ipnWzowDvAf/8etNUqPGw0hpz2tiYbe3t5vLGoLFlY0bG0AgX74hY0iVJWUcnzFjhr0xbNOmTUbMuMxjY2NtfXhMTEU+25QAACAASURBVIxN0rjPA6Cy+UtAUAJeeukle4/3vHnzzFLHxX61Bcu1Vl2gkRETLIaLmw+iws3MACdeHSxYHg36W5qSXGR4mGGFO5p4JBMp2mMo4p6QXZNO6onq2qOsdHLclekpCUbWTKTBwsRFDBL3NWWjXuHn4z3EbLked1qBWin3r11kLmSegeBRYQIgVr1dQwX/4++eNGsKS2e5xsBzNU4WvBUuzzqgpIclO1EHYJS6XvFcrFTXe3XdbtWG95vLvVknHybR+RqrCtVWujy3XkkYxYAwRSCOR6iisqbJlLBggXSIF0PUlBvFJFIVF9xt1JdJJFy9C8MtKEjJ8ZE6EXcaKVLu3t6z6sFoMbKmLwZLiypfKCOzcycq6XaowhYhuZlJkqDtFBNFuceapypTXfj/4/O3S6f2w8KTdbL7SIUUltXZrfqIuC8meCleZSwEyxx9Fn3spBI3wrg4e6aPkOk/8VrGdB0nPKtSvQGM8+EWdAfajD5MLJpvJFGVGlzxddp2lCsgXdrnq7QsuI9joiKsPWnXCXod3h7adKTEPQdixdxBfWh73PxgTLuiUJ/QNkRhChbGPB9yaJhzaKsInZO4jhAY/SU4JDLwedfqb+bUMfofeTeB9qRtKXuteoECCiPlow5VSsy0ZRxxecUjSrFhfHKsU8cn8/C1lmtC2BAye5NjGbMFamVlpW15mpmZKampqRe5q1n/jcWM9QxxEc9mB7YnnnjC3iIWuJb3c/fraK2tZq3zDMiafdEHe393VVWVxdVxnyMFxwokOyd3WNqIwQ5RMbADnRs7gUma5BYGUbBgTUKEuIjHaufBisS9SQfimFmvwz+/230pC6QbICEmaCYfJnrCGcHSZ9Wes+MMDgiS6/hgKROHJxaOAjBbY9aQd4CwSTDjfCYLYt58IlRJYDJh0sMSSNDrAhFo3JDEr/FEYNWa0nO2zypnIonWwUbsk8FGuYgzUp9QJOgFLD/KgEs8IKZEYfFr+fu1pyqVTOIcp760Z2CiPBtoz35XDM8feAB4JgQT8HhY2dWdb2VXT0awkNRFTHnp7Mw+LLXPQezgaWStBS9Sgn5BXes1DW02eU/PSrW4dLW6/dvUGsflOhQJ076MZbpqwVTr69sPl/W7jGfFaZvevXKGYXqi/LTU6yQcTJxDec5Qz6HN6OvBijD/5reB4zPgyaHtif8i1p5apz6P0dAwGGrZhvM8iCq4L3JvxiFjnnrR1sFCSIsPYTnqyLl8Y/j06JzANTo7DWcRh+Ve1mbab1BaA0LojfkBAg5W/C41P9P/aFvOY+6TERCqvyaEDbFiNWNZb9y40TZiYW03SWXEmHFhY4UXFxdb5+A1n8S5iVNjWfO2MPY5/8UvfmE7sE2dOlWWLl0qixYtMjJHIBaIly1Vsb45zvWDCa8V3b17t2zdutVOg7wnZ0wZ7JIhH4PMIGo6d/CExkBAAhpg4IZ9A6KPeM6ddx3yxeRug0Y/oZAAiVCuwMRIh2UQM/kzeQUL5YZ8OB/7AyOE87mWY8QEsVyIceNqw71EjJn4ILFyLMuTlfUa94uX3/3EKvMi/PSZjVKrFiCxbcvy1gdgGZ5WT8Sew6XyyQ3LzF2PBOJUJImQcX3L0ulm+f7Pf3leDhVWyNK5U81iGnbRMmFNUc8AEfIMsx4Vg3Ha1sESGPycS10QcGLypC3HDMB1uMprFjVKC2R7vs/QXtYXrez9rdUjmk+BPHDbXFmt2eC4opEm9VpAqlyz40iZHNB4NlZ7omL72Q2LZMXcbHlXY96lpxrUA3RlsqI8KAa3LM41hWDjvmKLWwdLbHS4WfoQ9ub9JbL1YKmVIVQy7vzkHNye/Jt2umh80v56PscDlhp9n7ENvgGsQ1XWj3LfC31Ry3qhL2qnZQzTFy+qq/ZNjAbmAOqI8M1chhERKi/WR6kj11o9tJzBHp3A+JuAlzVoCqUO78/P749Pw2cEtec1IWysZGLT7El+6NAhI+xAjPoP/uAPLPv76NGjlu1NTBuCv+222+TRRx81d/mDDz5oxI71THwbC3r79u1y5513yh/90R9ZO7eqdb1jxw759a9/Ld/73veG5AonQ53Y+Ze//GW7x/e+99c68oZHc2SCwpWLW5K4IEKnx23DABromuxztUZIg5IdSTt9Fq5anepmxuoO1hrtZsMkPDdGXWVYswErkYF8WkkQMsVNHiy41Ojop5taLRGMMYD2DpHiXqqua5b3dh1Ta5kEwTHmbmOgT9NYEhIXEyVnVHtlKUysupaZ7GbmTlKlred8TNH42oid7E1InyUlxPURrPVNuqSLpRooBVhExKtwmTPYyAUIBWEzUaF0UK7gnIJmDScwwWNxBgvlwvonRoh2T4YquBI74xihgFBItz6jUbO9KU8gVIFlTfyadqI/BguhmD0FFbbMqk/JHCvrNWFtli6x4lggU59r6b8NGn8/UV5vGeF5mmBGFjchmysJ5SEu/rVPr7bktfc0wYz7B4S+QgLclz6+zJLdSIDDwg6V0Mdwb9MmhF4CQlIkv5EsyTkBoc8T3qDtcQsTX+c8/g0ZYI2OVMErgMeLenacj0EHFGK8HmT5B0uUjnk+rGpgKSKKCt4zrsVtPBLd4ZSfODRjsSkoR4T26tbxR6gj4EHkXOZnvD3tWifGJPkXkDvtyXnBK3iuZbuGZpYYQo2w1CBfCJJ3bvMiEZZl8XIRCJv3b991111mQZMpjiubd3FzHdoQrnPe141ljsX9q1/9yixxhEYii5y/77vvPrs3lvmVhHsHW5C4fAYYIFe6xWWPQ4QkM+CKrNKMaQiQSZtlBiR+kLEYLH1Z0GmWKT4pLdFIvuhkja0tJpEoVFot8dgMfV6dxnggWwY1SgXrnD9+5yIj1mDJmpRsFvTWvSd0jWOqxm8b7RpIFQ33s/evlA2adRnQbN/YfMiOkxVPBjru8h37j5vrqUdDJAz+ck0WQTGxJLzzkyRLLFjzPH9GlsQHxaSY2Jn865TMWVaTnZFs8bZateQjNY49cN34ZRvoAx4gtDFV13TiKiNmjbcgTuO9BwrLTZmamTu53x2ZIMgc36vW6aTURCM+1oeSpIdCEar2ZO00WdVYwuma1AVW9B/WOb+tmdwnNUEuWCg7npQO7aeMowXTp0imhh9IUkPRoB9DXNSbOqA8pmuCVpqS1ymN6ZI4eCWJU8v59qV5smZxnvzb01tltyoIZGYHyxq1vG+enyNlmsXO+m7i26FyhfNclOZs7ctIpWbAoxySX8GyoBbtT7ctn9lvgkfBXjo3xzKOJ+t4oT/s0WRLkrVQzEPVnlfCdijHUbIZWyiXVVrXRlXOmZe27y+WZfOn2lrlYKF+KMFkUfNvVnCc0iS02bo3g4XCgjWZoRTgKp3DChPapbK2zjx7tGehJssRcmP/huDQB4RM0iDLVzPSam2MMDcT1zdDZITU8ZoQNi5vkscAASLlY1aJJouxVznu7Li4OIs7Q+hY2QjnEPeur6+3eDZJacTCOR/yJxmNf7NUDLImce3ee++1xLVrse46uF9CXmRcYwlCPj95ZpNZPEyCgYX5WIpoeWQ1Qox0oBfe2S+/eX238RbW0H2aqUmiWqgE7ZsOetP8XDmo5FOia01xhUEqWLDElUkcY1LCXQ3hYF2zvvgXv91i2ixxvFt1idX76xf71jCixZ9QpQOXdWZ6kl1PZjnJLCy9+JliAmGTfc3EMGda5gWv1UkdSCS9LV+Qq8uS3t+QBcIgQW3P4ZPyzrYCOaYuXTJXUYZQGgZ6LoYLNxSFWJ0AIGEy/H+ibnw8ECg3tBt4sQyPpSS0J5bJyoX58qImxrGUi8kCa/sOXVYzeYASNFxl5D603emmdtmh8eF83bDkC/ct1V/H2ARdou5r8F4+N8vOKVfFI0EJnXXWM3TpILkVyapoYPm+vLnAviH8mTlpGrdOMVcwBD9RFYFjunkI5M/mKBA857B5Sob++/al+UbsnLNN3d7zdHnWqoVT7XiNWm3r1eVNUh7Pf3NHkZJ/tC4lm2obtFTob7cumqrrsKeYQnBYN3zhe7jJm7kIzxIbBO3WsMtPf7PJkowqVaFk0xSWM6I8066TNHyDInibKpyMz1feO2j9jX5NGw/cBGk423M47gWJ0S+XqMJBOOo/nt5kczFKM2TNOGX/B8Z4po5NlOBZDZPlZa0ny0qZswjNsUkMxDZSJTpS+7K2HZu9/Ezbk2QzMt6Zb6YomRNeo91QRvAGMme9/N4BeWPrEesDKDPzddkam+eMFLkmhE18mvgy5AwxQ77Ej4kZY1GTYHYpgbCJR0PILNEKWNxFRUVmGc+aNcuu5R3ehw8ftntxfsDytkGpWeXEyq9FpjiT/JplM+QdXcMI6eFSREufqzsMQW6QFnUk05gPWc5o8Eaaarlk62Bar+uMGWyhEjBiUiKjm3WaECCxxLUrZ9tgZgJjiQd1oaNDukxyJeV1RlwMegiLzG3cTMGCkkqsmmxa3IncgyUirNcm9sdSKCydNL3vbMWEwRbQbLH6IL1lSthcHxCS9pazHEUzmlEwDh4r10PndKe1fFmgO1SFIvM68GzKv1I3yYA8NrOTkoZuF86aYkoZlgeTIe5/XOcT1QplxyzWrR/T5X248pn4WQfLsVAKLuoXNh2Ru5ZNNyLmb1zQRZoRjEKToeuG6XdValWawqZts2jGZCNsloIVlJ6SnUr4eEloUwgV0uUa2ocs8S0HSnXns76VDvQXdkubozudnVBFC3f/jJxUI+Wdh3XMK+mzcRC7o7ExBZuNcC9crfQRXLIoGtwPb8kMJX9ikbiZWTdeSTJ6X5hxWGGjPemLLDHEmqQ9507T3b906SUTO5M9oR7cpUna7/vas9r6LZ4ixiU5FJDcSBYwtpwPXYr5hm6WQiIof7M74XQNfaDMlWtdEZa3Mc7n6c6BfXORgq/YMz7pu7jER6pYWEXHIuGbVzYekHPantN1J8KbtI3jtA1pM/o/H5axztedE0/ojnp71LJm3qPNWeqWk9nf43At6ztGB0oIuv7gVYKciVn/0z/9k+1axqSGe5tlWt/4xjcsEa2kpES+8IUvWHIahI5wHmTP+mvi1o2NjbZcCwscS5rYNolsd999tykDWOxY3gHhXDZe+f73v9/v98uV9i/+4i/NJf7Y49++3Cmj4nd6QKcqBNegK1xV/MKUEAYqEVe1AFfpYbiq13/1R7LrCMrL6BY2dXnuH744uivptRt1CHzn24+rIh8r3/rWtz5Q3a6JhY0rm6QxEs8C24facgolVAiX5V0s5cKVHbzJCedA7F/60pfkkUcesWsDMW1c49yX83/0ox+ZZY0VHRyTxhqAwAMKwAdCyk92BBwBR8ARcASuIQLXhLCJJ0OwfC4lge1IL3UMAmbtNZ/LCa5xF0fAEXAEHAFHYDQh0D/IOJpq5nVxBBwBR8ARcARGEQJO2KOoMb0qjoAj4Ag4AqMXASfs0du2XjNHwBFwBByBUYSAE/YoakyviiPgCDgCjsDoRcAJe/S2rdfMEXAEHAFHYBQh4IQ9ihrTq+IIOAKOgCMwehFwwh69bes1cwQcAUfAERhFCDhhj6LG9Ko4Ao6AI+AIjF4EnLBHb9t6zRwBR8ARcARGEQJO2KOoMb0qjoAj4Ag4AqMXASfs0du2XjNHwBFwBByBUYSAE/YoakyviiPgCDgCjsDoRcAJe/S2rdfMEXAEHAFHYBQh4IQ9ihrTq+IIOAKOgCMwehFwwh69bes1cwQcAUfAERhFCDhhj6LG9Ko4Ao6AI+AIjF4EnLBHb9t6zRwBR8ARcARGEQJO2KOoMb0qjoAj4Ag4AqMXASfs0du2XjNHwBFwBByBUYSAE/YoakyviiPgCDgCjsDoRWD86K2a12yoCJyTc9Le1Su9Z88N9ZLr8rzYiPEyftyNoaOOjU2SsYnd12U7fZBCj4lJ/CCn+7mOwHWNgBP2dd18w1R45enuM2el98zoJmyt4g0jY8IjZUxEzKiv75iwyFFfR6+gIxBA4MYwN7y9HQFHwBFwBByB6xwBJ+zrvAG9+I6AI+AIOAI3BgJO2DdGO3stHQFHwBFwBK5zBJywr/MG9OI7Ao6AI+AI3BgIOGHfGO3stXQEHAFHwBG4zhFwwr7OG9CL7wg4Ao6AI3BjIOCEfWO0s9fSEXAEHAFH4DpHwAn7Om9AL74j4Ag4Ao7AjYGAE/aN0c5eS0fAEXAEHIHrHAEn7Ou8Ab34joAj4Ag4AjcGAk7YN0Y7ey0dAUfAEXAErnMEnLCv8wb04jsCjoAj4AjcGAg4Yd8Y7ey1dAQcAUfAEbjOEXDCvs4b0IvvCDgCjoAjcGMg4IR9Y7Sz19IRcAQcAUfgOkfACfs6b0AvviPgCDgCjsCNgYAT9o3Rzl5LR8ARcAQcgescASfs67wBvfiOgCPgCDgCNwYCTtg3Rjt7LR0BR8ARcASucwScsK/zBvTiOwKOgCPgCNwYCDhh3xjt7LV0BBwBR8ARuM4RcMK+zhvQi+8IOAKOgCNwYyAw/sao5sip5ZmzZ6Wn54z0njlrhRo/bqxMGD9Oxun3QDl77px0dffKWT33nB4cN3aMhIdNkLH6HUrhWTyzp/eMUN4xY8ZcKCf/DpazZ8/JmTNn7FzKS134jB17cX3O6fHOrh67fPz58/h3d0+v3kPrqMcRruU42CD83qv3B7PAOePH6fHxYy88J3BOTy+49t3HyjIhtF0cfChb33MHb0/KSHtyDVWlHcPDxlsdQtuifX0njH6mzzyn//WeOWdlps2CheYdp+UJU2z7mnqM0Ma0b69+8xv34bj++X77aNt06/2ox4QJintQf+Yaax99Zrf2/TFaBo7zoZt09Whf0+t5zkAZqxdHho+zZ/Xq/TkvlBKoK/VFGJf0o0BfDH42pe3u7jnfL7U9tawX2jPUDToMIDDmuhnj+k1xGU8TxtMfLy48fbabueh8G4FLGH13wHwwDMUa1ltQ3l6dn+h3CP3f2lM/lxLGJ+czLKga8y3XDJz3LnXt1fgttLPZ1ajBdfaMwpJqeXXjIdm0u9BKvmrxNLnz5tkyO39yv5qc1QFSU98s//H0JiksrTZSy8+aKF/+5K2SmhQrYSEkIiahghOV8so7+6SkvFbiYiJl6fxcuXX5bHt2sFTXNcnO/cfljU0Hpaq2SdbdOl9uWzlbcqekXVSf9o5u+ccfv2QksXKR1nv1PFVeeuWld/bK9n3HpbmlXSeAsZKfM1FuXjJdlszLtXs06e/vbT8qW/cUGuFz/bL5ebJCsZt6/jn1Da2ybW+RvLvtsJEiM9Adq+bKhjULLzs4+xXwQ/5xoqxW3txyRN7cesRIadmCXLlT679wVtaA+p+T5tYO+cnTG+VQ0Slp7+ySKelJ8nuPrJHM9ESJCJ/wIUtw5csgmzlTEuXeZdkyJztR2rt6ZdPhanl9b7mU1bX2u0G0lmN+TpJ8+tZ8JcrxSlRjpKiyWV7aeVIOnWyQyLBxct+yHPnsbflS3dBhRFrX3CG7imrlv987LuFK1g+vypW1CzIv3Dc2aoKcbumUjYer5KmNJ2RiYqTcPm+y3KnnZKREy09eL5C3DlRIaU3/sozTZ09OipZvf2qJ1OozXt9bIW/ur7hyhT/CGaWn6uWd7QXy8nv7jZwWzc6WO1bO0v7W1xcDtw4oX7TnniMnpaWt08bGlx+5VXKz0iQqIuwjlCL0l0LA9MMX3t4ne7X84druqxbnyzodM1MzU/oVgHNPnKyVn/1mk4APQv9+9L6VkpwYc0llJvQ1GNoTKqobbK79zet7tD3PytzpmXL78plyy9Lp/W5Ae6Kk/eqFbbJt3wlpaG6T2OgInW/XyOy8yRIdFT60B4b4rKtO2F1dXbJr1y558803rWrt7e1moY1XzS4yMtJ+y8rKUu0tTI4ePWq/Y4FMnjxZFi5cKHPmzJFTp07Jnj175NChQzZJ0hBTp06VRYsWyfTp0+Wpp56S8vJy1Qi7L8DX2dmp2vI4ycnJkUcffdTuf7WFCeD1zYetM9y9eq5ERYbJ5j3HJT01XianJUhCXNSFItWcbpFdh0qlVr+XzZtqVsnpxlZ5Vjvex+9cLBkTE0JSfDTL5pYOef7N3ZKcECO3r5yjBNgjm3cdk5zMVInWMkdFvt950bRTk+Nk7owp0tbRpZ2+V7rOW9HBBWxoarN7NGrd0eCbW9vtMOSbpM9ZqBNjTFSEtef+o0oOheUyMSVeMiYly97DJVJV1yjZGalWBu5VVlkn2/ceN8Km/bfsPqa/1RvJx8VGmYLDsVBqxrTnezuOCZMCE110VJjsOFgi+46WSdbkZEmKj74AwWkt857DpVqPJpk/M1PJMEyq65uUGA7Ix9bMVwUnNSTtyU0h2Y+vyJFOtTJe3lVmVtHKmROVIFukoa1LWjv6vB6cOy0jXhbkJkudEmzBkUabjDOSo+XBm3OlpHqf4RkdMV71oTHy/I5SxfmsKQCVDW1W/l5ti33F9dLc/v4971mWZfepb+609sZSLqttk/2l9ZIQG6ZWDBb7xRYPZL12/mQlv/GScDZcIP5QCn1vmyqOhSVVqkTP0b4eLvsKymS3jsM8JWHaM9CfmlT5guhO1TTKzNxJNnbpB29tO2rzzKy8SaEs6ke6N2Mca/m5N/eaFbnh1nl2vy06nrK13yYnRJuSHpCKqgbDoaG5XW5Tsuvo7JZW7TcvqkL/wLol2obvz1sfqWDDfDHtyZhDoULpgnSPHK+0MUqbJWk98SYhGBN7dd4pqzxtCsuKlFxTTrbsKTKLfKACPsxFHfLtrjphmybT0yMdHR1WSEi3qalJEhMTZdasWVJWVialpaUSGxtrk3dERIQNkurqaikuLpYZM2bIpk2bZP/+/Xaf8PBwnQB6pbGxUVpaWuyeKAXcH8LmHigEW7ZssX+vW7fOJvirLbhzG3XSxsLOy0qVB7WjQ9gHC09JpQ76k9pRggkba5WOljU5Se5aNcdIcotakP/x642mHYaKsLGu61RJKCyulBUP3CLLF6olpSSzQ63oMu3AkGgwYcfoIMjPTtdBHmvKBZPcQIHwrT6HSiRNyZ0JA2GygPCn5aTrAJpsxI97rqLqtConbToZNkiGWqGlFXXapr0yR7XjNWrln9S/sfw5j/PrG1vk+MlqI8G1OtEmJ8YaYUMql3LvDSzfh/kbq6NRJ7CikzWqaIRrey6WGNXISyrqlYib9buuH2HXNbTIViWDiSlxsnbFLElLipOdB4utPZfMyQ4ZYUOEqfGRMnNKgjyzpdgIO04Vi2XT02RKaoyU1rb0I+z0hEiZlBQlJ6pazAIPU4t5/ZIpskIJfoK6TM2trYQLQb+oVjdkHSwcP1B62j60b5S6TReqAoC1joXOOGhq75b9JfX63WXKQCcekQESpednp8XKvOxkLUuzuSVDKcwNtCceE7rnA3ctNguLdqtV781xbeeEOTnaX/vKwbnvqrLGmF2zbIZMzUixCf8/fr3JyGAkEzZKNWP1qHrR1unccv8di7QNesxAYB6amtnUj7AhrmPFVTJjaropl4ytt1Uxefm9g7JODY+RSthNangU6zjEK/fAXUusPX/+2y02No+pUraE9gzvI+xW7Yvv7TwmkRET5Gb1NMzJz1APRIW155RJSTcuYUPAa9assQ/y85//XE6ePCl5eXnyyCOP2N9Y4JMmTZKvfOUrZnVDvJA4hA05v/rqq5KWliZ/+qd/KikpKUbcEDbEjOX8hS984cLY5jfIHhKHqO+9916NsYVWU7/UxAIRnlCSCdeJiEmbgY61MW96hmnmJ8pqZP6M992I9WpNM3l84cHVZumi8eZMTjHCb23vs1RCET/i3lizSfExRsLRavXGxnSrBZyjg7zZ3PSZavUGBPLm0xcX0s7PLD1AUABOnqo1cp6idcA1HBCuS09931uAJyFW68rEjhWAREWES5NOkGBC2SBy4qRY5rixjismYJF43gLiecTXItUtGSoLGysRRQLLkfbk2QgTNZM7E9xi9RoEpFHd+mj3tGd6crxp99NU0SnRyRBrDWs9FMoF1nBWWow0tnVLbVOntKg1DfntOl4riTFhkqmEeVxd3gHBCsdqTo4Nl/TEaLNuIzT8Uq6uc2LYCFhHKP4Tldwh7M7uM9KubRWI4wfuxXNweaMgNLR2mUWPUAY+kPI51Z0DClzgOr4h8iy9tkvLU3iqyZSIUApjEbIivp+eGmdjDpmm4Zkjx0/JYf1gZQVyTZjg9x4plc9re2ZMTLTxPFcn+craRrNEQ9Wew4EB1iREFhcTIWnad+NjI2Vs2xh1/2ep96rdrEzIOSAo2yih69USh/RQjFG8UVYhQ5SdUI2zj1LfCp0nyC9J1zqmqOseyVNPFvPPwWMVOvdmXghFdXR1m2fsAfVeZuscRT0Zv3/376/ovNNm3HGpvJyPUr4Pc+1Vt7AHKyQN/9JLL8ncuXPlwQcflKioKOsIWNG5ubmSmZlp5MwHV3l0dN8kyb+Tk5Ot4wwUrO4f//jHRuYrV640lzouq6stEBBWI7GtgIUKtTHQy9RSJAYWLJ06ETa3dhoR9CWyaLKETpJYsFgkkFko4p7EfyHteHVzTVDSQ0jwwh2IZhpIGhsqfrTJAXWnHdDB8Ml7V0qxDvJgwg6+D5Mc7jZckgwYi09r+99y00x57o3d8uuXtsuTL25T91WX3K2x8tU3zbAErhpVJCgXFvyO/SfUXdch83Ry5bp5M/rHkoda7iudxwBmYqZtcOUHBMUKpYO2C5ZuJTXOj9PJkXajX6OsRKsyQkIMXggUjOGW8AljJUEJs1kJG2JFzijOxJRT4iK0P/ZXXnFnx6rn5w/vmSPrF2dZwheW8b+/etQs8Rg9P0p/m5eTLH/3pZXS1tkrWws0Hr6nXI4psQbLBO03y6alqXu8W45VNA65auh8N89KV4UhSn75XpFMnxya8E9wgZg6yJWgr8dGv+8O5t/MImawZwAAIABJREFUF00aQw+eXkgcrdPxTNszpmlPEploQ0gCAriUt2nIIITwxG41eggroRhHns+dQFlEAa6pb7HQVrC065jkk6qk15dQOsZyaCDuNiV/+i/jYKQJoT3ahbksINE6r6DME5ZkvgkICjjETPsR9uM62p2/8eK1d2rfHwFx7BGDMhMg8ez6+noj4oyMjAtam01uahVDzJA1ceqDBw/Kn/zJn0h+fr79DRFPmTKlX5/hXljru3fvlg0bNsiqVasGjV0XFhbKzp07zd2O7NRrFy1e2u+eH/YPukYg4zrYMg5obcGdh2dAdHzMFcgMpsL/QwaBYx+2LINdh4URsA6CbWXK+WGee0TdSsStM9StlKnu7QrV3i8l3LuxpU1++9ouy8ycqYkeKerapgzlqtDgjr112UyZob+f0phapWrPezQWlX5bglnZxIaxilYvnWlW0jZNUNuvIYVE9RTw3FAIxEffDLaMA/8eGHa5gKuef745rUHt3+fbOhRl5CGUCQuS/wLSV3as5f5PTVP3eUJ0mOwsrJXdx+vMwp6ilu49S7M0+axJLeoeeWv/Kak43S4NLV2SpJb4jMwEi3H/42/3m3UeyDynzZYqYRdXN0tBRX8yv1xd6e9L8lMt7n5SLfJT9W2SNzHucqcP6+/0+0u1J7+dwRUQJNae6v4H2+D2ZGyDcjC5D2shh+FmlM3GuPXFwNzS108Yh5eci8wD1H/lB9f2GUkXG0rDUMyPfAvrh1q9fvPt+TrT/we2Z2B+fh+TC1Pv+Xp+5CJ95BuMGMKm4QPWM+SM63ygACQu77Vr15qrvLi42D641HGZL1u2TBYvXmyX4QIvKCgwix1S5/eBhD7w/jw3JiZGkpL6JvhA/HzgeR/mbzoNljXkQgwIoctgURJrhaSChSUWaK1otngHzp0bb5YR1wYvefowZRnsGiwMyoLFimaJ0PEp52DLIS53z6LSKnP3U8dX392vruJKc2njUjt4rMzi1zwPd/teTRA5rhnxSzTJbs60KZa5ihxUC51ZcZXG7rGYa9U995/PvKf37cueD1dtH40/XRP3li3MMzd1kVrpxBmJc4eCsOmLWKcsAbGs9PNiHght2IHej/E62REf4ziu475Js29ZDW7Wyy0zuRyuQ/2dSQjLOkIJMLA0ycqu2Abi0cH3yk2Ps9g2WdvbCmrsmg0awyZrHMsbV3aBWsuFSt7cN1mt9ElqCc/VzPLk2Ah1u2vuSO85W/aFWx2XOxnkA7PRL1d+CHue3itPy4G7HdKfnZWk2eJRAoZkrB8ta7CxMJwCbUVo+6BoBSdN4vngt4HtSbISOSi0PdZ2gARZJgWJU+6RKn19kbLTF/u8LjbG1VoOLNcKLjtLI/HuYXknn40x8qJfEZ4kxyGQuDXS6hvBnKrdpCMoCZY6n9E6B7wigTKjjESrNU18P7AEDMWFtmW8MPeNBBkxhA0YuCD4QFB0BizqS8ktt9wi8+bNk5KSEkta27hxo8W1a2pqLhB2RUWFWddHjhyRv/zLv7RktYEa4sB75+TkCJ/77rvPDrW3d6hmPfCsD/c3DT4xOdaIj5glAwUSJz7EAE/ReGGw4E4j7kKGJst/GEgt6uplAsWNFar1xUxMJJFAdn3KArHkHiM+XGYkVn0QYSKDpOrU1VauWdxkuuNy51OgcUHiRSghhwsrZItmkfP3ojlTNdb9fpy8pKLWSDc1Kd4GD2EC6m/l04mDZLWJmmmfGKfhA9zNWkASzyB2MAuFWHb8+eQ2XKm0J21DjJ8JfuDyN1xrxNLIDG9tT1UCGG/Z+BYP1jKHapkeMek6zc6Ojw43dzZlhEwz1WqGEJvUVR4suKFJPCupbrHksg4lZUia/suSLQiV38/qB+F64tMoIXGRLN/CnXpWyX2C5E+K13XTZ6RGSZxzhioKSZ9lr4rDLF2OhlIQo5Y+MrM8wdzrw07Y+tAU7d8oqYQumKjHKU4kZxF+YgwGe1JQpjPTEyyvgvFMBjJjxohfiSJU7TlUDAc7D5dwmi5BIzRFKM72ONBPuebSROixxAFZ33E65vkQEptIYqh5Q7suhABCpWwOVoehHCNPBMH9b4aOcgthSeYNsuED+QicQ3Jmhi6vJFENdzlxfb5hfMbqSHH5X5oRh4LGMJ8DUeMKx3LGNX769GlLLLucxMfHy/z58y3efdddd8nf//3fy4EDB+x0NMCXX35Z9u7da4lskHUg3n25+4X6dxo8P3uikVdlTZOwbjg+LlJ2qVXJOr/pOf2XgTDhT9PzN+myAtZ1NivxsB6bxDTiu6ES7p2uS8bIvK5RcmFQk/DFcpfPP3Srks4Hiyfes3aRbLhtobUJn02aiQlRJ2v9Pn7XUlPQ3t56SJdo6fIJJYQHNyzrly1PPYkLM7GQHQ4xQ4p9a7Y17qbkHabJPpt2FlhGL5Mr3omyU3VmlackhsadyuBnKRaxL5b2kOjGBLG/oNwUm9lapmBBySDJhSVCKCXkNBzQpWszctMvqu9wtm1bR6+5pHFzQ8Z8Q9w3z0yXJzYev5AIFnhmm8bqMF6JUUP0WIop6iYfr0TdohYY3+PUWu/o6tsoh8Q1EsIg66pGJTolaCRF+/ZNmol+oOS0VDX0LeEbSr1QBn76+jH5z7GF5momMe32+RkyU93uR8sb5dltJYbdcAtkTLvgQ2XVBnkRtOdhXauMJ2K+LlsMtiTpk8t0CSHHSTpjfO/UHIqcDF0WpYp2wK063OUcjvthDLBSpUnzGKgrhNalhL1Vl3Xds2aBLp3svw6b+pEY+saWw5YBz5xQocl1c6dlXOR5GI7yDdc9ULJQNBmf1XXNtlytQD1vKGGf0OSyYBLGW7J07lQp1sRgltkmam4R67f5d6qu6Bgp7TliCJtGwgJm2RWW829/+1tbL03CGRY3FjMfLOva2lojdtZmcw2xas5hKRiWOWu8i4qKzAVO7Bo397UGPOBWWX/LPNmuiVGP/6+nTeMjkWGObppCIsgTL+2w5VrT1U3MIFm5KF/+89nN8v/9/A3TapkkPnf/SltaFSoBTyzVT6xbKnt1Atq446h2+vH/f3t3AnVnVd0N/GSeBxISSICQgTCHKQLKJDKUQaFOtSi2iLbL1tZ2OVRXrfNqpcNXP+v6rEPVVq1FLAooKKNMMs/zaJjCECAQQsKQkOQ7vxNOvLm8CSD33tz3Zh/W5c197nPPc/Z/n7P/e+8z3Lx3eKs0IzsODz36RLr25nkl/Ww7F2/12rw96ZcXXJ/T2Y/kATw0zx/fXbZgvf8PDiwLPNKL2SSEbQANyi+RHg/Xfmz7qS/Ng8MCvK/+5y+L524l+u55ZfouefHYga/fMR+scnc69eyr0tn5QAtpLSl1kbj2WvhjFfuNedXuCV87tczzM8B75sNVZmWnpx0FmWjnQbltl+b58s989ZSiTwOfIfN8hzDQI8drcs6uHJjn4L9/6qXpOydfXOYJee5vO3iPNK1h1X2r2yrVuSQvDPvJJfMKCb9h+8klGhalepmztif7wTxXjBCvm5fnrXO7jsxz1vvvNKVE1EsyiX/vV3eUSHuLiaPT67ebXPZq480heZuTFeiI9OnsHNTId+LYYWmPbTZN3zvvjrwFbG3C3jwfnHJgPjjlLXtunbbbYnzZcnbQrlukS297JH3rzNtWn2a2mvdLBkJ7kXR9tRqjWh9Hb7+5s9NF2fn73FdPLf3TNNY+u88qC5F+cvbVJXPiACPZL9st6fPE068ozqjo+rA8vrfJ46Sbi745Ii92tLXUSvdP/d+flnG5dd6atn3e5eDMAOQ9NduiHTJBc0wFDD/82UPphG+eUZzUKZnI/jA712MbFuh1m8z0t2eeXns6ZwO+8P/oc/UiMtsokbdDY9jUWXlx65TJ48pe7RPzmD3lnGvzQSvXZjuzIh2+/87FPndL6SrCRmrmp88///wy//yNb3yjEHYx9Hl+edKkSWWe28IwB6MgbWlzqfC6Xcznp512WlmUZuHa6aefvgZrChO1H3744aW+ThfyvW7O9DJXZuuP+ZVZW08up5xJoTk8RcTI85Ni2yZ/5kAOESVjxejvkfcOjmnzakVGat+525XVlY/nTICU7fR8aMmU3D7RtrShjl7mu/JAZ8R22X5aWSjGwEpXI1TEuXYZkKZlo7B6K9jqFdEMxe5ZJlEJmVenHUXGY8qKahGPeW59YNPs6a6Qis3VOklN5gGm9sbuOHvLkg63V1yxXcX32pmN8Oxdd9gqOyWDyp7W3MRy6IKMiZTa1EzWojTtMmc2Ix/6cnA+1Y7H74Q3jtHcnae3fR+rObmL8yljizPhmgsWxdrKdW9e1DVCX8uEinRFkvMfX5ouu31BIU1OlbUHC3LkLFI2Z23F932PLSlZjOxD5pK3Q+X3yL4x8n04L0o748r70o33PPGStLujSB9a+ExeXf5oWdjGeRHhNZ90pnbtMGf+RE6pP55T6+0s9Lnj7KlFtpvunF/0OS0vltwh61N/Nz79tRbBGOVoOUjENiiZM30NQdQtRO1s62ut27jbd25el5CnSuxS4WyyN7Y9md5ByPpnWfmenfAd8jkJR7xxTkkpK/Ymc+I5nd1a6HPbvD2NHZowbmTRJwd6+5zVoqspOWtAl16CEtNuB+R1MltuNiFPXT5f1tY4tMq2zW4pA7IhbNEs7e8m0rnnnlv2SYuW3/SmNxXDLJV90UUXldXddV575syZydy1NPgpp5xSSNuWLYvQvGzZsrfb9q6PfvSjhcRF1gi/FiQ9Y8aM9OEPf3it6+tq+Re+8MUyh/2pT392Xbf0xHUGc0FOfzLYvVxsbxozonsNTKuwR5xv/sIvy2KvXi/75u1fp33m8F4XM+TrMQQ+/9lP57U4Y9InP/nJVyXZBrdehxxyyFoN5hU5YtRrXeW4445LXusqX//619f1UVwPBAKBQCAQCAT6JQLdu/egX8IZjQ4EAoFAIBAIBNqDQBB2e3CNWgOBQCAQCAQCgZYiEITdUjijskAgEAgEAoFAoD0IBGG3B9eoNRAIBAKBQCAQaCkCQdgthTMqCwQCgUAgEAgE2oNAEHZ7cI1aA4FAIBAIBAKBliIQhN1SOKOyQCAQCAQCgUCgPQgEYbcH16g1EAgEAoFAIBBoKQJB2C2FMyoLBAKBQCAQCATag0AQdntwjVoDgUAgEAgEAoGWIhCE3VI4o7JAIBAIBAKBQKA9CARhtwfXqDUQCAQCgUAgEGgpAkHYLYUzKgsEAoFAIBAIBNqDQBB2e3CNWgOBQCAQCAQCgZYiEITdUjijskAgEAgEAoFAoD0IBGG3B9eoNRAIBAKBQCAQaCkCQdgthTMqCwQCgUAgEAgE2oNAEHZ7cI1aA4FAIBAIBAKBliIQhN1SOKOyQCAQCAQCgUCgPQgEYbcH16g1EAgEAoFAIBBoKQKDW1pbVNY/ERiQ0qCB2XdbtbJ/tv8VtvqpJc+kJxctf4V399/bVqxclcaPHJK2mjS6/wrxCls+efyIV3hn3BYI9H8EgrD7vw5fswQDBwxIE0cPfc31dHsF/+c7F6Tvn3pJtzfzNbdv0KCB6Suf+aO0/aypr7mubq9g2OBB3d7EaF8g0DIEgrBbBmX/rmjQwBxm93h5eumz6aFHF/W4lCkNzoQ9bsSQNHXCqJ6XNQQMBDYmBGIOe2PSdsgaCAQCgUAg0G8RCMLut6qLhgcCgUAgEAhsTAgEYW9M2g5ZA4FAIBAIBPotAkHY/VZ10fBAIBAIBAKBjQmBIOyNSdshayAQCAQCgUC/RSAIu9+qLhoeCAQCgUAgsDEhEIS9MWk7ZA0EAoFAIBDotwgEYfdb1UXDA4FAIBAIBDYmBIKwNyZth6yBQCAQCAQC/RaBIOx+q7poeCAQCAQCgcDGhEAQ9sak7ZA1EAgEAoFAoN8iEITdb1UXDQ8EAoFAIBDYmBAIwt6YtB2yBgKBQCAQCPRbBIKw+63qouGBQCAQCAQCGxMCQdgbk7ZD1kAgEAgEAoF+i0AQdr9VXTQ8EAgEAoFAYGNCIAh7Y9J2yBoIBAKBQCDQbxEIwu63qouGBwKBQCAQCGxMCARhb0zaDlkDgUAgEAgE+i0CQdj9VnXR8EAgEAgEAoGNCYEg7I1J2yFrIBAIBAKBQL9FYHC/bXk/bfjDjy5KN935YLrrvgVZglVp9vTN007bbJG22Gz8WhKtWrUqLV7ybLr46rvSI48/lV5YsTJtNnFsOnCv7dKY0SPS4EHd62s99fSzad78x9KVN8zL7V6R2z0ubT9zStp52y1eorUVWa7rbr0v3T7vkbR46bNp2NDB6Q27bZNmbDkpjRg+5CX3d8uFEcOHpn33eLGdw4akhx9blE4997q0/IUVfTaR7ubuPD1tudkmaeDAgem+Bx9PV998T1r41NK0cuWqPr/TTRdfyHI9uGBRujbr6qHch4dnmWdP3yzN2XbLtMnYkWs1lTwPLngyXX7Db9LCRUvSwAED06xpk9Jec2am0aOGpQEDBnSTaGu15bEnnk535L544x0PpJV5fE6fumnacZupaeZWk9a6z/g0Ji+++s5030ML03PPL09jRg0v43Ny1vXQId1tWquOrr/9/nT/Q0+kIYMHFX3uPHuLNGnCmJfo87EnFqdfX3NX0afeuvWUiWmf3P9Hjxye+3P36vOJRUvTnfc+kq695b6izy03m5B2nDUlbTtj8yZ9pjwOV6bLrv9N+s39j6Znnn0+9/GhRZ9T85hll7qhdKwVpYO/8EK6++6708KFC5P3y5YtK4N30KBB5aUsXbo0jRs3Lm255ZblpTz22GNp8eLF5Z6tttoqLV++PC1YsCA9/PDDpU5AjxgxIk2aNClNmzYtPfDAA+nxxx9Pzz777BqM3eN7w4YNS3vuuWcaOnRoxw0Hma+6+d509U33pEcXLk6D8yC598GF2aANSBPHjypGsJYlzzyfSf3RdO6lt6blmfRWZuPAIIwZOSzNnTPjJUZyzRc38D+yiMWAafe83PEH5MF8d/77aDaEM7bctJAwwlJWZJ0w/pdnYr/l7gfToHz92eeXlb/VgGxgcdb5eO3bLg96hLXV5hOKITvjwhv7JOxRI4YVY3j4/juX+nx380ljCzbnXXZren7ZC+t8Trd88Oxzy9P5V96ebr37ofR0diSHDBmU7rjnkTQuO4+jRgxdi6CeXLy06FMfcN/y5SsSgz8yOzlzd56R71091rtFttoOfZd8SPiBR57I43NguueBbEcyGU+ZNK4Y8Opr0Nn8BU+ki666o/TtUnIFo7Ou99p1Zpo6eW0HvNtk5YBdcu1d6Ybb5yf60ifvvn9BHp9D09is00aCEjjcNu/hdNavbym645Q+lJ23kVnW12UndGTWfzcW+kTW519xe7p3/uNFn/MeeCw9vfS5tGUes2xRdR6XZx5hizgl92f7Rc90rG+/PgdH06ZO7AoRO0rYyPgHP/hBuvDCC9eQLsDGjh2bxowZU0j85ptvTrvuums67rjj0gc+8IEC6DXXXJOuu+66NHr06PT+97+/EPjPf/7zdNppp6XnnnuuEP8WW2yRDj300PQnf/In6cwzz0wXXHBBuv/++9eAvGTJkuIoTJkyJZ1++ulp0003XeMkdEITZNPRz/71zSXK+vyH35rGjR2RPnLCj4qR2DYb9MZOIUK57Lq7S6f6k6MPSCMymTMk//2zy0tna45qOiHDK3kGEr7lrgfT5dlT/dJH3pG90/HpJ2dfU4zDG/fctkQqjIKyLBvyX+frDMZBr98hHXHALnnA3JkuvPKObDBWR3Cv5Jkb4h4RFZm89p+7bdozO1HrKltNmZCzKFPTsBx1ff7/nZZJbHAh73cdsWfRcbcTtmhs0dPPpB//4qr0nqP2Lm1//Mkl6aP/eFIh7c0zmckg1HJnvnZL7tN0/6H3HJTmP/JkujgTmwzEztnB6VbClg265Nq70+PZ+frsh45OEzYZlf7l22fmjNj8tPsO00rfrQb+iZwZOeeSW7PTuSodc+RexSFj7M+59JY0YfzoriZs+nzmuWXplKyPg/bePn3kfYcW28QW3Z6JeVrur40OB5K77tb7s1wjsz4PLg7bRdkW/fgXVxa71a2EvSLr86qb7i0k/dm/OLoERd846cJ0Q86e7LXLjKJPjoqCxM+77LacKVmWfv+Q3dPcnaYXW3TBFXeUjOZGR9iiKqT84Q9/OB1//PElAj755JNLtDV37tzyAvB73/vedO+996brr7++RNW+01yQtQj7gx/8YCF3g8i9Q4YMKa93vvOd6fDDDy9EXsuJJ56Ybr/99rT99tuXOmuU11x3u94zyr954NHiuU7J3vemm4wu7Z6749ZJNM3wNXYKqTne4e/tu3OanFNUvN7ZW2+W/u3756ann3muXc18zfVK+S/J7Zs6eVyWc1zxUEXWDz2aU6SZxCdNHLOGsHn5N9x2f5q+RU47zppanJPX5+jk57+6vqRUOTndmj5l4EqEOWZkem7Z8vXiNn2LidnBGpUuvOrOnGpblp7NhIDwZExcX5qvLVvevVG2COvenMKfmA32lEnj0/jc5hdeWJn2yynRBXm65oGHn1iLsGVYnsyEdsg+O6ZRw4elbXO/vTU7cefIFq1jymC9AHbgQyRGxlWrVpa+O3nTsdmhH1jS4ffk6R0p8q2zHgcOXG3gYXLljfPy+NwpbZ2jr4mZpBn5//rpr1enjbu47y7N6V7R9LjRw8sYnTBuVLFBb9htZnoqO2bkbSTs+XksmvI5NMsqo7JpllXW7EdnXPGyfb8DqlvnI+7P/VLkTMbNNx1X9LlddjCW57F27S335mnITdYQtnF51U3zMgaz0qxM5OPHjMhTXrPTiadfUbKh3WKLOhZhQ1VKW4SrIM2JEyeWa1Lfs2fPLuntUaNGlWhZivv8889PBx988EsUMn/+/ALgNttsU77HqD/zzDOF8P1bvV4K0r711lsLoc+cOTO99a1vLWnxThMBQ0Xxq1NOw0s6fGWWQUe6894FZZA3FoNqYZ5/MbfNg0X0o7OBl9p/NnvHDHw3zpOJxMjKgGkfx2hc7vzjM7EZ+MuW/XaOlyzm57fPc0oTswMjFT529MjSJ8gniq3R+Es6wQa+oP9JE48cvqL0xfWVcVkmcszPaVbYyCzQL/nG5/nfR3O6uJsJWztFlNo6Ok/JWD8xNPfHLXMkJjWKvBrLoryGATamCqQhRTHkR/LmBjmf3bYGgw4XZieKUddXa+TFseY8Lshjt3GtAQfcnL5+Tp4hgweXfp7SgEJi9ClL1I1F2wUEHEZz0GyR19TJm5TprEWL19bn03ltiQh0enZM2CEvjrj1J2wRx9v3u63oswqHxNTM6n+PLlMzDz+2uLS/lmVZBvpkfzik5NHfzc/Dy6txynJDydpRwn4lQiLSOXPmlLloqW2RN8PeWMxV33fffenSSy9NTz75ZElvb7755mnChAlr3ccBEMmLyNWx2267pZ133nmd0bV7OQPmxhWR/pTsPLSiIGdeHENQidZSjeG586zK/zWnRRk31xg6BAaXQbnzSKda7FI6WxfaA4aK8dPu3ORSGDPtloaDQy3+ybAj6mrcDBBG3l2IbcTwNbf3239IASMoJF3lp1+GfXjOKiCJbi76W3WeKtFad2EOUxqZnhqLPuA7HE36LH03y0ivPivjuctk1t/IyMEc1rCWRL90zWeNxdSP8cxxQQb6OlmNb8S+POs3T3l3ZdF2445s1TGhzxEvknCz82gNghd9V33CZHAe13SvvsGp+wj7eZmvrJfhDY4TfQ3KOlqcHZBGR1ufZJ9W2+fVssAEcbuPox2EvY7uvN1226UZM2akH/3oR+nBBx8s89SNZZ999inE+p3vfKfc5/6999477bHHHiVar9GzqPqmm25K5557bpn7Puigg9ZJ1uq3WO2cc85JF198cXnc/PzsCZuuvTp0HU1+2cu4i9Gi/EbS0tmV5pWWZHDNHFntWAhuVX7vs05nCF5WwBdv0MmNEg5FpWbt90LML3L4muoMfHI1OmWV05sxeaVt6Lb76LvIn/Vf5c+qLX2Rca/ydlu7a3sqGemra/pi/pCOSz8tOv9t8Z58xal8sRPUPjAgrxjv2r6bG13GZ9ZJLav1s+ql4zNrctCgAeXeen/px/l/0CB/t5ZqW1bm9P9v9ZnlWLHatjSPu9/aIvf/VirfrQTejbKWac/c3mpjtZGdqbaosc3Zohb7VPT/opBErfJ2S5/tuggbiFZwb7311mnfffct5FmAbyiibhH429/+9rJIzXz3N7/5zbTDDjukE044ocxjA/7GG28spH7kkUeWleHjx69/5eZOO+1U0ubve9/7ytO+/OUvpyHDpLleexGZSM3w4pbm+SJFh3hq8TPF4ElPNZbhwwansfnak08tScvyXAsvkZcnShv+Ylrqtbeq9TVI28sEWEhWO7tIhMwWfYiyajHYNxk3sswzSblNGDe6DKjnMkbsnbRbLxQ6ez5HltKnNZoWxY3Nc4iLsv6bI5puk1kK1Nyltj6Xsz6K6aeFTz5d+mLzoqNROW3uO6Z5Ns3rLwauHJCnQlanFWtKvdtk5HNIgcoYWFRVi3QwWfXNRr9EVE2f1muIVo3fFXl8Ppv7uqjMivJuLUNz+9iip5fktr+YOeB0PJFtjQjTrobGQr8yZo/nNDqZh6zMU1ZZn9Lh0ss1Su82eY0vPPBUgz7N1Wu7RbuNjgm7xD6xz6Zt9Hd6J6MxO7JLtph2bS7OPPZhhx2WrrrqqjRvXt7Pm416LeagpcCluI844oiyMhzZPvrooyXyNm99ww03pCuvvDKnHIeX1eMIvpn4mzsYR8GWssmTJ5fXiBEjWxYNSMXMzHuLpdYWPL44G7+lhYBvzCtQtWvWtMlrNcfAmJEXP9gGZtXqgoVPpXsefKysyjTv1C0eXzOGVgsb4A8/9lQe4IvLNq0HHl5YFibtkRflNBqDwTnVb/W0ufq78jwOX8sQAAAgAElEQVS+FJZ9ob6vnpfTV/Ozu/W9VdIW81hQx/DZ50q/+oLFWdKN3VyQkZ0J9rRah4HQFmdjf1XenrjpJmNesiLaLoixeT7Xdj1kZjEXB87eetMD3dh3Oc3m3HnR1lU8kcccR8r6kiXPLEs75EWRIrBabK/cLa8c12/NcT+ZnZmb8sK6KZuNewkZdJtujS8LPRGZRYPOTeBUX5P3KtO1VeKNxTob4/HivAqeY23Lmzn9bbaeXNLE3ahP7d8iz8mzMY+wRdm5ZF/m5YW/HEnbMRvXAI3IDtZu2+ctwdlO2WpLTnhMzDsFEHm32KKujLCBjTh33HHHsvhMWhxh1wjZti7zut7bEmYhW93GZa+1uWjz28j7kEMOSdtuu23ZErYhi44zISt+23xQihXC/3vm1cV4W7Cz63Zb5f3Vw8uhFBa8OHjBVhlbSc7N+3TPuvjm4g1aRHH4AXPKAq1uLZyJaflQBQPcau9R2QDY18iA75APTzEYGG2EJaLZa5eZZRuXAwsYyvvy5wznDpnIu7kwVHvkFf4OBHld3ltsAda7Dt+zbGcy2EVjMgwOSLFa1c4AK47f8qZd09A890f2K66fV1bnNqbsulFmhk2fdMCPnQslK5CdTUIy/FLfN97+QN6mOLIsouR8PpYN5BWZsE8799qyJcx6DIdQDO3ShVhIx4p/bb/xjvnp5LOuLnO2yJijYR/2DVlGhMbhor837rldGZ/nX3FbGnfryLKPd8/cF2zj6+ZiTQlHixOCoE4+86qiSwHEtKkTSkR5fd69QUbj2Cr4BfnMAXL+/PwbSgZMv7VqXDalW4vFgGWHSl7h/pMX9XlP3o9t250V/7awyRDIAsn87Pe62elXl99WtqzZAcJu7Zz7fPOhORtS3q4lbISMtA844IB00kknpTvvvLMsGFPuuuuucijKZpttVtLfTz31VFq0aFHaZJNNColLhV922WXlXpG3uenqIYmiEby/nfaaPO/gvNXlnEtuKZv5GfQ37D6rnC7EwDN6tnaJQm3lEpE6Fe262+4rUdisrSanow/avZBdtxaOhVXfT+cB/ZOzriqGmhHc/3Xblq0yV+aoTJm99aoyUHbNXi1CuzhvebrjHgNoWHr3m/cuA6Wbi5SvvZy7bLdl2iyTFNI66qDdSiqY4aZr6TgRjKj0tkzkTns7IOPAebOvtRi/l9kS1g0YIDNE9fbD5hYnzF5jUx/7z51doiwrjm/7zUOl70q1+sug33LXQ+lX2cgPyluhYGWbl73o3Vr03b13nVX67Fn5vARpYlH07jtOK2Py/LtuK6f2yZYh5b1zxoTRvz6P2yXZSbOi/G2H7FEc1m4ubM2wPOV2VHYef5EP+zk3kxS9sEUOA5L5uTlnC0TaUsO2P+2aMeGwXJrPHWC3BBlH7D+nZPu6tdDn7tmpfibL87Pzriv63Gn21OxUTS/OmXMtkDoHBSk7S+HufFiVzNHNOfNJtiPz2RCzpm3WNSIOyEbFVGrHyyOPPJK++93vlkjZXPV+++1XomgRsbnpv/qrvyrzmdLcn/jEJwphH3vssWXxmP3bZ5xxRjk1DfESwRz10UcfXer55Cc/WQ5ncVCLFeWNKRup8c997nNp+vR8Qs/ItY9UbAbhC1/4YsrrMNKnPv3Z5o9+5/c6jXkyi8mk3yxcYcBN2jL6ZcFO7mjaTC5eb1n4kp/os25NKTYCot2iRiuh9S7ylFXC+WULiILQ6hySay+UxSAFhjIHWBaoedPC8umv/DR97Ye/akmN2iZSIUNddEVHdJvX8qwWJF+oC7XcR89Ft/lj+id34wLEljQsVwLnM7/90XIUaitL1WldWFV16r0+urrvrtab96Xv5s/IS99D8jxht6ZPK07aaxxa5a5DktGLbK5pf6POOdJFx7kCfUL2xAl2Le66rVTjmrrY17LjJOtKe425QdaYvNhvG21R1WelCxiYu+5f+lxti4wP/dFYLfp8UaeA0WfrglmYWKvgaN1W26LPf/bTef3OmMJVr6ZsMHdXNHzMMccUwGqqG3n/y7/8S4mcFZ/ZT/03f/M3hXynTp1a5qSR+i677FKu1ShZfb5nfvvP//zPS90WDdh60Fik2JG2+zZE0dGHDuwb9oF5ADQW8nfjXuuXw027kVNxRJpKX/s1XevGbSHNbW98z7l4NYvFGLxlK7v3cJT1yVo/KwZ96EuXvQzK+s42cK2in8s29LdSjHfuj30tpOrzWjboeWNefxOztJftHJpfLymZqeoBMfWzjUaf69D9SzDaQBc22IhCmDNnzlxLbIZepFyL91Le9mU3FgvSvNZVzH1HCQQCgUAgEAgEegmBPtyrXhIvZAkEAoFAIBAIBHoDgSDs3tBjSBEIBAKBQCDQ4wgEYfe4gkO8QCAQCAQCgd5AIAi7N/QYUgQCgUAgEAj0OAJB2D2u4BAvEAgEAoFAoDcQCMLuDT2GFIFAIBAIBAI9jkAQdo8rOMQLBAKBQCAQ6A0EgrB7Q48hRSAQCAQCgUCPIxCE3eMKDvECgUAgEAgEegOBIOze0GNIEQgEAoFAINDjCARh97iCQ7xAIBAIBAKB3kAgCLs39BhSBAKBQCAQCPQ4AkHYPa7gEC8QCAQCgUCgNxAIwu4NPYYUgUAgEAgEAj2OQBB2jys4xAsEAoFAIBDoDQSCsHtDjyFFIBAIBAKBQI8jEITd4woO8QKBQCAQCAR6A4Eg7N7QY0gRCAQCgUAg0OMIBGH3uIJDvEAgEAgEAoHeQCAIuzf0GFIEAoFAIBAI9DgCQdg9ruAQLxAIBAKBQKA3EBjcG2K0R4ply55P9z/wYDr7rF+25wHNta5KadnyZWnwoMFp4KDe9qVWrlyZXlj+QhoydEgaMGBAMxJteb/gvlvSuAGPt6XudVW6fNnyostBgwat65aWXx+UBqarr7g4LXzwtpbXva4KV61cVfru0CFD04CBndHnutrSzuvLl2d9Dsj6HNw5fbZTnnXVvWrVqqTvDh6SbdHA3rZFK1asTCtXrCi2qFPlvnvvSSO33/5VPy4Iez2QDR06NN0z7+70H9/49/Xc1bqPXnjhhXTvvfemTTfdNI0fP751FXdhTYsXL04PP/xwmj59eho2bFjHWrjnFh17VGL06HPsqLFp4sSJnXtwftK5p/+4o89bunRpuu+++9KMGTPSiBEjOvrsTj6MjOSbPHlyJx/b8Wc999xzpe9uueWWafTo0R1/ficf+MQTT6Qnn3yy9N1OOSeeuesuc161mAOyUclxXZS+EFi0aFF69tlnO6bEp556Kn3sYx9L73rXu9Lv/d7v9dWknrl26aWXpq9+9avpX//1X9MWW3SQRTuI4IrstdPnAQcckN7+9rd38Mmdf9SNN96YPvWpTxV9brfddp1vQIee+JnPfCZts8026bjjjuvQEzfMY+bNm5c+/vGPF52+7nWv2zCN6NBTf/7zn6df/vKXpe92ytmUYRw5cmQaN27cq5IyIuz1wCXK7WSkK6IfMmRIUeJmm222npb1/4/gOnjw4JJN6FVZEbbswZgxY3pWxtoTJ0yYUBxbf3tVn2QdPnz4RqFPGTDTOJtssklP65NO2Vu2V9YEiXZz6e3JiW5GPtoWCAQCgUAgEAi8CgSCsF8FWO2+VYTCo+3knG67ZVpX/WQkaycXY62rLe28znvvVJqtnXK8XN0yQ+bpZU16uYwdO7bro7BW4G9c0ie99nqRNZHx69Ti19eC56DP5/JaKojvtg4Bywks9tg+rx6cNGlS6yruwpqstmXcd91115Jm7NXyzDPPlDnPzTffvFdFLHJZMKnssccePb1IiT633nrrshirl4vpHC/j89XOs/Y3XJYtW5ZGjRqVdtppp64PIGLRWRf1LgsRHn300TJHpgP1crGYz8pM80a9HJUtWLCgRGR02svl+eefT4899ljRp/nAXi1kJF+vkxiHmi0SZfeyQ62fLlmyJNnloO92e5QdhN2rliXkCgQCgUAgEOgpBGIOu6fUGcIEAoFAIBAI9CoCvb1CZANpzVy0lzkgizfqZvx6rblZPpeKqekYqXGvxuIer74+c5+6fd/zOpnW6as9VR7zmo1t8e/6mfb6buMxAPXzKk8zBvV6xaITctKhdvQlh/b4XGnEvcrVKGuVt9yci/qqvH1hWO/zt1M6JUujPmo7yVH7bjP2vlNl8ffl9Nqs80Y5fb8TixC1sVkf2lHlXBcGLyefz/vCsMrYKfnq8xrbQibPb8bb+0Z5a59cl6y1T/te7ftrVfrim9pP+vqsldeax06znPV9s1xVZterrM3y1O9o77r6rXoabXwrZeurriDsvlB5jdfMc1122WXp61//evqjP/qjdMQRR5Q5zIULF6YvfelL6Z577lkzB2a1tENSDjrooLIn2f7H0047LV1++eXJQSo6kdXUhx9+eNp///3T+eefn37961+nxx//7RGb7vF+zpw56SMf+UhZ4NTueWEdVVvPPvvsdNFFF5VTy+pc7Z577lkWWn3xi19MVtWa8/PZtttum4499tg0ZcqU9Jvf/Cb99Kc/Tbfffnsy/6nT27/7wQ9+sBiQSy65JP3qV79aSxN13tvBMoceemiaOXPma9TUy3/9O9/5TjrppJPS1KlT19y82267pT/8wz8s+vz2t79dVtLS8y677FLk0O5rrrmm6JXM5gLJc9ZZZ60hvun5hDc6d6jKf//3f6crr7wyWdBUC1kZCbr827/927TVVlu9fGN/xzs4VnR58sknl3ZbW2Bluz609957l8U42uNgCX35zW9+c5o1a1Z52ne/+91y37777ptmz56dHKByzjnnpBtuuGGNrPrDgQceWBZq/du//VvpK+ZIa3n66afLzojXv/71pf+2uxgrv/jFL9IVV1yRHI6EXDz/ve99b7rtttvS1VdfXeY16dV1GBx99NGlf/qcfulLPzX2LMx605veVHD6yle+Uk4I06drqXXpHw4i8bx2Fv3GM7/1rW8VPdAvW+K59GpOWj/da6+9yul0999/f9Gha3TAzuifdHn66aeXzysxHnzwwUWX+up//Md/lH7jMwUWdGnMw8sYaWfRJy+88ML0wx/+sDzGs/UrenM6G8I1RquN/YM/+INiY8nMhtIRWcxds0PGIZwsQoOTsWtc0ye7655ayOr5bP3nPve5Uk8nVtQHYbehR1lodPHFF6cHH3ww3XTTTeXkJ4NVR3jooYcKASMcA14nuOuuu0onN+gZAwPE6V9veMMbymCwclxHM9AQoYFnQCo6DjJ45JFHynUdtd0GwXPJwsA/8MADhcx23333QswGsjbAgGNyzDHHlDYjLU7IzjvvXP599913lxejgcwZFR1eHQbYjjvuuJbTwcgyPtddd105nKNTxyXSl0H8vve9b01PQTx0UY/jJA9jrs2MHiNhkDNmDAjnDQkwhtpNp2SuRoWh92+YKrBgIOCH7Nq9iEv7f/CDHxTdMVLwpQvy6UswUOjr3HPPLQ5XJez58+evuVe7Tz311CLzfvvtV4yea+qDF5n1aYbVdf3fvQylMdGJ4z7p5I477ihycLzqkbHaYwzCgtw+I6f+bTxyTDmKTsSiXw6KhaHab0sQWWGmP8Omyufv//7v/5b7OrVTAFHpM1bs65ccMMSmfXagkPnWW29N119/fXEEkbAxp430TT+I6L/+67/StGnTilOpPrLApDrgSIptqmQOu+9973sFA/psd+FkWLFfT4XkgLE7dtgYa3A45ZRTin1kJ8lhsSCi5TTq717sLyeTHo1huqyRM1nJbBzCohZjQb36NOw6YXM9Owi7xb1K50Wet9xyS/FUDRYGAmErBrmj/nhu7hVlXnvttcU4M3JIjfH23Te+8Y3lOwaPzqlz8Oa9FAbeZ0gfoft+J05m81wyci522GGHEnFV+bSHQROJGByHHXZYMW4cF8RlcLjHwCLT7//+75cBoU6G0gBh3Bk3kY3CkPCI1SsqZYg6dTa3gWig0ldjYagYBGTEMbv55psLJmRpLNoOCzJ/+tOfXmPIqrGAAePiVYu+gyT0lbe85S2FSNpVtMMxlGeccUaJMA855JCSuWCwRJ8yIXB3H53Q25133pmchdxolN0PEzpWB0eN/hl5JFmdSfLUwunUL0RzDCUyb3fhfHGmOBp//dd/XfqScUg+Rp2x5oBqJ3LjJIrGOeBHHXVUcbw4NeQz1siH4MhfI7kqA2LQL3wHcRrP+ky7i2cYQ8aKQla61D5toBc6R+BIDO7+LeI0PvVJ+j3vvPPSP//zP5cxXJ1q9qw6m+94xzvWiIKsESYCFXhwzNtdtJn98VK811/1p3e/+92lz5FTn2Rf9Ft2srmIuDkvf/zHf1zGoXv0ZTLJjHrvnPFaYMPh8ywY+6wTUzme397cTDMyG8F7g5SiKZWRN3h4Y4yBQc04ICafM4QiR8pmlH1u0PiO+w0y9/Z1RKp7DR6DROpKp+Upd6IwwAytNkrDV7L2bN6t7EDjQQTkMch1bPjUVD/jyGgzeHCBAWeFwWgsMBIhwJGRZVA7NUC0w2CnLy86YdxrqfJyNK666qqik8biu2SDAd2S1V8GlRFv9Mzd5zNTIp61zz77FHzh1K5Ssx019VunGbQXIXMuRZvwFo1xSOgMkdF/LbXt5PFveq4ZBgTR7Ej6LiKRVoWhqKwTUxwcKBhzhvzVRn9hrI1waCx0pE8aq9VJM/Ya5WPUOW6NhXycNBGnvs/5NGXQCcJeX1/RdtElJwQRc1j03Ury+hs9wInOycEG0bl/I6/m7BanhWOi3+or+kzjFNL62tPuz8ilz5LVNAaHBAbNujJO9V1j2xhV9Pfm/qBv6/uCrBpwdHJPfkTYLe4xNSLRaXl61Vvj1TPSBv7//M//lIjRoEdG5npEx9VDl54888wzS9RhAIm2pZUbB4oOJhLzAxq8fca9uXO1WLQ11enUIkCDstkQ9/VMA5rcOjlZEbyBc+KJJ5bsgEgGXox2X94qvBCl1Bej1+4UcaMM2q7dxx9/fLlMXqlAHnwt2u/14x//+CWkgxhMiXBwyE6fpg/IKlPSaMAZCkaFAybqOfLII/uCs6XXOE+cA7i+EsdAX2TMf/azn62VFWDcETMCEH1ccMEFRVbvRS2yFI2yIms/AEP/n89nN7mvE0WWQISMTP2QB3KiD22skVpjO0RlxqjIkXz6LufRj39U+ZCxNHijfLItUqZSz3/5l3/ZkezBK8GP7oxfzocsVV/nPRhfpifYlH//938vazjITUeuceQaZZVB1G+NcT92w+51U+F0GUuf+MQnyjhtlpltlRGwvsC/6XXu3LklG8HZqsEBstZvODscGHrlrHXSCQvCbnHP0nkpVRqYMhlrJC4txggjXcZBBzJ4eKY8WB3+ne98Z+koOoB6DADEVtPrb3vb20oHUpAI0mco1Ceq7VTH4aFyGKSg1hXpIjqGzqIti61EMUiBcfTXIPJd6WSkQRYG3FwxzGAn+iEno86YSrV1yimp3YLXzVi///3vL5c8v3kBGFnMQyNsjhm9NX4fyTFyUuNImUz06iXNypFjQPUTEacoRf/pxDwgIyRy0oYa7ZuzRrrmb/VRJFcjJgaNvvRbGQ/GH5HpeyIO87x0Jc1IfxxPckq9ein6u6kfOpeG55g2R21rAGzxP8jJaDPOpqE4K8aaTJVfVBN9kgtRcbbpSwZAmp/uTeEgealWn5kWIh+H2z0KTKy1MN/91re+tThm7ZzWeDUQ1SwfvdNXY4an1kOXCNsCUHqGCYdZ/+bAWH+D1NQFA/P7+oxFXRwzGHdToTf9V780pcMhbiyCBLoXKbNZsmRI2WLaP/uzPysOCEz0WwvcjBdOmn7EBnayBGG3EO06T2I+RCexAEcHr0bcwgVRjM5uIOvwlC5txoAxdoy/eRH3MApeFk7oZIiZsUByCN4gUY8O90qio1aJaqAz0mRDNOsr1ZCLTBGX6AYReXEyGHYv8luhTC4GkpfvOiPhPUdmQ3juDJqUGkPdWBrl5kQZ7DVzILpqLPSD9HyuL0ipeUkhMn4MnOsiMlkXUYx+0ZcxXR/Wv8tn+qm+w8lAzo3Fe44m/DmLCj1K/8LEwjgGTl9Q6JqMHBx9U9/lnOi7db7Ufa5xQkU6VhN38oQpmJKHoyTKlynSPsRrrtM1crjPXwRkLMoAcTA5Fxw2JEZn+mydHqqE7T0bYJzY3dFJZ7ooYj2FXHShbRwLNquvjBXdsDccNJgY6/QGJ30dJpxwpMbx0R/Iry91KnBYj5hrfURm7eLwcxLrot56k/7LqRL8kIXDRq9WyNsVwSYbC/qJ8WB8cqg75WQ2ChOE/Uq1/jL38VgZPQNZ55Yy0XFd928EpYM3zp/4nHFzjefnLyIwmAxyA4PnjrgMLgOHsdDpRGPuEal3wrA3im8wIyERhHZrW438dWxGQBGhiEzJ0FhE39XDR+AiaoNCIZcIDjaVwE844YQ1mYe1KuqiN4iMl/7973+/RFz0qtRsBB255oXUvOeo1UVLHBWEIW0uEuiUMdBuhKmPIV/9TzRi/YVIA/Yi7cbCiDPm//mf/1n6dHWk6JTu9Q8y0Cuisy1N3xWZiLr1G33Gwq5Ok5k2eCnGEkLmBOu/Ut0wQMqmQDhNjWRW5eNg6bdeMkb/8A//UMjb5+SzWIvDwsmh705nhdZSVtMbZC3arzqHAWey2qo6T09uumS3jGP6FFVamCWD6DOOKYca0SHDTqzyX59s6/uMs4VkZfFkVOiw0WYZh3CR3TI+2V6/ky0Dwx6x6wIw0wj6tCzhhiix6KxFqDMCFh3x1j70oQ+ln/zkJ2Xbk78WSjGMjAEDVwtjzpvT+XUEnUbkYSAgPgagLmLzXpqYIVCn+uxp1hE77dHWjm3wixQRay0WMfFgdfRG56QRZgO+piPh5j6Dgmz1F4JEmzxcWEo3N887tUhtLavG4JcFYOjoTxZEoW9kSN5aODkMO0OIuDlgvHcGj5EXAXaqcJQQj/5lJTRjVot+qU82F99BakgXmXNU6dF70xf6gOIaItM/jQvpU7siyI8ADsxrATrdd7VBmzkQdSxKddKP8VWNeLPMxiIy44wz3op+qy5yGo/q02fpG4lZc9FX9Npcd6ffc8g4l9rKUayBBPlqRoSzZmzrpwo7xJk2Dr3gJ/PnOwhM3+/mop9pt7lquuJUkUmpafKKg+vsF9nr1JzIGtm/5z3vKdmFDVUiwm4R8gateTCeGy+tcdWoiEREaqGOeUwGTbrQgGdARBm8P3W4LlVqwCBjBpNRt0hJ1MXgGTjqQHyN80Wew0iIeNo5t6I92vKBD3ygDHiLxywMkxlgoBjz6rX3BS8DybkRUdY5cITBWFrNibwNEMbDQPPvGqW4vy5+qZFdX8/o9DXthLm0P/3QjcLQm89EyvTrHoYBgZmvJ7M9oFKNHKG/+7u/W0NiZHXfn/7pn7ZtD69niAItyIHzN77xjdLftEv/lEokU2PxOWfDNIGDUxrPBCALh01RN12LYGVZ6NWea31b/208iEK/4ZiJ4NpZ9DNjTPREPnqjFzqRJmeUa4aouR10KQWs3b5Ll+Qzfq1PQV72XCNsGCC1WtyLxOmy0xmxZjk4XKbSFGsVrDOo9kIbETAdsTWcsNpe/5b2Nv44YjJEikWy6qmFTbJgy3RANxW65lhwukzB0aeiL1pnIzumz9ZAQ5YJHqY39GvE/s1vfrOMyUYdcrJlWpB7u0sQdosQpuhK1M3pEsSCiAxkhk6pESPFS8Hw2tThXkZA1KKD6Tx15aL0lM+lTRmZ5sUdIjTXOhG1aCsngqGVFagOBiLnnEgpWVDEmDUXxCQVKeNADjLCA3FIQ4pQ63x/83YZzxWFdypyYYhrertRDs6JSIVhatwTrt2Mv8ENA3L5Sy7E5nteMKqHotTBjiQbHS2ywrOdzheZ6MO6CU4RZ0M7EbV2Mljar0/Zb+/fCuOkT9MdAvCiE31fPTCosjLwImoG0nN8Rz/1eS1k7MTees/lTErXI1ht0V79jD7IRX5ZDvjXUh0yzkeNtn2u3cauF/k5N+St+NXvk7WTmZM1DX9RV/qxNphr1s/olS6MXYTFDnnBxZiFEwdKpGmM+m6Vjw0iu/ld/RN+jQTm/YZYZGeMwbhxFXvz+CUbp0MgZNyxx/qq/lnn38kiCmfP9RXfMc7Zadg1O1z6TPO1Rvxb+e/4ta5Wohl1BQKBQCAQCAQCbUIg5rDbBGxUGwgEAoFAIBAItBKBIOxWohl1BQKBQCAQCAQCbUIgCLtNwEa1gUAgEAgEAoFAKxEIwm4lmlFXIBAIBAKBQCDQJgSCsNsEbFQbCAQCgUAgEAi0EoEg7FaiGXUFAoFAIBAIBAJtQiD2YbcJ2Kg2EGhEwKlRfgjFvk97WO1zdSykwyXsZW3FPk5nWDsUwh5b+6GdWmavu3OS7XFu3Pfc2Db7kZ3YpQ3uswf1dyn2J/vxEien2f/afE6APc8OLnE4iR+VcNaAPbv10BT7Xj3bL9D5fvORtr9Lm+I7gUAvIRARdi9pM2TpWgScDOUkJcevOt3OaVt+PMPBFd43FsRWT1t6NQI5XhMZOvzEYRBO7ELG9USnddXloB6nOSH8eqzouu5d33XPcU4456Sv08Ic+eg0QCfcOW/dyWdkdyqco1z9RehO2PKzlFECgUBgbQQiwo4eEQh0AIF6etLHP/7xcnKdo0od03lB/t1op0I5Sav+8AKyc3qSk5eculXPlRchu+a0JfcjZZ+7X/3+3UjOzk32Xaetier9G2k6YlJRh/qcmeyoWJFuPXFM1O957vWdWq+66ilervmudtT6+jp73GfuFVHLMjgVza90OWlLGzgJHBknajUX9flpx3oiHjkbT9ciE+Kvn2u/Norc4ant1XkgH+xE/hwibfeZtmkHzOsRuK5zJqrcsHCCVuPpZ81tjfeBQLsRCMJuN8JRfyDQBwKOwkTcIkvRpLPE/fgGMnLNjxwIEHMAAAbISURBVAz4GT/ntEsfIxdHpEqhOy8e8YiKTzrppBLROt8Y6TT+hrZIVST77ne/u6TJRfl+u9hv/SIiz3JMo8+cX684E9oRnccdd1w5ktE509rm6FnlHe94Rzr44IPLZwjta1/7WjlP3rPJg3j7Kojf+dpkdQa5lLfvKI1p+MbIHFn7oY1//Md/LOdyI2D3wsavhZHZ2fxf/vKXizPAcXB0qB+2kE7361sifs9EtM649wthBx54YMHzW9/6VsGOHMjcL8s5bpdT4AdtnJPOGVCm5+M4//7v/z5Iuy/lxrWOIRCE3TGo40GBwGoEkKUzmp0t76xiZIKQELVfdhMBIhCErCBc76W6/UgB4hFR+lERxPMXf/EXhfyQLYKuRcSNaGskjryQph81MFesHc4GFz366UTRqajcv52T7n4k6Sdc3Y+8tEl7nSvux2yk0/20ImfCGfCcgforSI361hbnqzvr2Ty+KL0W9dXItZGwEafsAwJ2XTTtGT/84Q+Lw6Bt5CXHMcccU8icI+O8bPciY3V89KMfLX89Uzul3jlCnBsOCLzpg3PiHs6UzAcc6nnwrntVJ6NRtvh3INApBIKwO4V0PGejRkAKFrmdccYZJSWMOBGNXw9CGAgFUYj+EIno0HyvyBEBiYaRlYiy/qQl4vEjIn6EQV3q5AQ0F59xBnxPuhgBI0KkVlPSomPpYJGv6FVELOJ3jYOgiERF+4idIyDy1n4Rt8jWT8VKefc1/45w1em5nI9XSnyI3PM4C75PZvP0Im+YuAYjGMKCM0BGDo1UOkdBqhuG8PUdjo9f69J2bXXNvaLq+qMznue6KB42nAHPeKXtbtZBvA8EWoFAEHYrUIw6AoGXQQBpIhcRMiJAAFZFS3sjWcQg+nMdSSEmK74RDvIQBUsRi3z9ralnv6jkM6Qm6rTyvLkgL/PEok+f11Xgdb62+X7vtVcKXXRefznOdQSH+MiC+KS3PRdJagtno6/V6JV41dfXXHVfbUDyiJmTIwPhPTxkFTgPIl4ZCvVZyAYzvzZVf/PYL8LVqB/pcjz8FZn7iUzthD0SJhcdkIMMZFFndRKsfFdvkHZfmoprnUIgCLtTSMdzNmoEEJbo75/+6Z/KnDGSqCTm38hD5NlYzJuas/b7xEi+FvdJLyOvdhakLR3vN6o5BLVoqxXprybaFOXKLCBIhKtuWYX1FWQrNc3ZeF/+7XCRvyj+2GOPLV9DrgcccED5aUTRsVX3sgLu89Ouxx9/fIn+TR1ccsklJcUvG+FnFRH0xz72sfI79DUd7xpsvUf25sFNAZx33nklDW8uHeF7bpRAYEMgsP4RsyFaFM8MBHoUAQQnKhTp+tucGm4kQJG0SA8JiQjrnmbRtkiz/i41opLaFnGKiBFac0FAUtYI3uf2ZiNMc80iXp9rj3q8FNcQoehaGl6bvWqE634RK+L28vyrr756zdas5jb4rjZzVtyn3TV1Lr1uz7hXYyGnaQQEKZWurbbDIXCfab+XiF8qHxn7TWT1aI9MhDlzv2WM8MnE0VEf0nafaYK6clw7Kia+L8V+6KGHlt+49gxRfl/z882yxvtAoF0IRITdLmSj3kDgNSCA2BCrVd0nn3xyIRUki+Qt+PI5AhFRfvvb3y7XpXn7SnOLZCdPnpzmzJlTyPd73/teidgRmGvSvcjZsyy8QtIOW0FW6nTtxhtvLATrO9LF7tcOK8QtPhM9IzOE31dK3DVtsMhLGyxO813XfcdnyLaxIGmkKcrVBuRrLp6M2iFS54CYV1ePdqtL22Bl6xwnxr0IXoZD5OyvzIHvWh3vPrKpwxQFrF2TDncdzghb+r0vfF+DmuOrgcCrQiAI+1XBFTcHAr8bAuampWpFps1FxGduGVHUKNu8sAVQSNuBJiJNpGzxFDISrZoDN5d97bXXloVVSAX5Ijbkow4E5jPPsKBNavuiiy4qdSBtRCvaVJfUMYLzPKlf6WZkZ5HX5ZdfXr6D8ETr6rSPWtra/dophU9GzkRfpO15Rx11VPnMgjorvOu+aW338rw99tijzNXXeX73Ik3ZBfPMtrWRjSMiKhatw8178h922GFFXuSO7OvecOlv27ZkLsy9c4SQfV1Zr92iePWYO3cdfhwH89ccir7016zPeB8ItAuBAdmDXNWuyqPeQCAQCAQCgUAgEGgNAjGH3Roco5ZAIBAIBAKBQKCtCARhtxXeqDwQCAQCgUAgEGgNAkHYrcExagkEAoFAIBAIBNqKQBB2W+GNygOBQCAQCAQCgdYgEITdGhyjlkAgEAgEAoFAoK0IBGG3Fd6oPBAIBAKBQCAQaA0C/x8BzorzHcjXmwAAAABJRU5ErkJggg==;" vertex="1" parent="1">
          <mxGeometry x="450" y="96" width="492" height="477" as="geometry" />
        </mxCell>
      </root>
    </mxGraphModel>
  </diagram>
</mxfile>
